<?xml version='1.0' encoding='UTF-8' standalone='no'?>
<svg height="291pt" width="453pt" viewBox="0 0 453 291" xmlns:xlink="http://www.w3.org/1999/xlink" xmlns="http://www.w3.org/2000/svg">
 <title>Figure 1</title>
 <desc>
Creator: GL2PS 1.4.2, (C) 1999-2020 C. Geuzaine
For: Octave
CreationDate: Thu Mar  9 18:16:04 2023
</desc>
 <defs/>
 <polygon points="0,0 453,0 453,291 0,291" fill="#ffffff"/>
 <g>
  <polygon shape-rendering="crispEdges" points="0,291 453,291 453,0 0,0" fill="#ffffff"/>
  <clipPath id="cp00453291">
   <polygon points="0,291 453,291 453,0 0,0"/>
  </clipPath>
  <g clip-path="url(#cp00453291)">
   <polygon shape-rendering="crispEdges" points="58.9604,256.72 410.457,256.72 410.457,21.8975 58.9604,21.8975" fill="#ffffff"/>
   <polyline stroke-linejoin="miter" stroke-opacity="0.15" stroke-linecap="butt" points="58.9604,256.72 58.9604,21.8975" stroke-dasharray="16,0" fill="none" stroke="#262626" stroke-width="0.5"/>
   <polyline stroke-linejoin="miter" stroke-opacity="0.15" stroke-linecap="butt" points="102.897,256.72 102.897,21.8975" stroke-dasharray="16,0" fill="none" stroke="#262626" stroke-width="0.5"/>
   <polyline stroke-linejoin="miter" stroke-opacity="0.15" stroke-linecap="butt" points="146.834,256.72 146.834,21.8975" stroke-dasharray="16,0" fill="none" stroke="#262626" stroke-width="0.5"/>
   <polyline stroke-linejoin="miter" stroke-opacity="0.15" stroke-linecap="butt" points="190.771,256.72 190.771,21.8975" stroke-dasharray="16,0" fill="none" stroke="#262626" stroke-width="0.5"/>
   <polyline stroke-linejoin="miter" stroke-opacity="0.15" stroke-linecap="butt" points="234.708,256.72 234.708,21.8975" stroke-dasharray="16,0" fill="none" stroke="#262626" stroke-width="0.5"/>
   <polyline stroke-linejoin="miter" stroke-opacity="0.15" stroke-linecap="butt" points="278.646,256.72 278.646,21.8975" stroke-dasharray="16,0" fill="none" stroke="#262626" stroke-width="0.5"/>
   <polyline stroke-linejoin="miter" stroke-opacity="0.15" stroke-linecap="butt" points="322.583,256.72 322.583,21.8975" stroke-dasharray="16,0" fill="none" stroke="#262626" stroke-width="0.5"/>
   <polyline stroke-linejoin="miter" stroke-opacity="0.15" stroke-linecap="butt" points="366.52,256.72 366.52,21.8975" stroke-dasharray="16,0" fill="none" stroke="#262626" stroke-width="0.5"/>
   <polyline stroke-linejoin="miter" stroke-opacity="0.15" stroke-linecap="butt" points="410.457,256.72 410.457,21.8975" stroke-dasharray="16,0" fill="none" stroke="#262626" stroke-width="0.5"/>
   <polyline stroke-linejoin="miter" stroke-linecap="butt" points="58.9604,256.72 58.9604,253.208" fill="none" stroke="#262626" stroke-width="0.5"/>
   <polyline stroke-linejoin="miter" stroke-linecap="butt" points="102.897,256.72 102.897,253.208" fill="none" stroke="#262626" stroke-width="0.5"/>
   <polyline stroke-linejoin="miter" stroke-linecap="butt" points="146.834,256.72 146.834,253.208" fill="none" stroke="#262626" stroke-width="0.5"/>
   <polyline stroke-linejoin="miter" stroke-linecap="butt" points="190.771,256.72 190.771,253.208" fill="none" stroke="#262626" stroke-width="0.5"/>
   <polyline stroke-linejoin="miter" stroke-linecap="butt" points="234.708,256.72 234.708,253.208" fill="none" stroke="#262626" stroke-width="0.5"/>
   <polyline stroke-linejoin="miter" stroke-linecap="butt" points="278.646,256.72 278.646,253.208" fill="none" stroke="#262626" stroke-width="0.5"/>
   <polyline stroke-linejoin="miter" stroke-linecap="butt" points="322.583,256.72 322.583,253.208" fill="none" stroke="#262626" stroke-width="0.5"/>
   <polyline stroke-linejoin="miter" stroke-linecap="butt" points="366.52,256.72 366.52,253.208" fill="none" stroke="#262626" stroke-width="0.5"/>
   <polyline stroke-linejoin="miter" stroke-linecap="butt" points="410.457,256.72 410.457,253.208" fill="none" stroke="#262626" stroke-width="0.5"/>
   <g font-size="11" xml:space="preserve" font-style="normal" font-weight="normal" transform="translate(53.9606,273.964) rotate(-0,5,-9)" font-family="'Latin Modern Roman'">
    <text y="-0" x="0 4 " fill="rgb(38,38,38)">-1</text>
   </g>
   <g font-size="11" xml:space="preserve" font-style="normal" font-weight="normal" transform="translate(90.3976,273.964) rotate(-0,12.5,-9)" font-family="'Latin Modern Roman'">
    <text y="-0" x="0 4 10 13 19 " fill="rgb(38,38,38)">-0.75</text>
   </g>
   <g font-size="11" xml:space="preserve" font-style="normal" font-weight="normal" transform="translate(137.335,273.964) rotate(-0,9.5,-9)" font-family="'Latin Modern Roman'">
    <text y="-0" x="0 4 10 13 " fill="rgb(38,38,38)">-0.5</text>
   </g>
   <g font-size="11" xml:space="preserve" font-style="normal" font-weight="normal" transform="translate(178.272,273.964) rotate(-0,12.5,-9)" font-family="'Latin Modern Roman'">
    <text y="-0" x="0 4 10 13 19 " fill="rgb(38,38,38)">-0.25</text>
   </g>
   <g font-size="11" xml:space="preserve" font-style="normal" font-weight="normal" transform="translate(231.709,273.964) rotate(-0,3,-9)" font-family="'Latin Modern Roman'">
    <text y="-0" x="0 " fill="rgb(38,38,38)">0</text>
   </g>
   <g font-size="11" xml:space="preserve" font-style="normal" font-weight="normal" transform="translate(268.146,273.964) rotate(-0,10.5,-9)" font-family="'Latin Modern Roman'">
    <text y="-0" x="0 6 9 15 " fill="rgb(38,38,38)">0.25</text>
   </g>
   <g font-size="11" xml:space="preserve" font-style="normal" font-weight="normal" transform="translate(315.083,273.964) rotate(-0,7.5,-9)" font-family="'Latin Modern Roman'">
    <text y="-0" x="0 6 9 " fill="rgb(38,38,38)">0.5</text>
   </g>
   <g font-size="11" xml:space="preserve" font-style="normal" font-weight="normal" transform="translate(356.02,273.964) rotate(-0,10.5,-9)" font-family="'Latin Modern Roman'">
    <text y="-0" x="0 6 9 15 " fill="rgb(38,38,38)">0.75</text>
   </g>
   <g font-size="11" xml:space="preserve" font-style="normal" font-weight="normal" transform="translate(407.457,273.964) rotate(-0,3,-9)" font-family="'Latin Modern Roman'">
    <text y="-0" x="0 " fill="rgb(38,38,38)">1</text>
   </g>
   <polyline stroke-linejoin="miter" stroke-opacity="0.15" stroke-linecap="butt" points="58.9604,256.72 410.457,256.72" stroke-dasharray="16,0" fill="none" stroke="#262626" stroke-width="0.5"/>
   <polyline stroke-linejoin="miter" stroke-opacity="0.15" stroke-linecap="butt" points="58.9604,227.367 410.457,227.367" stroke-dasharray="16,0" fill="none" stroke="#262626" stroke-width="0.5"/>
   <polyline stroke-linejoin="miter" stroke-opacity="0.15" stroke-linecap="butt" points="58.9604,198.015 410.457,198.015" stroke-dasharray="16,0" fill="none" stroke="#262626" stroke-width="0.5"/>
   <polyline stroke-linejoin="miter" stroke-opacity="0.15" stroke-linecap="butt" points="58.9604,168.662 410.457,168.662" stroke-dasharray="16,0" fill="none" stroke="#262626" stroke-width="0.5"/>
   <polyline stroke-linejoin="miter" stroke-opacity="0.15" stroke-linecap="butt" points="58.9604,139.309 410.457,139.309" stroke-dasharray="16,0" fill="none" stroke="#262626" stroke-width="0.5"/>
   <polyline stroke-linejoin="miter" stroke-opacity="0.15" stroke-linecap="butt" points="58.9604,109.956 410.457,109.956" stroke-dasharray="16,0" fill="none" stroke="#262626" stroke-width="0.5"/>
   <polyline stroke-linejoin="miter" stroke-opacity="0.15" stroke-linecap="butt" points="58.9604,80.603 410.457,80.603" stroke-dasharray="16,0" fill="none" stroke="#262626" stroke-width="0.5"/>
   <polyline stroke-linejoin="miter" stroke-opacity="0.15" stroke-linecap="butt" points="58.9604,51.2505 410.457,51.2505" stroke-dasharray="16,0" fill="none" stroke="#262626" stroke-width="0.5"/>
   <polyline stroke-linejoin="miter" stroke-opacity="0.15" stroke-linecap="butt" points="58.9604,21.8975 410.457,21.8975" stroke-dasharray="16,0" fill="none" stroke="#262626" stroke-width="0.5"/>
   <polyline stroke-linejoin="miter" stroke-linecap="butt" points="58.9604,256.72 62.4805,256.72" fill="none" stroke="#262626" stroke-width="0.5"/>
   <polyline stroke-linejoin="miter" stroke-linecap="butt" points="58.9604,227.367 62.4805,227.367" fill="none" stroke="#262626" stroke-width="0.5"/>
   <polyline stroke-linejoin="miter" stroke-linecap="butt" points="58.9604,198.015 62.4805,198.015" fill="none" stroke="#262626" stroke-width="0.5"/>
   <polyline stroke-linejoin="miter" stroke-linecap="butt" points="58.9604,168.662 62.4805,168.662" fill="none" stroke="#262626" stroke-width="0.5"/>
   <polyline stroke-linejoin="miter" stroke-linecap="butt" points="58.9604,139.309 62.4805,139.309" fill="none" stroke="#262626" stroke-width="0.5"/>
   <polyline stroke-linejoin="miter" stroke-linecap="butt" points="58.9604,109.956 62.4805,109.956" fill="none" stroke="#262626" stroke-width="0.5"/>
   <polyline stroke-linejoin="miter" stroke-linecap="butt" points="58.9604,80.603 62.4805,80.603" fill="none" stroke="#262626" stroke-width="0.5"/>
   <polyline stroke-linejoin="miter" stroke-linecap="butt" points="58.9604,51.2505 62.4805,51.2505" fill="none" stroke="#262626" stroke-width="0.5"/>
   <polyline stroke-linejoin="miter" stroke-linecap="butt" points="58.9604,21.8975 62.4805,21.8975" fill="none" stroke="#262626" stroke-width="0.5"/>
   <g font-size="11" xml:space="preserve" font-style="normal" font-weight="normal" transform="translate(43.4529,261.22) rotate(-0,10,-4.5)" font-family="'Latin Modern Roman'">
    <text y="-0" x="0 4 " fill="rgb(38,38,38)">-1</text>
   </g>
   <g font-size="11" xml:space="preserve" font-style="normal" font-weight="normal" transform="translate(28.4529,231.867) rotate(-0,25,-4.5)" font-family="'Latin Modern Roman'">
    <text y="-0" x="0 4 10 13 19 " fill="rgb(38,38,38)">-0.75</text>
   </g>
   <g font-size="11" xml:space="preserve" font-style="normal" font-weight="normal" transform="translate(34.4529,202.514) rotate(-0,19,-4.5)" font-family="'Latin Modern Roman'">
    <text y="-0" x="0 4 10 13 " fill="rgb(38,38,38)">-0.5</text>
   </g>
   <g font-size="11" xml:space="preserve" font-style="normal" font-weight="normal" transform="translate(28.4529,173.162) rotate(-0,25,-4.5)" font-family="'Latin Modern Roman'">
    <text y="-0" x="0 4 10 13 19 " fill="rgb(38,38,38)">-0.25</text>
   </g>
   <g font-size="11" xml:space="preserve" font-style="normal" font-weight="normal" transform="translate(47.4529,143.809) rotate(-0,6,-4.5)" font-family="'Latin Modern Roman'">
    <text y="-0" x="0 " fill="rgb(38,38,38)">0</text>
   </g>
   <g font-size="11" xml:space="preserve" font-style="normal" font-weight="normal" transform="translate(32.4529,114.456) rotate(-0,21,-4.5)" font-family="'Latin Modern Roman'">
    <text y="-0" x="0 6 9 15 " fill="rgb(38,38,38)">0.25</text>
   </g>
   <g font-size="11" xml:space="preserve" font-style="normal" font-weight="normal" transform="translate(38.4529,85.1033) rotate(-0,15,-4.5)" font-family="'Latin Modern Roman'">
    <text y="-0" x="0 6 9 " fill="rgb(38,38,38)">0.5</text>
   </g>
   <g font-size="11" xml:space="preserve" font-style="normal" font-weight="normal" transform="translate(32.4529,55.7504) rotate(-0,21,-4.5)" font-family="'Latin Modern Roman'">
    <text y="-0" x="0 6 9 15 " fill="rgb(38,38,38)">0.75</text>
   </g>
   <g font-size="11" xml:space="preserve" font-style="normal" font-weight="normal" transform="translate(47.4529,26.3976) rotate(-0,6,-4.5)" font-family="'Latin Modern Roman'">
    <text y="-0" x="0 " fill="rgb(38,38,38)">1</text>
   </g>
   <polyline stroke-linejoin="miter" stroke-linecap="square" points="58.9604,256.72 410.457,256.72" stroke-dasharray="16,0" fill="none" stroke="#262626" stroke-width="0.5"/>
   <polyline stroke-linejoin="miter" stroke-linecap="square" points="58.9604,256.72 58.9604,21.8975" stroke-dasharray="16,0" fill="none" stroke="#262626" stroke-width="0.5"/>
   <g font-size="12.1" xml:space="preserve" font-style="normal" font-weight="normal" transform="translate(174.709,291.964) rotate(-0,60,-13)" font-family="'Latin Modern Roman'">
    <text y="-3" x="0 12 17 24 30 34 39 44 50 57 64 67 73 77 83 89 94 99 102 108 113 117 " fill="rgb(38,38,38)">Współczynnik korelacji</text>
   </g>
   <g font-size="12.1" xml:space="preserve" font-style="normal" font-weight="normal" transform="translate(-41.5471,139.309) rotate(-90,65,0)" font-family="'Latin Modern Roman'">
    <text y="-3" x="0 12 17 24 30 34 39 44 50 57 64 67 73 77 83 89 96 101 106 111 118 123 127 " fill="rgb(38,38,38)">Współczynnik koherencji</text>
   </g>
   <polyline stroke-linejoin="round" stroke-linecap="butt" points="58.9604,256.72 60.7178,255.558 64.0225,253.354 67.3252,251.155 70.6289,248.98 73.9351,246.759 77.2446,244.564 80.5415,242.297 83.8457,240.192 87.1567,237.907 90.4521,235.685 93.7593,233.574 97.0586,231.29 100.361,229.092 103.668,226.92 106.966,224.692 110.308,222.45 113.584,220.268 116.903,218.156 120.181,215.644 123.501,213.582 126.796,211.486 130.081,208.966 133.408,206.894 136.71,204.645 139.997,202.63 143.327,200.547 146.628,198.075 149.953,195.839 153.264,193.619 156.521,191.484 159.815,189.25 163.167,186.993 166.424,184.834 169.735,182.534 173.079,180.54 176.367,178.496 179.679,175.797 182.967,174.021 186.263,171.725 189.553,169.06 192.888,167.32 196.179,165.075 199.5,162.718 202.828,160.665 206.087,158.107 209.413,156.15 212.677,153.731 216.012,151.674 219.364,149.347 222.598,147.34 225.906,144.788 234.694,139.302 243.489,133.04 246.804,131.186 250.088,128.797 253.448,126.626 256.721,124.557 259.997,121.672 263.312,120.283 266.594,117.863 269.947,115.467 273.237,113.416 276.547,111.306 279.813,109.221 283.145,106.723 286.451,104.006 289.749,102.394 293.039,100.009 296.377,97.9849 299.671,95.7739 302.959,93.6758 306.25,90.7407 309.576,89.5889 312.885,87.29 316.179,84.4932 319.483,82.6475 322.805,80.8457 326.075,78.5518 329.41,76.0962 332.716,74.1978 336.004,71.6855 339.296,69.499 342.607,67.3418 345.904,64.6572 349.229,62.0547 352.529,60.5986 355.832,58.252 359.138,56.0503 362.45,53.5981 365.747,51.0664 369.056,49.1602 372.348,47.4683 375.671,44.8325 378.963,42.7744 382.267,40.459 385.572,38.4116 388.875,36.3384 392.177,33.7383 395.481,32.0469 398.789,29.7202 402.089,27.4419 405.395,25.3599 408.699,23.0244 410.457,21.8975" fill="none" stroke="#0071bc" stroke-width="0.5"/>
   <polyline stroke-linejoin="round" stroke-linecap="butt" points="58.9604,256.72 60.7178,255.577 64.0225,253.555 67.3257,251.566 70.6313,249.567 73.9331,247.536 77.2349,245.474 80.543,243.361 83.8486,241.213 87.1514,239.013 90.4536,236.777 93.7573,234.487 97.0576,232.161 100.369,229.789 103.672,227.356 106.985,224.888 110.273,222.375 113.582,219.812 116.879,217.201 120.188,214.546 123.503,211.832 126.813,209.078 130.094,206.297 133.405,203.43 136.724,200.526 140.01,197.593 143.325,194.595 146.627,191.528 149.943,188.433 153.216,185.298 156.538,182.11 159.829,178.857 163.177,175.551 166.431,172.237 169.747,168.842 173.077,165.385 176.338,161.931 179.683,158.379 182.961,154.812 186.279,151.186 189.553,147.549 192.858,143.83 196.185,140.092 199.482,136.364 202.783,132.563 206.094,128.778 209.404,125.037 212.713,121.292 216.02,117.627 219.334,114.064 222.612,110.689 225.92,107.595 234.729,99.8896 243.488,91.8901 246.793,89.1094 250.122,86.6191 253.405,84.5195 256.716,82.5273 260.012,80.6982 263.328,79.0186 266.628,77.415 269.918,75.9692 273.213,74.5059 276.517,73.1924 279.854,71.9331 283.15,70.687 286.433,69.5444 289.735,68.4131 293.055,67.3027 296.378,66.2715 299.669,65.2344 302.952,64.2812 306.266,63.2891 309.577,62.3701 312.917,61.4287 316.186,60.5884 319.467,59.7075 322.787,58.8389 326.081,58.0269 329.407,57.1104 332.718,56.2881 336.034,55.4468 339.312,54.7012 342.627,53.8535 345.928,53.0718 349.217,52.2861 352.539,51.5024 355.857,50.6387 359.142,49.812 362.436,49.001 365.746,48.1172 369.048,47.312 372.365,46.3379 375.662,45.4072 378.959,44.4932 382.271,43.4307 385.569,42.3604 388.875,41.1914 392.177,39.9092 395.484,38.457 398.785,36.7407 402.091,34.6709 405.396,31.7852 408.7,26.731 410.457,21.8975" fill="none" stroke="#d85218" stroke-width="0.5"/>
   <polyline stroke-linejoin="round" stroke-linecap="butt" points="58.9604,256.72 60.7178,255.546 64.021,253.343 67.3271,251.151 70.6333,248.97 73.9365,246.798 77.2378,244.629 80.543,242.459 83.8398,240.287 87.1475,238.109 90.4458,235.921 93.7583,233.725 97.061,231.535 100.366,229.33 103.685,227.104 106.982,224.874 110.273,222.655 113.583,220.399 116.892,218.116 120.194,215.867 123.5,213.597 126.803,211.292 130.078,209.021 133.412,206.691 136.688,204.373 140.029,202.029 143.342,199.678 146.631,197.353 149.93,194.988 153.237,192.619 156.537,190.25 159.84,187.858 163.141,185.489 166.449,183.077 169.769,180.659 173.049,178.28 176.346,175.873 179.636,173.5 182.99,171.088 186.259,168.71 189.592,166.284 192.856,163.896 196.186,161.505 199.463,159.169 202.779,156.824 206.11,154.479 209.399,152.164 212.668,149.819 216.002,147.484 219.332,145.114 222.606,142.849 225.923,140.544 234.725,134.373 243.481,128.308 246.805,126.019 250.117,123.799 253.397,121.469 256.684,119.204 260,116.929 263.302,114.718 266.606,112.506 269.94,110.292 273.223,108.077 276.553,105.932 279.856,103.773 283.136,101.733 286.454,99.5874 289.771,97.5112 293.066,95.5161 296.363,93.5303 299.695,91.4888 302.967,89.54 306.265,87.6084 309.561,85.6943 312.87,83.75 316.174,81.8291 319.504,79.9165 322.789,78.0195 326.067,76.1587 329.411,74.2275 332.723,72.3828 336.01,70.5083 339.316,68.6528 342.624,66.7891 345.91,64.9189 349.219,63.0166 352.522,61.123 355.856,59.2085 359.14,57.2803 362.441,55.3599 365.747,53.3867 369.037,51.4165 372.361,49.4062 375.66,47.3115 378.966,45.2158 382.263,43.04 385.566,40.8657 388.877,38.5112 392.18,36.1304 395.482,33.6348 398.785,31.0464 402.091,28.2676 405.395,25.5508 408.7,23.0503 410.457,21.8975" fill="none" stroke="#ecb01f" stroke-width="0.5"/>
   <polyline stroke-linejoin="round" stroke-linecap="butt" points="58.9604,256.72 60.7183,255.886 64.022,254.361 67.3271,252.707 70.6309,250.922 73.9336,249.022 77.2329,247.021 80.542,244.908 83.8481,242.711 87.1558,240.421 90.4517,238.045 93.7578,235.597 97.0645,233.055 100.375,230.433 103.677,227.741 106.976,224.972 110.271,222.129 113.584,219.202 116.883,216.21 120.216,213.129 123.495,209.986 126.8,206.77 130.095,203.47 133.404,200.104 136.713,196.651 140.014,193.121 143.315,189.492 146.638,185.82 149.911,182.063 153.23,178.204 156.537,174.278 159.82,170.246 163.132,166.125 166.441,161.931 169.748,157.646 173.059,153.25 176.352,148.779 179.672,144.195 182.982,139.513 186.275,134.735 189.582,129.844 192.882,124.847 196.176,119.74 199.479,114.533 202.801,109.211 206.093,103.752 209.379,98.2002 212.693,92.5601 216.013,86.8013 219.305,80.9639 222.628,75.0273 225.914,69.1221 234.747,55.4683 243.517,49.3818 246.806,48.1592 250.093,47.2153 253.386,46.2544 256.705,45.5078 260.015,44.7373 263.303,44.1216 266.599,43.4624 269.924,42.8706 273.237,42.3945 276.52,41.8506 279.853,41.3477 283.146,40.9087 286.453,40.4644 289.736,40.0488 293.046,39.645 296.353,39.2793 299.678,38.9097 302.976,38.563 306.257,38.1958 309.555,37.8862 312.86,37.5498 316.184,37.2388 319.478,36.9395 322.809,36.6201 326.106,36.3232 329.391,36.0391 332.706,35.7612 336.001,35.4951 339.298,35.2192 342.613,34.9341 345.929,34.646 349.22,34.3853 352.526,34.124 355.844,33.8481 359.137,33.5605 362.441,33.2725 365.743,33.0376 369.042,32.7295 372.352,32.4414 375.658,32.1528 378.957,31.8179 382.266,31.5239 385.572,31.1904 388.875,30.7915 392.179,30.3975 395.486,29.9766 398.788,29.4194 402.093,28.8223 405.395,27.9316 408.699,26.2861 410.457,21.8975" fill="none" stroke="#7d2e8d" stroke-width="0.5"/>
  </g>
  <clipPath id="cp00453291">
   <polygon points="0,291 453,291 453,0 0,0"/>
  </clipPath>
  <g clip-path="url(#cp00453291)">
   <polygon shape-rendering="crispEdges" points="365.514,248.932 402.668,248.932 402.668,193.477 365.514,193.477" fill="#ffffff"/>
   <polyline stroke-linejoin="miter" stroke-linecap="square" points="365.514,248.932 402.668,248.932" stroke-dasharray="16,0" fill="none" stroke="#262626" stroke-width="0.5"/>
   <polyline stroke-linejoin="miter" stroke-linecap="square" points="365.514,193.477 402.668,193.477" stroke-dasharray="16,0" fill="none" stroke="#262626" stroke-width="0.5"/>
   <polyline stroke-linejoin="miter" stroke-linecap="square" points="365.514,248.932 365.514,193.477" stroke-dasharray="16,0" fill="none" stroke="#262626" stroke-width="0.5"/>
   <polyline stroke-linejoin="miter" stroke-linecap="square" points="402.668,248.932 402.668,193.477" stroke-dasharray="16,0" fill="none" stroke="#262626" stroke-width="0.5"/>
   <polyline stroke-linejoin="round" stroke-linecap="butt" points="369.408,201.869 388.879,201.869" fill="none" stroke="#0071bc" stroke-width="0.5"/>
   <g font-size="9.9" xml:space="preserve" font-style="normal" font-weight="normal" transform="translate(392.774,204.869) rotate(-0,-0,-3)" font-family="'Latin Modern Roman'">
    <text y="-0" x="0 " fill="rgb(0,0,0)">n</text>
   </g>
   <polyline stroke-linejoin="round" stroke-linecap="butt" points="369.408,214.759 388.879,214.759" fill="none" stroke="#d85218" stroke-width="0.5"/>
   <g font-size="9.9" xml:space="preserve" font-style="normal" font-weight="normal" transform="translate(392.774,217.759) rotate(-0,-0,-3)" font-family="'Latin Modern Roman'">
    <text y="-0" x="0 " fill="rgb(0,0,0)">u</text>
   </g>
   <polyline stroke-linejoin="round" stroke-linecap="butt" points="369.408,227.649 388.879,227.649" fill="none" stroke="#ecb01f" stroke-width="0.5"/>
   <g font-size="9.9" xml:space="preserve" font-style="normal" font-weight="normal" transform="translate(392.774,231.649) rotate(-0,-0,-4)" font-family="'Latin Modern Roman'">
    <text y="-0" x="0 " fill="rgb(0,0,0)">t</text>
   </g>
   <polyline stroke-linejoin="round" stroke-linecap="butt" points="369.408,240.54 388.879,240.54" fill="none" stroke="#7d2e8d" stroke-width="0.5"/>
   <g font-size="9.9" xml:space="preserve" font-style="normal" font-weight="normal" transform="translate(392.774,243.539) rotate(-0,-0,-3)" font-family="'Latin Modern Roman'">
    <text y="-0" x="0 " fill="rgb(0,0,0)">s</text>
   </g>
  </g>
 </g>
</svg>
