<?xml version='1.0' encoding='UTF-8' standalone='no'?>
<svg height="160pt" width="453pt" viewBox="0 0 453 160" xmlns:xlink="http://www.w3.org/1999/xlink" xmlns="http://www.w3.org/2000/svg">
 <title>Figure 2</title>
 <desc>
Creator: GL2PS 1.4.2, (C) 1999-2020 C. Geuzaine
For: Octave
CreationDate: Tue Jun 20 21:48:57 2023
</desc>
 <defs/>
 <polygon fill="#ffffff" points="0,0 453,0 453,160 0,160"/>
 <g>
  <polygon fill="#ffffff" shape-rendering="crispEdges" points="0,160 453,160 453,0 0,0"/>
  <clipPath id="cp00453160">
   <polygon points="0,160 453,160 453,0 0,0"/>
  </clipPath>
  <g clip-path="url(#cp00453160)">
   <polygon fill="#ffffff" shape-rendering="crispEdges" points="47.6221,121.896 214.794,121.896 214.794,24 47.6221,24"/>
   <polyline stroke-width="0.5" stroke-opacity="0.25" fill="none" stroke="#191919" stroke-linejoin="miter" stroke-linecap="butt" stroke-dasharray="1,3,1,3,1,3,1,3" points="62.0947,121.896 62.0947,24"/>
   <polyline stroke-width="0.5" stroke-opacity="0.25" fill="none" stroke="#191919" stroke-linejoin="miter" stroke-linecap="butt" stroke-dasharray="1,3,1,3,1,3,1,3" points="70.561,121.896 70.561,24"/>
   <polyline stroke-width="0.5" stroke-opacity="0.25" fill="none" stroke="#191919" stroke-linejoin="miter" stroke-linecap="butt" stroke-dasharray="1,3,1,3,1,3,1,3" points="76.5679,121.896 76.5679,24"/>
   <polyline stroke-width="0.5" stroke-opacity="0.25" fill="none" stroke="#191919" stroke-linejoin="miter" stroke-linecap="butt" stroke-dasharray="1,3,1,3,1,3,1,3" points="81.2271,121.896 81.2271,24"/>
   <polyline stroke-width="0.5" stroke-opacity="0.25" fill="none" stroke="#191919" stroke-linejoin="miter" stroke-linecap="butt" stroke-dasharray="1,3,1,3,1,3,1,3" points="85.0337,121.896 85.0337,24"/>
   <polyline stroke-width="0.5" stroke-opacity="0.25" fill="none" stroke="#191919" stroke-linejoin="miter" stroke-linecap="butt" stroke-dasharray="1,3,1,3,1,3,1,3" points="88.2524,121.896 88.2524,24"/>
   <polyline stroke-width="0.5" stroke-opacity="0.25" fill="none" stroke="#191919" stroke-linejoin="miter" stroke-linecap="butt" stroke-dasharray="1,3,1,3,1,3,1,3" points="91.0405,121.896 91.0405,24"/>
   <polyline stroke-width="0.5" stroke-opacity="0.25" fill="none" stroke="#191919" stroke-linejoin="miter" stroke-linecap="butt" stroke-dasharray="1,3,1,3,1,3,1,3" points="93.5,121.896 93.5,24"/>
   <polyline stroke-width="0.5" stroke-opacity="0.25" fill="none" stroke="#191919" stroke-linejoin="miter" stroke-linecap="butt" stroke-dasharray="1,3,1,3,1,3,1,3" points="110.173,121.896 110.173,24"/>
   <polyline stroke-width="0.5" stroke-opacity="0.25" fill="none" stroke="#191919" stroke-linejoin="miter" stroke-linecap="butt" stroke-dasharray="1,3,1,3,1,3,1,3" points="118.639,121.896 118.639,24"/>
   <polyline stroke-width="0.5" stroke-opacity="0.25" fill="none" stroke="#191919" stroke-linejoin="miter" stroke-linecap="butt" stroke-dasharray="1,3,1,3,1,3,1,3" points="124.646,121.896 124.646,24"/>
   <polyline stroke-width="0.5" stroke-opacity="0.25" fill="none" stroke="#191919" stroke-linejoin="miter" stroke-linecap="butt" stroke-dasharray="1,3,1,3,1,3,1,3" points="129.305,121.896 129.305,24"/>
   <polyline stroke-width="0.5" stroke-opacity="0.25" fill="none" stroke="#191919" stroke-linejoin="miter" stroke-linecap="butt" stroke-dasharray="1,3,1,3,1,3,1,3" points="133.112,121.896 133.112,24"/>
   <polyline stroke-width="0.5" stroke-opacity="0.25" fill="none" stroke="#191919" stroke-linejoin="miter" stroke-linecap="butt" stroke-dasharray="1,3,1,3,1,3,1,3" points="136.33,121.896 136.33,24"/>
   <polyline stroke-width="0.5" stroke-opacity="0.25" fill="none" stroke="#191919" stroke-linejoin="miter" stroke-linecap="butt" stroke-dasharray="1,3,1,3,1,3,1,3" points="139.119,121.896 139.119,24"/>
   <polyline stroke-width="0.5" stroke-opacity="0.25" fill="none" stroke="#191919" stroke-linejoin="miter" stroke-linecap="butt" stroke-dasharray="1,3,1,3,1,3,1,3" points="141.578,121.896 141.578,24"/>
   <polyline stroke-width="0.5" stroke-opacity="0.25" fill="none" stroke="#191919" stroke-linejoin="miter" stroke-linecap="butt" stroke-dasharray="1,3,1,3,1,3,1,3" points="158.25,121.896 158.25,24"/>
   <polyline stroke-width="0.5" stroke-opacity="0.25" fill="none" stroke="#191919" stroke-linejoin="miter" stroke-linecap="butt" stroke-dasharray="1,3,1,3,1,3,1,3" points="166.717,121.896 166.717,24"/>
   <polyline stroke-width="0.5" stroke-opacity="0.25" fill="none" stroke="#191919" stroke-linejoin="miter" stroke-linecap="butt" stroke-dasharray="1,3,1,3,1,3,1,3" points="172.724,121.896 172.724,24"/>
   <polyline stroke-width="0.5" stroke-opacity="0.25" fill="none" stroke="#191919" stroke-linejoin="miter" stroke-linecap="butt" stroke-dasharray="1,3,1,3,1,3,1,3" points="177.383,121.896 177.383,24"/>
   <polyline stroke-width="0.5" stroke-opacity="0.25" fill="none" stroke="#191919" stroke-linejoin="miter" stroke-linecap="butt" stroke-dasharray="1,3,1,3,1,3,1,3" points="181.189,121.896 181.189,24"/>
   <polyline stroke-width="0.5" stroke-opacity="0.25" fill="none" stroke="#191919" stroke-linejoin="miter" stroke-linecap="butt" stroke-dasharray="1,3,1,3,1,3,1,3" points="184.408,121.896 184.408,24"/>
   <polyline stroke-width="0.5" stroke-opacity="0.25" fill="none" stroke="#191919" stroke-linejoin="miter" stroke-linecap="butt" stroke-dasharray="1,3,1,3,1,3,1,3" points="187.196,121.896 187.196,24"/>
   <polyline stroke-width="0.5" stroke-opacity="0.25" fill="none" stroke="#191919" stroke-linejoin="miter" stroke-linecap="butt" stroke-dasharray="1,3,1,3,1,3,1,3" points="189.656,121.896 189.656,24"/>
   <polyline stroke-width="0.5" stroke-opacity="0.25" fill="none" stroke="#191919" stroke-linejoin="miter" stroke-linecap="butt" stroke-dasharray="1,3,1,3,1,3,1,3" points="206.328,121.896 206.328,24"/>
   <polyline stroke-width="0.5" stroke-opacity="0.25" fill="none" stroke="#191919" stroke-linejoin="miter" stroke-linecap="butt" stroke-dasharray="1,3,1,3,1,3,1,3" points="214.794,121.896 214.794,24"/>
   <polyline stroke-width="0.5" stroke-opacity="0.15" fill="none" stroke="#262626" stroke-linejoin="miter" stroke-linecap="butt" stroke-dasharray="16,0" points="47.6221,121.896 47.6221,24"/>
   <polyline stroke-width="0.5" stroke-opacity="0.15" fill="none" stroke="#262626" stroke-linejoin="miter" stroke-linecap="butt" stroke-dasharray="16,0" points="95.6997,121.896 95.6997,24"/>
   <polyline stroke-width="0.5" stroke-opacity="0.15" fill="none" stroke="#262626" stroke-linejoin="miter" stroke-linecap="butt" stroke-dasharray="16,0" points="143.778,121.896 143.778,24"/>
   <polyline stroke-width="0.5" stroke-opacity="0.15" fill="none" stroke="#262626" stroke-linejoin="miter" stroke-linecap="butt" stroke-dasharray="16,0" points="191.855,121.896 191.855,24"/>
   <polyline stroke-width="0.5" fill="none" stroke="#262626" stroke-linejoin="miter" stroke-linecap="butt" points="47.6221,121.896 47.6221,120.226"/>
   <polyline stroke-width="0.5" fill="none" stroke="#262626" stroke-linejoin="miter" stroke-linecap="butt" points="47.6221,24 47.6221,25.6699"/>
   <polyline stroke-width="0.5" fill="none" stroke="#262626" stroke-linejoin="miter" stroke-linecap="butt" points="95.6997,121.896 95.6997,120.226"/>
   <polyline stroke-width="0.5" fill="none" stroke="#262626" stroke-linejoin="miter" stroke-linecap="butt" points="95.6997,24 95.6997,25.6699"/>
   <polyline stroke-width="0.5" fill="none" stroke="#262626" stroke-linejoin="miter" stroke-linecap="butt" points="143.778,121.896 143.778,120.226"/>
   <polyline stroke-width="0.5" fill="none" stroke="#262626" stroke-linejoin="miter" stroke-linecap="butt" points="143.778,24 143.778,25.6699"/>
   <polyline stroke-width="0.5" fill="none" stroke="#262626" stroke-linejoin="miter" stroke-linecap="butt" points="191.855,121.896 191.855,120.226"/>
   <polyline stroke-width="0.5" fill="none" stroke="#262626" stroke-linejoin="miter" stroke-linecap="butt" points="191.855,24 191.855,25.6699"/>
   <g transform="translate(39.622,142.137) rotate(-0,8,-12)" font-style="normal" xml:space="preserve" font-weight="normal" font-size="11" font-family="'Latin Modern Roman'">
    <text fill="rgb(38,38,38)" y="-0" x="0 6 ">10</text>
    <text fill="rgb(38,38,38)" font-size="7.7" y="-5" x="12 ">2</text>
   </g>
   <g transform="translate(87.6999,142.137) rotate(-0,8,-12)" font-style="normal" xml:space="preserve" font-weight="normal" font-size="11" font-family="'Latin Modern Roman'">
    <text fill="rgb(38,38,38)" y="-0" x="0 6 ">10</text>
    <text fill="rgb(38,38,38)" font-size="7.7" y="-5" x="12 ">3</text>
   </g>
   <g transform="translate(135.778,142.137) rotate(-0,8,-12)" font-style="normal" xml:space="preserve" font-weight="normal" font-size="11" font-family="'Latin Modern Roman'">
    <text fill="rgb(38,38,38)" y="-0" x="0 6 ">10</text>
    <text fill="rgb(38,38,38)" font-size="7.7" y="-5" x="12 ">4</text>
   </g>
   <g transform="translate(183.855,142.137) rotate(-0,8,-12)" font-style="normal" xml:space="preserve" font-weight="normal" font-size="11" font-family="'Latin Modern Roman'">
    <text fill="rgb(38,38,38)" y="-0" x="0 6 ">10</text>
    <text fill="rgb(38,38,38)" font-size="7.7" y="-5" x="12 ">5</text>
   </g>
   <polyline stroke-width="0.5" stroke-opacity="0.15" fill="none" stroke="#262626" stroke-linejoin="miter" stroke-linecap="butt" stroke-dasharray="16,0" points="47.6221,121.896 214.794,121.896"/>
   <polyline stroke-width="0.5" stroke-opacity="0.15" fill="none" stroke="#262626" stroke-linejoin="miter" stroke-linecap="butt" stroke-dasharray="16,0" points="47.6221,94.7021 214.794,94.7021"/>
   <polyline stroke-width="0.5" stroke-opacity="0.15" fill="none" stroke="#262626" stroke-linejoin="miter" stroke-linecap="butt" stroke-dasharray="16,0" points="47.6221,67.5093 214.794,67.5093"/>
   <polyline stroke-width="0.5" stroke-opacity="0.15" fill="none" stroke="#262626" stroke-linejoin="miter" stroke-linecap="butt" stroke-dasharray="16,0" points="47.6221,40.3159 214.794,40.3159"/>
   <polyline stroke-width="0.5" fill="none" stroke="#262626" stroke-linejoin="miter" stroke-linecap="butt" points="47.6221,121.896 49.2954,121.896"/>
   <polyline stroke-width="0.5" fill="none" stroke="#262626" stroke-linejoin="miter" stroke-linecap="butt" points="214.794,121.896 213.121,121.896"/>
   <polyline stroke-width="0.5" fill="none" stroke="#262626" stroke-linejoin="miter" stroke-linecap="butt" points="47.6221,94.7021 49.2954,94.7021"/>
   <polyline stroke-width="0.5" fill="none" stroke="#262626" stroke-linejoin="miter" stroke-linecap="butt" points="214.794,94.7021 213.121,94.7021"/>
   <polyline stroke-width="0.5" fill="none" stroke="#262626" stroke-linejoin="miter" stroke-linecap="butt" points="47.6221,67.5093 49.2954,67.5093"/>
   <polyline stroke-width="0.5" fill="none" stroke="#262626" stroke-linejoin="miter" stroke-linecap="butt" points="214.794,67.5093 213.121,67.5093"/>
   <polyline stroke-width="0.5" fill="none" stroke="#262626" stroke-linejoin="miter" stroke-linecap="butt" points="47.6221,40.3159 49.2954,40.3159"/>
   <polyline stroke-width="0.5" fill="none" stroke="#262626" stroke-linejoin="miter" stroke-linecap="butt" points="214.794,40.3159 213.121,40.3159"/>
   <g transform="translate(27.1164,126.396) rotate(-0,15,-4.5)" font-style="normal" xml:space="preserve" font-weight="normal" font-size="11" font-family="'Latin Modern Roman'">
    <text fill="rgb(38,38,38)" y="-0" x="0 6 9 ">1.5</text>
   </g>
   <g transform="translate(36.1164,99.2024) rotate(-0,6,-4.5)" font-style="normal" xml:space="preserve" font-weight="normal" font-size="11" font-family="'Latin Modern Roman'">
    <text fill="rgb(38,38,38)" y="-0" x="0 ">2</text>
   </g>
   <g transform="translate(27.1164,72.0092) rotate(-0,15,-4.5)" font-style="normal" xml:space="preserve" font-weight="normal" font-size="11" font-family="'Latin Modern Roman'">
    <text fill="rgb(38,38,38)" y="-0" x="0 6 9 ">2.5</text>
   </g>
   <g transform="translate(36.1164,44.8159) rotate(-0,6,-4.5)" font-style="normal" xml:space="preserve" font-weight="normal" font-size="11" font-family="'Latin Modern Roman'">
    <text fill="rgb(38,38,38)" y="-0" x="0 ">3</text>
   </g>
   <polyline stroke-width="0.5" fill="none" stroke="#262626" stroke-linejoin="miter" stroke-linecap="square" stroke-dasharray="16,0" points="47.6221,121.896 214.794,121.896"/>
   <polyline stroke-width="0.5" fill="none" stroke="#262626" stroke-linejoin="miter" stroke-linecap="square" stroke-dasharray="16,0" points="47.6221,24 214.794,24"/>
   <polyline stroke-width="0.5" fill="none" stroke="#262626" stroke-linejoin="miter" stroke-linecap="square" stroke-dasharray="16,0" points="47.6221,121.896 47.6221,24"/>
   <polyline stroke-width="0.5" fill="none" stroke="#262626" stroke-linejoin="miter" stroke-linecap="square" stroke-dasharray="16,0" points="214.794,121.896 214.794,24"/>
   <g transform="translate(62.7082,160.137) rotate(-0,68.5,-13)" font-style="normal" xml:space="preserve" font-weight="normal" font-size="12.1" font-family="'Latin Modern Roman'">
    <text fill="rgb(38,38,38)" y="-3" x="0 9 14 19 24 29 35 40 43 46 55 61 66 71 75 80 86 92 99 105 109 116 119 123 132 ">Częstotliwość sygnału, Hz</text>
   </g>
   <g transform="translate(-27.3836,72.9478) rotate(-90,49.5,0)" font-style="normal" xml:space="preserve" font-weight="normal" font-size="12.1" font-family="'Latin Modern Roman'">
    <text fill="rgb(38,38,38)" y="-3" x="0 12 17 27 33 38 45 48 53 60 63 68 71 75 84 90 ">Wzmocnienie, V/V</text>
   </g>
   <g transform="translate(72.2082,14) rotate(-0,59,0)" font-style="italic" xml:space="preserve" font-weight="normal" font-size="12.1" font-family="'Latin Modern Roman'">
    <text fill="rgb(0,0,0)" y="-4" x="0 ">f</text>
    <text fill="rgb(0,0,0)" font-size="8.47" y="-2" x="4 ">c</text>
    <text font-style="normal" fill="rgb(0,0,0)" y="-4" x="8 ">(</text>
    <text fill="rgb(0,0,0)" y="-4" x="13 ">f</text>
    <text fill="rgb(0,0,0)" font-size="8.47" y="-2" x="17 ">y</text>
    <text font-style="normal" fill="rgb(0,0,0)" y="-4" x="21 ">(</text>
    <text fill="rgb(0,0,0)" y="-4" x="26 ">x</text>
    <text font-style="normal" fill="rgb(0,0,0)" y="-4" x="32 37 42 46 55 59 65 71 ">)) = 123</text>
    <text fill="rgb(0,0,0)" y="-4" x="77 ">x</text>
    <text font-style="normal" fill="rgb(0,0,0)" y="-4" x="83 87 96 100 106 112 "> + 321</text>
   </g>
   <polyline stroke-width="0.5" fill="none" stroke="#0071bc" stroke-linejoin="miter" stroke-linecap="square" points="140.778,22.6318 146.778,28.6318"/>
   <polyline stroke-width="0.5" fill="none" stroke="#0071bc" stroke-linejoin="miter" stroke-linecap="square" points="140.778,28.6318 146.778,22.6318"/>
   <polyline stroke-width="0.5" fill="none" stroke="#0071bc" stroke-linejoin="miter" stroke-linecap="square" points="155.25,22.6318 161.25,28.6318"/>
   <polyline stroke-width="0.5" fill="none" stroke="#0071bc" stroke-linejoin="miter" stroke-linecap="square" points="155.25,28.6318 161.25,22.6318"/>
   <polyline stroke-width="0.5" fill="none" stroke="#0071bc" stroke-linejoin="miter" stroke-linecap="square" points="163.717,23.7192 169.717,29.7192"/>
   <polyline stroke-width="0.5" fill="none" stroke="#0071bc" stroke-linejoin="miter" stroke-linecap="square" points="163.717,29.7192 169.717,23.7192"/>
   <polyline stroke-width="0.5" fill="none" stroke="#0071bc" stroke-linejoin="miter" stroke-linecap="square" points="169.724,23.7192 175.724,29.7192"/>
   <polyline stroke-width="0.5" fill="none" stroke="#0071bc" stroke-linejoin="miter" stroke-linecap="square" points="169.724,29.7192 175.724,23.7192"/>
   <polyline stroke-width="0.5" fill="none" stroke="#0071bc" stroke-linejoin="miter" stroke-linecap="square" points="174.383,23.7192 180.383,29.7192"/>
   <polyline stroke-width="0.5" fill="none" stroke="#0071bc" stroke-linejoin="miter" stroke-linecap="square" points="174.383,29.7192 180.383,23.7192"/>
   <polyline stroke-width="0.5" fill="none" stroke="#0071bc" stroke-linejoin="miter" stroke-linecap="square" points="178.189,23.7192 184.189,29.7192"/>
   <polyline stroke-width="0.5" fill="none" stroke="#0071bc" stroke-linejoin="miter" stroke-linecap="square" points="178.189,29.7192 184.189,23.7192"/>
   <polyline stroke-width="0.5" fill="none" stroke="#0071bc" stroke-linejoin="miter" stroke-linecap="square" points="181.408,23.7192 187.408,29.7192"/>
   <polyline stroke-width="0.5" fill="none" stroke="#0071bc" stroke-linejoin="miter" stroke-linecap="square" points="181.408,29.7192 187.408,23.7192"/>
   <polyline stroke-width="0.5" fill="none" stroke="#0071bc" stroke-linejoin="miter" stroke-linecap="square" points="184.196,23.7192 190.196,29.7192"/>
   <polyline stroke-width="0.5" fill="none" stroke="#0071bc" stroke-linejoin="miter" stroke-linecap="square" points="184.196,29.7192 190.196,23.7192"/>
   <polyline stroke-width="0.5" fill="none" stroke="#0071bc" stroke-linejoin="miter" stroke-linecap="square" points="186.656,23.7192 192.656,29.7192"/>
   <polyline stroke-width="0.5" fill="none" stroke="#0071bc" stroke-linejoin="miter" stroke-linecap="square" points="186.656,29.7192 192.656,23.7192"/>
   <polyline stroke-width="0.5" fill="none" stroke="#0071bc" stroke-linejoin="miter" stroke-linecap="square" points="188.855,26.4385 194.855,32.4385"/>
   <polyline stroke-width="0.5" fill="none" stroke="#0071bc" stroke-linejoin="miter" stroke-linecap="square" points="188.855,32.4385 194.855,26.4385"/>
   <polyline stroke-width="0.5" fill="none" stroke="#0071bc" stroke-linejoin="miter" stroke-linecap="square" points="193.515,43.2983 199.515,49.2983"/>
   <polyline stroke-width="0.5" fill="none" stroke="#0071bc" stroke-linejoin="miter" stroke-linecap="square" points="193.515,49.2983 199.515,43.2983"/>
   <polyline stroke-width="0.5" fill="none" stroke="#0071bc" stroke-linejoin="miter" stroke-linecap="square" points="197.322,64.5093 203.322,70.5093"/>
   <polyline stroke-width="0.5" fill="none" stroke="#0071bc" stroke-linejoin="miter" stroke-linecap="square" points="197.322,70.5093 203.322,64.5093"/>
   <polyline stroke-width="0.5" fill="none" stroke="#0071bc" stroke-linejoin="miter" stroke-linecap="square" points="200.54,79.1934 206.54,85.1934"/>
   <polyline stroke-width="0.5" fill="none" stroke="#0071bc" stroke-linejoin="miter" stroke-linecap="square" points="200.54,85.1934 206.54,79.1934"/>
   <polyline stroke-width="0.5" fill="none" stroke="#0071bc" stroke-linejoin="miter" stroke-linecap="square" points="203.328,94.4219 209.328,100.422"/>
   <polyline stroke-width="0.5" fill="none" stroke="#0071bc" stroke-linejoin="miter" stroke-linecap="square" points="203.328,100.422 209.328,94.4219"/>
   <polyline stroke-width="0.5" fill="none" stroke="#0071bc" stroke-linejoin="miter" stroke-linecap="square" points="205.788,106.387 211.788,112.387"/>
   <polyline stroke-width="0.5" fill="none" stroke="#0071bc" stroke-linejoin="miter" stroke-linecap="square" points="205.788,112.387 211.788,106.387"/>
   <polyline stroke-width="0.5" fill="none" stroke="#0071bc" stroke-linejoin="miter" stroke-linecap="square" points="207.988,114.545 213.988,120.545"/>
   <polyline stroke-width="0.5" fill="none" stroke="#0071bc" stroke-linejoin="miter" stroke-linecap="square" points="207.988,120.545 213.988,114.545"/>
   <polyline stroke-width="0.5" fill="none" stroke="#d85218" stroke-linejoin="round" stroke-linecap="butt" points="47.6221,25.6318 51.0337,25.6318 54.4453,25.6318 57.8569,25.6318 61.2686,25.6318 64.6807,25.6318 68.0923,25.6318 71.5039,25.6318 74.9155,25.6318 78.3271,25.6323 81.7388,25.6323 85.1504,25.6328 88.562,25.6333 91.9741,25.6338 95.3857,25.6343 98.7974,25.6357 102.209,25.6372 105.621,25.6392 109.032,25.6426 112.444,25.6465 115.855,25.6523 119.268,25.6602 122.679,25.6714 126.091,25.687 129.502,25.708 132.914,25.7378 136.326,25.7788 139.737,25.8359 143.149,25.9146 146.561,26.0234 149.973,26.1743 153.384,26.3823 156.796,26.6699 160.208,27.0669 163.619,27.6123 167.031,28.3599 170.442,29.3813 173.854,30.7686 177.266,32.6382 180.678,35.1323 184.089,38.417 187.501,42.6685 190.913,48.0542 194.324,54.6987 197.736,62.6445 201.147,71.814 204.56,81.9966 207.971,92.8652 211.383,104.024 214.794,115.075"/>
   <polyline stroke-width="0.5" fill="none" stroke="#ecb01f" stroke-linejoin="round" stroke-linecap="butt" points="47.6221,25.6426 51.0337,25.644 54.4453,25.6455 57.8569,25.6475 61.2686,25.6494 64.6807,25.6523 68.0923,25.6553 71.5039,25.6587 74.9155,25.6631 78.3271,25.668 81.7388,25.6743 85.1504,25.6812 88.562,25.6895 91.9741,25.6992 95.3857,25.7104 98.7974,25.7241 102.209,25.7402 105.621,25.7588 109.032,25.7812 112.444,25.8076 115.855,25.8384 119.268,25.8755 122.679,25.9189 126.091,25.9707 129.502,26.0317 132.914,26.105 136.326,26.1914 139.737,26.2949 143.149,26.4189 146.561,26.5669 149.973,26.7456 153.384,26.9609 156.796,27.2217 160.208,27.54 163.619,27.9302 167.031,28.4121 170.442,29.0122 173.854,29.7671 177.266,30.7285 180.678,31.9692 184.089,33.5972 187.501,35.7744 190.913,38.7534 194.324,42.9395 197.736,49.0098 201.147,58.145 204.56,72.5073 207.971,96.2812 210.069,121.994"/>
  </g>
  <clipPath id="cp00453160">
   <polygon points="0,160 453,160 453,0 0,0"/>
  </clipPath>
  <g clip-path="url(#cp00453160)">
   <polygon fill="#ffffff" shape-rendering="crispEdges" points="55.4106,114.107 130.565,114.107 130.565,84.4326 55.4106,84.4326"/>
   <polyline stroke-width="0.5" fill="none" stroke="#262626" stroke-linejoin="miter" stroke-linecap="square" stroke-dasharray="16,0" points="55.4106,114.107 130.565,114.107"/>
   <polyline stroke-width="0.5" fill="none" stroke="#262626" stroke-linejoin="miter" stroke-linecap="square" stroke-dasharray="16,0" points="55.4106,84.4326 130.565,84.4326"/>
   <polyline stroke-width="0.5" fill="none" stroke="#262626" stroke-linejoin="miter" stroke-linecap="square" stroke-dasharray="16,0" points="55.4106,114.107 55.4106,84.4326"/>
   <polyline stroke-width="0.5" fill="none" stroke="#262626" stroke-linejoin="miter" stroke-linecap="square" stroke-dasharray="16,0" points="130.565,114.107 130.565,84.4326"/>
   <polyline stroke-width="0.5" fill="none" stroke="#d85218" stroke-linejoin="round" stroke-linecap="butt" points="59.3047,92.8247 78.7764,92.8247"/>
   <g transform="translate(82.6705,96.8249) rotate(-0,-0,-4)" font-style="normal" xml:space="preserve" font-weight="normal" font-size="9.9" font-family="'Latin Modern Roman'">
    <text fill="rgb(0,0,0)" y="-0" x="0 9 14 20 24 27 30 34 39 ">Model "a"</text>
   </g>
   <polyline stroke-width="0.5" fill="none" stroke="#ecb01f" stroke-linejoin="round" stroke-linecap="butt" points="59.3047,105.715 78.7764,105.715"/>
   <g transform="translate(82.6705,109.715) rotate(-0,-0,-4)" font-style="normal" xml:space="preserve" font-weight="normal" font-size="9.9" font-family="'Latin Modern Roman'">
    <text fill="rgb(0,0,0)" y="-0" x="0 9 14 20 24 27 30 34 40 ">Model "b"</text>
   </g>
  </g>
  <clipPath id="cp00453160">
   <polygon points="0,160 453,160 453,0 0,0"/>
  </clipPath>
  <g clip-path="url(#cp00453160)">
   <polygon fill="#ffffff" shape-rendering="crispEdges" points="272.765,121.896 439.937,121.896 439.937,24 272.765,24"/>
   <polyline stroke-width="0.5" stroke-opacity="0.25" fill="none" stroke="#191919" stroke-linejoin="miter" stroke-linecap="butt" stroke-dasharray="1,3,1,3,1,3,1,3" points="287.237,121.896 287.237,24"/>
   <polyline stroke-width="0.5" stroke-opacity="0.25" fill="none" stroke="#191919" stroke-linejoin="miter" stroke-linecap="butt" stroke-dasharray="1,3,1,3,1,3,1,3" points="295.704,121.896 295.704,24"/>
   <polyline stroke-width="0.5" stroke-opacity="0.25" fill="none" stroke="#191919" stroke-linejoin="miter" stroke-linecap="butt" stroke-dasharray="1,3,1,3,1,3,1,3" points="301.71,121.896 301.71,24"/>
   <polyline stroke-width="0.5" stroke-opacity="0.25" fill="none" stroke="#191919" stroke-linejoin="miter" stroke-linecap="butt" stroke-dasharray="1,3,1,3,1,3,1,3" points="306.37,121.896 306.37,24"/>
   <polyline stroke-width="0.5" stroke-opacity="0.25" fill="none" stroke="#191919" stroke-linejoin="miter" stroke-linecap="butt" stroke-dasharray="1,3,1,3,1,3,1,3" points="310.176,121.896 310.176,24"/>
   <polyline stroke-width="0.5" stroke-opacity="0.25" fill="none" stroke="#191919" stroke-linejoin="miter" stroke-linecap="butt" stroke-dasharray="1,3,1,3,1,3,1,3" points="313.395,121.896 313.395,24"/>
   <polyline stroke-width="0.5" stroke-opacity="0.25" fill="none" stroke="#191919" stroke-linejoin="miter" stroke-linecap="butt" stroke-dasharray="1,3,1,3,1,3,1,3" points="316.183,121.896 316.183,24"/>
   <polyline stroke-width="0.5" stroke-opacity="0.25" fill="none" stroke="#191919" stroke-linejoin="miter" stroke-linecap="butt" stroke-dasharray="1,3,1,3,1,3,1,3" points="318.643,121.896 318.643,24"/>
   <polyline stroke-width="0.5" stroke-opacity="0.25" fill="none" stroke="#191919" stroke-linejoin="miter" stroke-linecap="butt" stroke-dasharray="1,3,1,3,1,3,1,3" points="335.315,121.896 335.315,24"/>
   <polyline stroke-width="0.5" stroke-opacity="0.25" fill="none" stroke="#191919" stroke-linejoin="miter" stroke-linecap="butt" stroke-dasharray="1,3,1,3,1,3,1,3" points="343.781,121.896 343.781,24"/>
   <polyline stroke-width="0.5" stroke-opacity="0.25" fill="none" stroke="#191919" stroke-linejoin="miter" stroke-linecap="butt" stroke-dasharray="1,3,1,3,1,3,1,3" points="349.788,121.896 349.788,24"/>
   <polyline stroke-width="0.5" stroke-opacity="0.25" fill="none" stroke="#191919" stroke-linejoin="miter" stroke-linecap="butt" stroke-dasharray="1,3,1,3,1,3,1,3" points="354.447,121.896 354.447,24"/>
   <polyline stroke-width="0.5" stroke-opacity="0.25" fill="none" stroke="#191919" stroke-linejoin="miter" stroke-linecap="butt" stroke-dasharray="1,3,1,3,1,3,1,3" points="358.254,121.896 358.254,24"/>
   <polyline stroke-width="0.5" stroke-opacity="0.25" fill="none" stroke="#191919" stroke-linejoin="miter" stroke-linecap="butt" stroke-dasharray="1,3,1,3,1,3,1,3" points="361.473,121.896 361.473,24"/>
   <polyline stroke-width="0.5" stroke-opacity="0.25" fill="none" stroke="#191919" stroke-linejoin="miter" stroke-linecap="butt" stroke-dasharray="1,3,1,3,1,3,1,3" points="364.261,121.896 364.261,24"/>
   <polyline stroke-width="0.5" stroke-opacity="0.25" fill="none" stroke="#191919" stroke-linejoin="miter" stroke-linecap="butt" stroke-dasharray="1,3,1,3,1,3,1,3" points="366.72,121.896 366.72,24"/>
   <polyline stroke-width="0.5" stroke-opacity="0.25" fill="none" stroke="#191919" stroke-linejoin="miter" stroke-linecap="butt" stroke-dasharray="1,3,1,3,1,3,1,3" points="383.393,121.896 383.393,24"/>
   <polyline stroke-width="0.5" stroke-opacity="0.25" fill="none" stroke="#191919" stroke-linejoin="miter" stroke-linecap="butt" stroke-dasharray="1,3,1,3,1,3,1,3" points="391.859,121.896 391.859,24"/>
   <polyline stroke-width="0.5" stroke-opacity="0.25" fill="none" stroke="#191919" stroke-linejoin="miter" stroke-linecap="butt" stroke-dasharray="1,3,1,3,1,3,1,3" points="397.866,121.896 397.866,24"/>
   <polyline stroke-width="0.5" stroke-opacity="0.25" fill="none" stroke="#191919" stroke-linejoin="miter" stroke-linecap="butt" stroke-dasharray="1,3,1,3,1,3,1,3" points="402.525,121.896 402.525,24"/>
   <polyline stroke-width="0.5" stroke-opacity="0.25" fill="none" stroke="#191919" stroke-linejoin="miter" stroke-linecap="butt" stroke-dasharray="1,3,1,3,1,3,1,3" points="406.332,121.896 406.332,24"/>
   <polyline stroke-width="0.5" stroke-opacity="0.25" fill="none" stroke="#191919" stroke-linejoin="miter" stroke-linecap="butt" stroke-dasharray="1,3,1,3,1,3,1,3" points="409.551,121.896 409.551,24"/>
   <polyline stroke-width="0.5" stroke-opacity="0.25" fill="none" stroke="#191919" stroke-linejoin="miter" stroke-linecap="butt" stroke-dasharray="1,3,1,3,1,3,1,3" points="412.339,121.896 412.339,24"/>
   <polyline stroke-width="0.5" stroke-opacity="0.25" fill="none" stroke="#191919" stroke-linejoin="miter" stroke-linecap="butt" stroke-dasharray="1,3,1,3,1,3,1,3" points="414.798,121.896 414.798,24"/>
   <polyline stroke-width="0.5" stroke-opacity="0.25" fill="none" stroke="#191919" stroke-linejoin="miter" stroke-linecap="butt" stroke-dasharray="1,3,1,3,1,3,1,3" points="431.471,121.896 431.471,24"/>
   <polyline stroke-width="0.5" stroke-opacity="0.25" fill="none" stroke="#191919" stroke-linejoin="miter" stroke-linecap="butt" stroke-dasharray="1,3,1,3,1,3,1,3" points="439.937,121.896 439.937,24"/>
   <polyline stroke-width="0.5" stroke-opacity="0.15" fill="none" stroke="#262626" stroke-linejoin="miter" stroke-linecap="butt" stroke-dasharray="16,0" points="272.765,121.896 272.765,24"/>
   <polyline stroke-width="0.5" stroke-opacity="0.15" fill="none" stroke="#262626" stroke-linejoin="miter" stroke-linecap="butt" stroke-dasharray="16,0" points="320.842,121.896 320.842,24"/>
   <polyline stroke-width="0.5" stroke-opacity="0.15" fill="none" stroke="#262626" stroke-linejoin="miter" stroke-linecap="butt" stroke-dasharray="16,0" points="368.92,121.896 368.92,24"/>
   <polyline stroke-width="0.5" stroke-opacity="0.15" fill="none" stroke="#262626" stroke-linejoin="miter" stroke-linecap="butt" stroke-dasharray="16,0" points="416.998,121.896 416.998,24"/>
   <polyline stroke-width="0.5" fill="none" stroke="#262626" stroke-linejoin="miter" stroke-linecap="butt" points="272.765,121.896 272.765,120.226"/>
   <polyline stroke-width="0.5" fill="none" stroke="#262626" stroke-linejoin="miter" stroke-linecap="butt" points="272.765,24 272.765,25.6699"/>
   <polyline stroke-width="0.5" fill="none" stroke="#262626" stroke-linejoin="miter" stroke-linecap="butt" points="320.842,121.896 320.842,120.226"/>
   <polyline stroke-width="0.5" fill="none" stroke="#262626" stroke-linejoin="miter" stroke-linecap="butt" points="320.842,24 320.842,25.6699"/>
   <polyline stroke-width="0.5" fill="none" stroke="#262626" stroke-linejoin="miter" stroke-linecap="butt" points="368.92,121.896 368.92,120.226"/>
   <polyline stroke-width="0.5" fill="none" stroke="#262626" stroke-linejoin="miter" stroke-linecap="butt" points="368.92,24 368.92,25.6699"/>
   <polyline stroke-width="0.5" fill="none" stroke="#262626" stroke-linejoin="miter" stroke-linecap="butt" points="416.998,121.896 416.998,120.226"/>
   <polyline stroke-width="0.5" fill="none" stroke="#262626" stroke-linejoin="miter" stroke-linecap="butt" points="416.998,24 416.998,25.6699"/>
   <g transform="translate(264.765,142.137) rotate(-0,8,-12)" font-style="normal" xml:space="preserve" font-weight="normal" font-size="11" font-family="'Latin Modern Roman'">
    <text fill="rgb(38,38,38)" y="-0" x="0 6 ">10</text>
    <text fill="rgb(38,38,38)" font-size="7.7" y="-5" x="12 ">2</text>
   </g>
   <g transform="translate(312.842,142.137) rotate(-0,8,-12)" font-style="normal" xml:space="preserve" font-weight="normal" font-size="11" font-family="'Latin Modern Roman'">
    <text fill="rgb(38,38,38)" y="-0" x="0 6 ">10</text>
    <text fill="rgb(38,38,38)" font-size="7.7" y="-5" x="12 ">3</text>
   </g>
   <g transform="translate(360.92,142.137) rotate(-0,8,-12)" font-style="normal" xml:space="preserve" font-weight="normal" font-size="11" font-family="'Latin Modern Roman'">
    <text fill="rgb(38,38,38)" y="-0" x="0 6 ">10</text>
    <text fill="rgb(38,38,38)" font-size="7.7" y="-5" x="12 ">4</text>
   </g>
   <g transform="translate(408.998,142.137) rotate(-0,8,-12)" font-style="normal" xml:space="preserve" font-weight="normal" font-size="11" font-family="'Latin Modern Roman'">
    <text fill="rgb(38,38,38)" y="-0" x="0 6 ">10</text>
    <text fill="rgb(38,38,38)" font-size="7.7" y="-5" x="12 ">5</text>
   </g>
   <polyline stroke-width="0.5" stroke-opacity="0.15" fill="none" stroke="#262626" stroke-linejoin="miter" stroke-linecap="butt" stroke-dasharray="16,0" points="272.765,105.58 439.937,105.58"/>
   <polyline stroke-width="0.5" stroke-opacity="0.15" fill="none" stroke="#262626" stroke-linejoin="miter" stroke-linecap="butt" stroke-dasharray="16,0" points="272.765,89.2637 439.937,89.2637"/>
   <polyline stroke-width="0.5" stroke-opacity="0.15" fill="none" stroke="#262626" stroke-linejoin="miter" stroke-linecap="butt" stroke-dasharray="16,0" points="272.765,72.9478 439.937,72.9478"/>
   <polyline stroke-width="0.5" stroke-opacity="0.15" fill="none" stroke="#262626" stroke-linejoin="miter" stroke-linecap="butt" stroke-dasharray="16,0" points="272.765,56.6318 439.937,56.6318"/>
   <polyline stroke-width="0.5" stroke-opacity="0.15" fill="none" stroke="#262626" stroke-linejoin="miter" stroke-linecap="butt" stroke-dasharray="16,0" points="272.765,40.3159 439.937,40.3159"/>
   <polyline stroke-width="0.5" stroke-opacity="0.15" fill="none" stroke="#262626" stroke-linejoin="miter" stroke-linecap="butt" stroke-dasharray="16,0" points="272.765,24 439.937,24"/>
   <polyline stroke-width="0.5" fill="none" stroke="#262626" stroke-linejoin="miter" stroke-linecap="butt" points="272.765,105.58 274.438,105.58"/>
   <polyline stroke-width="0.5" fill="none" stroke="#262626" stroke-linejoin="miter" stroke-linecap="butt" points="439.937,105.58 438.264,105.58"/>
   <polyline stroke-width="0.5" fill="none" stroke="#262626" stroke-linejoin="miter" stroke-linecap="butt" points="272.765,89.2637 274.438,89.2637"/>
   <polyline stroke-width="0.5" fill="none" stroke="#262626" stroke-linejoin="miter" stroke-linecap="butt" points="439.937,89.2637 438.264,89.2637"/>
   <polyline stroke-width="0.5" fill="none" stroke="#262626" stroke-linejoin="miter" stroke-linecap="butt" points="272.765,72.9478 274.438,72.9478"/>
   <polyline stroke-width="0.5" fill="none" stroke="#262626" stroke-linejoin="miter" stroke-linecap="butt" points="439.937,72.9478 438.264,72.9478"/>
   <polyline stroke-width="0.5" fill="none" stroke="#262626" stroke-linejoin="miter" stroke-linecap="butt" points="272.765,56.6318 274.438,56.6318"/>
   <polyline stroke-width="0.5" fill="none" stroke="#262626" stroke-linejoin="miter" stroke-linecap="butt" points="439.937,56.6318 438.264,56.6318"/>
   <polyline stroke-width="0.5" fill="none" stroke="#262626" stroke-linejoin="miter" stroke-linecap="butt" points="272.765,40.3159 274.438,40.3159"/>
   <polyline stroke-width="0.5" fill="none" stroke="#262626" stroke-linejoin="miter" stroke-linecap="butt" points="439.937,40.3159 438.264,40.3159"/>
   <polyline stroke-width="0.5" fill="none" stroke="#262626" stroke-linejoin="miter" stroke-linecap="butt" points="272.765,24 274.438,24"/>
   <polyline stroke-width="0.5" fill="none" stroke="#262626" stroke-linejoin="miter" stroke-linecap="butt" points="439.937,24 438.264,24"/>
   <g transform="translate(257.259,110.08) rotate(-0,10,-4.5)" font-style="normal" xml:space="preserve" font-weight="normal" font-size="11" font-family="'Latin Modern Roman'">
    <text fill="rgb(38,38,38)" y="-0" x="0 4 ">-1</text>
   </g>
   <g transform="translate(248.259,93.7637) rotate(-0,19,-4.5)" font-style="normal" xml:space="preserve" font-weight="normal" font-size="11" font-family="'Latin Modern Roman'">
    <text fill="rgb(38,38,38)" y="-0" x="0 4 10 13 ">-0.8</text>
   </g>
   <g transform="translate(248.259,77.4478) rotate(-0,19,-4.5)" font-style="normal" xml:space="preserve" font-weight="normal" font-size="11" font-family="'Latin Modern Roman'">
    <text fill="rgb(38,38,38)" y="-0" x="0 4 10 13 ">-0.6</text>
   </g>
   <g transform="translate(248.259,61.1319) rotate(-0,19,-4.5)" font-style="normal" xml:space="preserve" font-weight="normal" font-size="11" font-family="'Latin Modern Roman'">
    <text fill="rgb(38,38,38)" y="-0" x="0 4 10 13 ">-0.4</text>
   </g>
   <g transform="translate(248.259,44.8159) rotate(-0,19,-4.5)" font-style="normal" xml:space="preserve" font-weight="normal" font-size="11" font-family="'Latin Modern Roman'">
    <text fill="rgb(38,38,38)" y="-0" x="0 4 10 13 ">-0.2</text>
   </g>
   <g transform="translate(261.259,28.5) rotate(-0,6,-4.5)" font-style="normal" xml:space="preserve" font-weight="normal" font-size="11" font-family="'Latin Modern Roman'">
    <text fill="rgb(38,38,38)" y="-0" x="0 ">0</text>
   </g>
   <polyline stroke-width="0.5" fill="none" stroke="#262626" stroke-linejoin="miter" stroke-linecap="square" stroke-dasharray="16,0" points="272.765,121.896 439.937,121.896"/>
   <polyline stroke-width="0.5" fill="none" stroke="#262626" stroke-linejoin="miter" stroke-linecap="square" stroke-dasharray="16,0" points="272.765,24 439.937,24"/>
   <polyline stroke-width="0.5" fill="none" stroke="#262626" stroke-linejoin="miter" stroke-linecap="square" stroke-dasharray="16,0" points="272.765,121.896 272.765,24"/>
   <polyline stroke-width="0.5" fill="none" stroke="#262626" stroke-linejoin="miter" stroke-linecap="square" stroke-dasharray="16,0" points="439.937,121.896 439.937,24"/>
   <g transform="translate(287.851,160.137) rotate(-0,68.5,-13)" font-style="normal" xml:space="preserve" font-weight="normal" font-size="12.1" font-family="'Latin Modern Roman'">
    <text fill="rgb(38,38,38)" y="-3" x="0 9 14 19 24 29 35 40 43 46 55 61 66 71 75 80 86 92 99 105 109 116 119 123 132 ">Częstotliwość sygnału, Hz</text>
   </g>
   <g transform="translate(179.759,72.9478) rotate(-90,63.5,0)" font-style="normal" xml:space="preserve" font-weight="normal" font-size="12.1" font-family="'Latin Modern Roman'">
    <text fill="rgb(38,38,38)" y="-3" x="0 8 13 18 23 28 35 42 45 50 55 58 63 67 71 77 82 88 97 102 105 109 114 120 ">Przesunięcie fazowe, rad</text>
   </g>
   <g transform="translate(297.351,14) rotate(-0,59,0)" font-style="italic" xml:space="preserve" font-weight="normal" font-size="12.1" font-family="'Latin Modern Roman'">
    <text fill="rgb(0,0,0)" y="-4" x="0 ">f</text>
    <text fill="rgb(0,0,0)" font-size="8.47" y="-2" x="4 ">c</text>
    <text font-style="normal" fill="rgb(0,0,0)" y="-4" x="8 ">(</text>
    <text fill="rgb(0,0,0)" y="-4" x="13 ">f</text>
    <text fill="rgb(0,0,0)" font-size="8.47" y="-2" x="17 ">y</text>
    <text font-style="normal" fill="rgb(0,0,0)" y="-4" x="21 ">(</text>
    <text fill="rgb(0,0,0)" y="-4" x="26 ">x</text>
    <text font-style="normal" fill="rgb(0,0,0)" y="-4" x="32 37 42 46 55 59 65 71 ">)) = 123</text>
    <text fill="rgb(0,0,0)" y="-4" x="77 ">x</text>
    <text font-style="normal" fill="rgb(0,0,0)" y="-4" x="83 87 96 100 106 112 "> + 321</text>
   </g>
   <polyline stroke-width="0.5" fill="none" stroke="#0071bc" stroke-linejoin="miter" stroke-linecap="square" points="269.765,21 275.765,27"/>
   <polyline stroke-width="0.5" fill="none" stroke="#0071bc" stroke-linejoin="miter" stroke-linecap="square" points="269.765,27 275.765,21"/>
   <polyline stroke-width="0.5" fill="none" stroke="#0071bc" stroke-linejoin="miter" stroke-linecap="square" points="292.704,21.0815 298.704,27.0815"/>
   <polyline stroke-width="0.5" fill="none" stroke="#0071bc" stroke-linejoin="miter" stroke-linecap="square" points="292.704,27.0815 298.704,21.0815"/>
   <polyline stroke-width="0.5" fill="none" stroke="#0071bc" stroke-linejoin="miter" stroke-linecap="square" points="307.176,21.1631 313.176,27.1631"/>
   <polyline stroke-width="0.5" fill="none" stroke="#0071bc" stroke-linejoin="miter" stroke-linecap="square" points="307.176,27.1631 313.176,21.1631"/>
   <polyline stroke-width="0.5" fill="none" stroke="#0071bc" stroke-linejoin="miter" stroke-linecap="square" points="317.842,21.2446 323.842,27.2446"/>
   <polyline stroke-width="0.5" fill="none" stroke="#0071bc" stroke-linejoin="miter" stroke-linecap="square" points="317.842,27.2446 323.842,21.2446"/>
   <polyline stroke-width="0.5" fill="none" stroke="#0071bc" stroke-linejoin="miter" stroke-linecap="square" points="332.315,21.4077 338.315,27.4077"/>
   <polyline stroke-width="0.5" fill="none" stroke="#0071bc" stroke-linejoin="miter" stroke-linecap="square" points="332.315,27.4077 338.315,21.4077"/>
   <polyline stroke-width="0.5" fill="none" stroke="#0071bc" stroke-linejoin="miter" stroke-linecap="square" points="340.781,21.6528 346.781,27.6528"/>
   <polyline stroke-width="0.5" fill="none" stroke="#0071bc" stroke-linejoin="miter" stroke-linecap="square" points="340.781,27.6528 346.781,21.6528"/>
   <polyline stroke-width="0.5" fill="none" stroke="#0071bc" stroke-linejoin="miter" stroke-linecap="square" points="346.788,21.8975 352.788,27.8975"/>
   <polyline stroke-width="0.5" fill="none" stroke="#0071bc" stroke-linejoin="miter" stroke-linecap="square" points="346.788,27.8975 352.788,21.8975"/>
   <polyline stroke-width="0.5" fill="none" stroke="#0071bc" stroke-linejoin="miter" stroke-linecap="square" points="351.447,22.0605 357.447,28.0605"/>
   <polyline stroke-width="0.5" fill="none" stroke="#0071bc" stroke-linejoin="miter" stroke-linecap="square" points="351.447,28.0605 357.447,22.0605"/>
   <polyline stroke-width="0.5" fill="none" stroke="#0071bc" stroke-linejoin="miter" stroke-linecap="square" points="355.254,22.3052 361.254,28.3052"/>
   <polyline stroke-width="0.5" fill="none" stroke="#0071bc" stroke-linejoin="miter" stroke-linecap="square" points="355.254,28.3052 361.254,22.3052"/>
   <polyline stroke-width="0.5" fill="none" stroke="#0071bc" stroke-linejoin="miter" stroke-linecap="square" points="358.473,22.4683 364.473,28.4683"/>
   <polyline stroke-width="0.5" fill="none" stroke="#0071bc" stroke-linejoin="miter" stroke-linecap="square" points="358.473,28.4683 364.473,22.4683"/>
   <polyline stroke-width="0.5" fill="none" stroke="#0071bc" stroke-linejoin="miter" stroke-linecap="square" points="361.261,22.7134 367.261,28.7134"/>
   <polyline stroke-width="0.5" fill="none" stroke="#0071bc" stroke-linejoin="miter" stroke-linecap="square" points="361.261,28.7134 367.261,22.7134"/>
   <polyline stroke-width="0.5" fill="none" stroke="#0071bc" stroke-linejoin="miter" stroke-linecap="square" points="363.72,22.958 369.72,28.958"/>
   <polyline stroke-width="0.5" fill="none" stroke="#0071bc" stroke-linejoin="miter" stroke-linecap="square" points="363.72,28.958 369.72,22.958"/>
   <polyline stroke-width="0.5" fill="none" stroke="#0071bc" stroke-linejoin="miter" stroke-linecap="square" points="365.92,23.1211 371.92,29.1211"/>
   <polyline stroke-width="0.5" fill="none" stroke="#0071bc" stroke-linejoin="miter" stroke-linecap="square" points="365.92,29.1211 371.92,23.1211"/>
   <polyline stroke-width="0.5" fill="none" stroke="#0071bc" stroke-linejoin="miter" stroke-linecap="square" points="380.393,25.3237 386.393,31.3237"/>
   <polyline stroke-width="0.5" fill="none" stroke="#0071bc" stroke-linejoin="miter" stroke-linecap="square" points="380.393,31.3237 386.393,25.3237"/>
   <polyline stroke-width="0.5" fill="none" stroke="#0071bc" stroke-linejoin="miter" stroke-linecap="square" points="388.859,27.4448 394.859,33.4448"/>
   <polyline stroke-width="0.5" fill="none" stroke="#0071bc" stroke-linejoin="miter" stroke-linecap="square" points="388.859,33.4448 394.859,27.4448"/>
   <polyline stroke-width="0.5" fill="none" stroke="#0071bc" stroke-linejoin="miter" stroke-linecap="square" points="394.866,29.6475 400.866,35.6475"/>
   <polyline stroke-width="0.5" fill="none" stroke="#0071bc" stroke-linejoin="miter" stroke-linecap="square" points="394.866,35.6475 400.866,29.6475"/>
   <polyline stroke-width="0.5" fill="none" stroke="#0071bc" stroke-linejoin="miter" stroke-linecap="square" points="399.525,32.2578 405.525,38.2578"/>
   <polyline stroke-width="0.5" fill="none" stroke="#0071bc" stroke-linejoin="miter" stroke-linecap="square" points="399.525,38.2578 405.525,32.2578"/>
   <polyline stroke-width="0.5" fill="none" stroke="#0071bc" stroke-linejoin="miter" stroke-linecap="square" points="403.332,35.4395 409.332,41.4395"/>
   <polyline stroke-width="0.5" fill="none" stroke="#0071bc" stroke-linejoin="miter" stroke-linecap="square" points="403.332,41.4395 409.332,35.4395"/>
   <polyline stroke-width="0.5" fill="none" stroke="#0071bc" stroke-linejoin="miter" stroke-linecap="square" points="406.551,39.2739 412.551,45.2739"/>
   <polyline stroke-width="0.5" fill="none" stroke="#0071bc" stroke-linejoin="miter" stroke-linecap="square" points="406.551,45.2739 412.551,39.2739"/>
   <polyline stroke-width="0.5" fill="none" stroke="#0071bc" stroke-linejoin="miter" stroke-linecap="square" points="409.339,43.9238 415.339,49.9238"/>
   <polyline stroke-width="0.5" fill="none" stroke="#0071bc" stroke-linejoin="miter" stroke-linecap="square" points="409.339,49.9238 415.339,43.9238"/>
   <polyline stroke-width="0.5" fill="none" stroke="#0071bc" stroke-linejoin="miter" stroke-linecap="square" points="411.798,50.0425 417.798,56.0425"/>
   <polyline stroke-width="0.5" fill="none" stroke="#0071bc" stroke-linejoin="miter" stroke-linecap="square" points="411.798,56.0425 417.798,50.0425"/>
   <polyline stroke-width="0.5" fill="none" stroke="#0071bc" stroke-linejoin="miter" stroke-linecap="square" points="413.998,58.4453 419.998,64.4453"/>
   <polyline stroke-width="0.5" fill="none" stroke="#0071bc" stroke-linejoin="miter" stroke-linecap="square" points="413.998,64.4453 419.998,58.4453"/>
   <polyline stroke-width="0.5" fill="none" stroke="#0071bc" stroke-linejoin="miter" stroke-linecap="square" points="418.657,84.1426 424.657,90.1426"/>
   <polyline stroke-width="0.5" fill="none" stroke="#0071bc" stroke-linejoin="miter" stroke-linecap="square" points="418.657,90.1426 424.657,84.1426"/>
   <polyline stroke-width="0.5" fill="none" stroke="#0071bc" stroke-linejoin="miter" stroke-linecap="square" points="422.464,103.232 428.464,109.232"/>
   <polyline stroke-width="0.5" fill="none" stroke="#0071bc" stroke-linejoin="miter" stroke-linecap="square" points="422.464,109.232 428.464,103.232"/>
   <polyline stroke-width="0.5" fill="none" stroke="#0071bc" stroke-linejoin="miter" stroke-linecap="square" points="425.683,117.019 431.683,123.02"/>
   <polyline stroke-width="0.5" fill="none" stroke="#0071bc" stroke-linejoin="miter" stroke-linecap="square" points="425.683,123.02 431.683,117.019"/>
   <polyline stroke-width="0.5" fill="none" stroke="#d85218" stroke-linejoin="round" stroke-linecap="butt" points="272.765,24.0474 276.176,24.0557 279.588,24.0659 283,24.0776 286.411,24.0913 289.823,24.1074 293.235,24.1265 296.646,24.1489 300.058,24.1753 303.47,24.2065 306.881,24.2432 310.293,24.2866 313.705,24.3374 317.117,24.397 320.528,24.4678 323.94,24.5508 327.352,24.6484 330.763,24.7632 334.175,24.8989 337.586,25.0586 340.998,25.2461 344.41,25.4673 347.822,25.728 351.233,26.0347 354.645,26.3955 358.057,26.8203 361.468,27.3203 364.88,27.9087 368.292,28.6016 371.704,29.416 375.115,30.3735 378.527,31.499 381.938,32.8208 385.35,34.3706 388.762,36.186 392.173,38.3086 395.585,40.7822 398.997,43.6553 402.409,46.9756 405.82,50.7861 409.232,55.1221 412.644,60 416.055,65.4087 419.467,71.3022 422.878,77.5908 426.291,84.1445 429.702,90.8013 433.114,97.3862 436.525,103.733 439.937,109.706"/>
   <polyline stroke-width="0.5" fill="none" stroke="#ecb01f" stroke-linejoin="round" stroke-linecap="butt" points="272.765,24.0352 276.176,24.0415 279.588,24.0488 283,24.0576 286.411,24.0679 289.823,24.0801 293.235,24.0938 296.646,24.1104 300.058,24.1299 303.47,24.1528 306.881,24.1792 310.293,24.2109 313.705,24.2476 317.117,24.2905 320.528,24.3408 323.94,24.3994 327.352,24.4678 330.763,24.5469 334.175,24.6392 337.586,24.7461 340.998,24.8696 344.41,25.0117 347.822,25.1748 351.233,25.3608 354.645,25.5718 358.057,25.8096 361.468,26.0762 364.88,26.3716 368.292,26.6973 371.704,27.0522 375.115,27.436 378.527,27.8486 381.938,28.291 385.35,28.771 388.762,29.3076 392.173,29.939 395.585,30.7402 398.997,31.8438 402.409,33.4653 405.82,35.9399 409.232,39.7417 412.644,45.4805 416.055,53.8096 419.467,65.1782 422.878,79.3281 426.291,94.5576 429.702,107.295 433.114,114.297 435.55,121.994"/>
  </g>
  <clipPath id="cp00453160">
   <polygon points="0,160 453,160 453,0 0,0"/>
  </clipPath>
  <g clip-path="url(#cp00453160)">
   <polygon fill="#ffffff" shape-rendering="crispEdges" points="280.553,114.107 355.708,114.107 355.708,84.4326 280.553,84.4326"/>
   <polyline stroke-width="0.5" fill="none" stroke="#262626" stroke-linejoin="miter" stroke-linecap="square" stroke-dasharray="16,0" points="280.553,114.107 355.708,114.107"/>
   <polyline stroke-width="0.5" fill="none" stroke="#262626" stroke-linejoin="miter" stroke-linecap="square" stroke-dasharray="16,0" points="280.553,84.4326 355.708,84.4326"/>
   <polyline stroke-width="0.5" fill="none" stroke="#262626" stroke-linejoin="miter" stroke-linecap="square" stroke-dasharray="16,0" points="280.553,114.107 280.553,84.4326"/>
   <polyline stroke-width="0.5" fill="none" stroke="#262626" stroke-linejoin="miter" stroke-linecap="square" stroke-dasharray="16,0" points="355.708,114.107 355.708,84.4326"/>
   <polyline stroke-width="0.5" fill="none" stroke="#d85218" stroke-linejoin="round" stroke-linecap="butt" points="284.447,92.8247 303.919,92.8247"/>
   <g transform="translate(307.813,96.8249) rotate(-0,-0,-4)" font-style="normal" xml:space="preserve" font-weight="normal" font-size="9.9" font-family="'Latin Modern Roman'">
    <text fill="rgb(0,0,0)" y="-0" x="0 9 14 20 24 27 30 34 39 ">Model "a"</text>
   </g>
   <polyline stroke-width="0.5" fill="none" stroke="#ecb01f" stroke-linejoin="round" stroke-linecap="butt" points="284.447,105.715 303.919,105.715"/>
   <g transform="translate(307.813,109.715) rotate(-0,-0,-4)" font-style="normal" xml:space="preserve" font-weight="normal" font-size="9.9" font-family="'Latin Modern Roman'">
    <text fill="rgb(0,0,0)" y="-0" x="0 9 14 20 24 27 30 34 40 ">Model "b"</text>
   </g>
  </g>
 </g>
</svg>
