<?xml version='1.0' encoding='UTF-8' standalone='no'?>
<svg height="160pt" viewBox="0 0 453 160" xmlns="http://www.w3.org/2000/svg" xmlns:xlink="http://www.w3.org/1999/xlink" width="453pt">
 <title>Figure 1</title>
 <desc>
Creator: GL2PS 1.4.2, (C) 1999-2020 C. Geuzaine
For: Octave
CreationDate: Mon Jul 10 12:43:25 2023
</desc>
 <defs/>
 <polygon points="0,0 453,0 453,160 0,160" fill="#ffffff"/>
 <g>
  <polygon points="0,160 453,160 453,0 0,0" fill="#ffffff" shape-rendering="crispEdges"/>
  <clipPath id="cp00453160">
   <polygon points="0,160 453,160 453,0 0,0"/>
  </clipPath>
  <g clip-path="url(#cp00453160)">
   <polygon points="47.6221,121.912 214.794,121.912 214.794,10 47.6221,10" fill="#ffffff" shape-rendering="crispEdges"/>
   <polyline stroke-linejoin="miter" points="66.2676,121.912 66.2676,10" stroke-opacity="0.25" stroke-dasharray="1,3,1,3,1,3,1,3" stroke-width="0.5" stroke-linecap="butt" stroke="#191919" fill="none"/>
   <polyline stroke-linejoin="miter" points="77.1748,121.912 77.1748,10" stroke-opacity="0.25" stroke-dasharray="1,3,1,3,1,3,1,3" stroke-width="0.5" stroke-linecap="butt" stroke="#191919" fill="none"/>
   <polyline stroke-linejoin="miter" points="84.9131,121.912 84.9131,10" stroke-opacity="0.25" stroke-dasharray="1,3,1,3,1,3,1,3" stroke-width="0.5" stroke-linecap="butt" stroke="#191919" fill="none"/>
   <polyline stroke-linejoin="miter" points="90.916,121.912 90.916,10" stroke-opacity="0.25" stroke-dasharray="1,3,1,3,1,3,1,3" stroke-width="0.5" stroke-linecap="butt" stroke="#191919" fill="none"/>
   <polyline stroke-linejoin="miter" points="95.8203,121.912 95.8203,10" stroke-opacity="0.25" stroke-dasharray="1,3,1,3,1,3,1,3" stroke-width="0.5" stroke-linecap="butt" stroke="#191919" fill="none"/>
   <polyline stroke-linejoin="miter" points="99.9668,121.912 99.9668,10" stroke-opacity="0.25" stroke-dasharray="1,3,1,3,1,3,1,3" stroke-width="0.5" stroke-linecap="butt" stroke="#191919" fill="none"/>
   <polyline stroke-linejoin="miter" points="103.559,121.912 103.559,10" stroke-opacity="0.25" stroke-dasharray="1,3,1,3,1,3,1,3" stroke-width="0.5" stroke-linecap="butt" stroke="#191919" fill="none"/>
   <polyline stroke-linejoin="miter" points="106.727,121.912 106.727,10" stroke-opacity="0.25" stroke-dasharray="1,3,1,3,1,3,1,3" stroke-width="0.5" stroke-linecap="butt" stroke="#191919" fill="none"/>
   <polyline stroke-linejoin="miter" points="128.207,121.912 128.207,10" stroke-opacity="0.25" stroke-dasharray="1,3,1,3,1,3,1,3" stroke-width="0.5" stroke-linecap="butt" stroke="#191919" fill="none"/>
   <polyline stroke-linejoin="miter" points="139.114,121.912 139.114,10" stroke-opacity="0.25" stroke-dasharray="1,3,1,3,1,3,1,3" stroke-width="0.5" stroke-linecap="butt" stroke="#191919" fill="none"/>
   <polyline stroke-linejoin="miter" points="146.853,121.912 146.853,10" stroke-opacity="0.25" stroke-dasharray="1,3,1,3,1,3,1,3" stroke-width="0.5" stroke-linecap="butt" stroke="#191919" fill="none"/>
   <polyline stroke-linejoin="miter" points="152.855,121.912 152.855,10" stroke-opacity="0.25" stroke-dasharray="1,3,1,3,1,3,1,3" stroke-width="0.5" stroke-linecap="butt" stroke="#191919" fill="none"/>
   <polyline stroke-linejoin="miter" points="157.76,121.912 157.76,10" stroke-opacity="0.25" stroke-dasharray="1,3,1,3,1,3,1,3" stroke-width="0.5" stroke-linecap="butt" stroke="#191919" fill="none"/>
   <polyline stroke-linejoin="miter" points="161.906,121.912 161.906,10" stroke-opacity="0.25" stroke-dasharray="1,3,1,3,1,3,1,3" stroke-width="0.5" stroke-linecap="butt" stroke="#191919" fill="none"/>
   <polyline stroke-linejoin="miter" points="165.498,121.912 165.498,10" stroke-opacity="0.25" stroke-dasharray="1,3,1,3,1,3,1,3" stroke-width="0.5" stroke-linecap="butt" stroke="#191919" fill="none"/>
   <polyline stroke-linejoin="miter" points="168.667,121.912 168.667,10" stroke-opacity="0.25" stroke-dasharray="1,3,1,3,1,3,1,3" stroke-width="0.5" stroke-linecap="butt" stroke="#191919" fill="none"/>
   <polyline stroke-linejoin="miter" points="190.146,121.912 190.146,10" stroke-opacity="0.25" stroke-dasharray="1,3,1,3,1,3,1,3" stroke-width="0.5" stroke-linecap="butt" stroke="#191919" fill="none"/>
   <polyline stroke-linejoin="miter" points="201.053,121.912 201.053,10" stroke-opacity="0.25" stroke-dasharray="1,3,1,3,1,3,1,3" stroke-width="0.5" stroke-linecap="butt" stroke="#191919" fill="none"/>
   <polyline stroke-linejoin="miter" points="208.792,121.912 208.792,10" stroke-opacity="0.25" stroke-dasharray="1,3,1,3,1,3,1,3" stroke-width="0.5" stroke-linecap="butt" stroke="#191919" fill="none"/>
   <polyline stroke-linejoin="miter" points="214.794,121.912 214.794,10" stroke-opacity="0.25" stroke-dasharray="1,3,1,3,1,3,1,3" stroke-width="0.5" stroke-linecap="butt" stroke="#191919" fill="none"/>
   <polyline stroke-linejoin="miter" points="47.6221,121.912 47.6221,10" stroke-opacity="0.15" stroke-dasharray="16,0" stroke-width="0.5" stroke-linecap="butt" stroke="#262626" fill="none"/>
   <polyline stroke-linejoin="miter" points="109.562,121.912 109.562,10" stroke-opacity="0.15" stroke-dasharray="16,0" stroke-width="0.5" stroke-linecap="butt" stroke="#262626" fill="none"/>
   <polyline stroke-linejoin="miter" points="171.5,121.912 171.5,10" stroke-opacity="0.15" stroke-dasharray="16,0" stroke-width="0.5" stroke-linecap="butt" stroke="#262626" fill="none"/>
   <polyline stroke-linejoin="miter" points="47.6221,121.912 47.6221,120.242" stroke-width="0.5" stroke-linecap="butt" stroke="#262626" fill="none"/>
   <polyline stroke-linejoin="miter" points="47.6221,10 47.6221,11.6704" stroke-width="0.5" stroke-linecap="butt" stroke="#262626" fill="none"/>
   <polyline stroke-linejoin="miter" points="109.562,121.912 109.562,120.242" stroke-width="0.5" stroke-linecap="butt" stroke="#262626" fill="none"/>
   <polyline stroke-linejoin="miter" points="109.562,10 109.562,11.6704" stroke-width="0.5" stroke-linecap="butt" stroke="#262626" fill="none"/>
   <polyline stroke-linejoin="miter" points="171.5,121.912 171.5,120.242" stroke-width="0.5" stroke-linecap="butt" stroke="#262626" fill="none"/>
   <polyline stroke-linejoin="miter" points="171.5,10 171.5,11.6704" stroke-width="0.5" stroke-linecap="butt" stroke="#262626" fill="none"/>
   <g font-family="'Latin Modern Roman'" font-size="11" transform="translate(39.622,142.156) rotate(-0,8,-12)" font-style="normal" font-weight="normal" xml:space="preserve">
    <text x="0 6 " y="-0" fill="rgb(38,38,38)">10</text>
    <text x="12 " font-size="7.7" y="-5" fill="rgb(38,38,38)">2</text>
   </g>
   <g font-family="'Latin Modern Roman'" font-size="11" transform="translate(101.561,142.156) rotate(-0,8,-12)" font-style="normal" font-weight="normal" xml:space="preserve">
    <text x="0 6 " y="-0" fill="rgb(38,38,38)">10</text>
    <text x="12 " font-size="7.7" y="-5" fill="rgb(38,38,38)">3</text>
   </g>
   <g font-family="'Latin Modern Roman'" font-size="11" transform="translate(163.501,142.156) rotate(-0,8,-12)" font-style="normal" font-weight="normal" xml:space="preserve">
    <text x="0 6 " y="-0" fill="rgb(38,38,38)">10</text>
    <text x="12 " font-size="7.7" y="-5" fill="rgb(38,38,38)">4</text>
   </g>
   <polyline stroke-linejoin="miter" points="47.6221,121.912 214.794,121.912" stroke-opacity="0.15" stroke-dasharray="16,0" stroke-width="0.5" stroke-linecap="butt" stroke="#262626" fill="none"/>
   <polyline stroke-linejoin="miter" points="47.6221,103.26 214.794,103.26" stroke-opacity="0.15" stroke-dasharray="16,0" stroke-width="0.5" stroke-linecap="butt" stroke="#262626" fill="none"/>
   <polyline stroke-linejoin="miter" points="47.6221,84.6084 214.794,84.6084" stroke-opacity="0.15" stroke-dasharray="16,0" stroke-width="0.5" stroke-linecap="butt" stroke="#262626" fill="none"/>
   <polyline stroke-linejoin="miter" points="47.6221,65.9561 214.794,65.9561" stroke-opacity="0.15" stroke-dasharray="16,0" stroke-width="0.5" stroke-linecap="butt" stroke="#262626" fill="none"/>
   <polyline stroke-linejoin="miter" points="47.6221,47.3042 214.794,47.3042" stroke-opacity="0.15" stroke-dasharray="16,0" stroke-width="0.5" stroke-linecap="butt" stroke="#262626" fill="none"/>
   <polyline stroke-linejoin="miter" points="47.6221,28.6519 214.794,28.6519" stroke-opacity="0.15" stroke-dasharray="16,0" stroke-width="0.5" stroke-linecap="butt" stroke="#262626" fill="none"/>
   <polyline stroke-linejoin="miter" points="47.6221,121.912 49.2954,121.912" stroke-width="0.5" stroke-linecap="butt" stroke="#262626" fill="none"/>
   <polyline stroke-linejoin="miter" points="214.794,121.912 213.121,121.912" stroke-width="0.5" stroke-linecap="butt" stroke="#262626" fill="none"/>
   <polyline stroke-linejoin="miter" points="47.6221,103.26 49.2954,103.26" stroke-width="0.5" stroke-linecap="butt" stroke="#262626" fill="none"/>
   <polyline stroke-linejoin="miter" points="214.794,103.26 213.121,103.26" stroke-width="0.5" stroke-linecap="butt" stroke="#262626" fill="none"/>
   <polyline stroke-linejoin="miter" points="47.6221,84.6084 49.2954,84.6084" stroke-width="0.5" stroke-linecap="butt" stroke="#262626" fill="none"/>
   <polyline stroke-linejoin="miter" points="214.794,84.6084 213.121,84.6084" stroke-width="0.5" stroke-linecap="butt" stroke="#262626" fill="none"/>
   <polyline stroke-linejoin="miter" points="47.6221,65.9561 49.2954,65.9561" stroke-width="0.5" stroke-linecap="butt" stroke="#262626" fill="none"/>
   <polyline stroke-linejoin="miter" points="214.794,65.9561 213.121,65.9561" stroke-width="0.5" stroke-linecap="butt" stroke="#262626" fill="none"/>
   <polyline stroke-linejoin="miter" points="47.6221,47.3042 49.2954,47.3042" stroke-width="0.5" stroke-linecap="butt" stroke="#262626" fill="none"/>
   <polyline stroke-linejoin="miter" points="214.794,47.3042 213.121,47.3042" stroke-width="0.5" stroke-linecap="butt" stroke="#262626" fill="none"/>
   <polyline stroke-linejoin="miter" points="47.6221,28.6519 49.2954,28.6519" stroke-width="0.5" stroke-linecap="butt" stroke="#262626" fill="none"/>
   <polyline stroke-linejoin="miter" points="214.794,28.6519 213.121,28.6519" stroke-width="0.5" stroke-linecap="butt" stroke="#262626" fill="none"/>
   <g font-family="'Latin Modern Roman'" font-size="11" transform="translate(21.1164,126.412) rotate(-0,21,-4.5)" font-style="normal" font-weight="normal" xml:space="preserve">
    <text x="0 6 9 15 " y="-0" fill="rgb(38,38,38)">3.25</text>
   </g>
   <g font-family="'Latin Modern Roman'" font-size="11" transform="translate(21.1164,107.76) rotate(-0,21,-4.5)" font-style="normal" font-weight="normal" xml:space="preserve">
    <text x="0 6 9 15 " y="-0" fill="rgb(38,38,38)">3.26</text>
   </g>
   <g font-family="'Latin Modern Roman'" font-size="11" transform="translate(21.1164,89.1081) rotate(-0,21,-4.5)" font-style="normal" font-weight="normal" xml:space="preserve">
    <text x="0 6 9 15 " y="-0" fill="rgb(38,38,38)">3.27</text>
   </g>
   <g font-family="'Latin Modern Roman'" font-size="11" transform="translate(21.1164,70.456) rotate(-0,21,-4.5)" font-style="normal" font-weight="normal" xml:space="preserve">
    <text x="0 6 9 15 " y="-0" fill="rgb(38,38,38)">3.28</text>
   </g>
   <g font-family="'Latin Modern Roman'" font-size="11" transform="translate(21.1164,51.804) rotate(-0,21,-4.5)" font-style="normal" font-weight="normal" xml:space="preserve">
    <text x="0 6 9 15 " y="-0" fill="rgb(38,38,38)">3.29</text>
   </g>
   <g font-family="'Latin Modern Roman'" font-size="11" transform="translate(27.1164,33.152) rotate(-0,15,-4.5)" font-style="normal" font-weight="normal" xml:space="preserve">
    <text x="0 6 9 " y="-0" fill="rgb(38,38,38)">3.3</text>
   </g>
   <polyline stroke-linejoin="miter" points="47.6221,121.912 214.794,121.912" stroke-dasharray="16,0" stroke-width="0.5" stroke-linecap="square" stroke="#262626" fill="none"/>
   <polyline stroke-linejoin="miter" points="47.6221,10 214.794,10" stroke-dasharray="16,0" stroke-width="0.5" stroke-linecap="square" stroke="#262626" fill="none"/>
   <polyline stroke-linejoin="miter" points="47.6221,121.912 47.6221,10" stroke-dasharray="16,0" stroke-width="0.5" stroke-linecap="square" stroke="#262626" fill="none"/>
   <polyline stroke-linejoin="miter" points="214.794,121.912 214.794,10" stroke-dasharray="16,0" stroke-width="0.5" stroke-linecap="square" stroke="#262626" fill="none"/>
   <g font-family="'Latin Modern Roman'" font-size="12.1" transform="translate(62.7082,160.156) rotate(-0,68.5,-13)" font-style="normal" font-weight="normal" xml:space="preserve">
    <text x="0 9 14 19 24 29 35 40 43 46 55 61 66 71 75 80 86 92 99 105 109 116 119 123 132 " y="-3" fill="rgb(38,38,38)">Częstotliwość sygnału, Hz</text>
   </g>
   <g font-family="'Latin Modern Roman'" font-size="12.1" transform="translate(-33.3836,65.956) rotate(-90,49.5,0)" font-style="normal" font-weight="normal" xml:space="preserve">
    <text x="0 12 17 27 33 38 45 48 53 60 63 68 71 75 84 90 " y="-3" fill="rgb(38,38,38)">Wzmocnienie, V/V</text>
   </g>
   <polyline stroke-linejoin="miter" points="44.6221,78.0928 50.6221,84.0928" stroke-width="0.5" stroke-linecap="square" stroke="#0071bc" fill="none"/>
   <polyline stroke-linejoin="miter" points="44.6221,84.0928 50.6221,78.0928" stroke-width="0.5" stroke-linecap="square" stroke="#0071bc" fill="none"/>
   <polyline stroke-linejoin="miter" points="63.2676,106.361 69.2676,112.361" stroke-width="0.5" stroke-linecap="square" stroke="#0071bc" fill="none"/>
   <polyline stroke-linejoin="miter" points="63.2676,112.361 69.2676,106.361" stroke-width="0.5" stroke-linecap="square" stroke="#0071bc" fill="none"/>
   <polyline stroke-linejoin="miter" points="74.1748,94.1655 80.1748,100.166" stroke-width="0.5" stroke-linecap="square" stroke="#0071bc" fill="none"/>
   <polyline stroke-linejoin="miter" points="74.1748,100.166 80.1748,94.1655" stroke-width="0.5" stroke-linecap="square" stroke="#0071bc" fill="none"/>
   <polyline stroke-linejoin="miter" points="81.9131,100.493 87.9131,106.493" stroke-width="0.5" stroke-linecap="square" stroke="#0071bc" fill="none"/>
   <polyline stroke-linejoin="miter" points="81.9131,106.493 87.9131,100.493" stroke-width="0.5" stroke-linecap="square" stroke="#0071bc" fill="none"/>
   <polyline stroke-linejoin="miter" points="87.916,102.866 93.916,108.866" stroke-width="0.5" stroke-linecap="square" stroke="#0071bc" fill="none"/>
   <polyline stroke-linejoin="miter" points="87.916,108.866 93.916,102.866" stroke-width="0.5" stroke-linecap="square" stroke="#0071bc" fill="none"/>
   <polyline stroke-linejoin="miter" points="92.8203,68.7251 98.8203,74.7251" stroke-width="0.5" stroke-linecap="square" stroke="#0071bc" fill="none"/>
   <polyline stroke-linejoin="miter" points="92.8203,74.7251 98.8203,68.7251" stroke-width="0.5" stroke-linecap="square" stroke="#0071bc" fill="none"/>
   <polyline stroke-linejoin="miter" points="96.9668,94.1655 102.967,100.166" stroke-width="0.5" stroke-linecap="square" stroke="#0071bc" fill="none"/>
   <polyline stroke-linejoin="miter" points="96.9668,100.166 102.967,94.1655" stroke-width="0.5" stroke-linecap="square" stroke="#0071bc" fill="none"/>
   <polyline stroke-linejoin="miter" points="100.559,75.105 106.559,81.105" stroke-width="0.5" stroke-linecap="square" stroke="#0071bc" fill="none"/>
   <polyline stroke-linejoin="miter" points="100.559,81.105 106.559,75.105" stroke-width="0.5" stroke-linecap="square" stroke="#0071bc" fill="none"/>
   <polyline stroke-linejoin="miter" points="103.727,87.8252 109.727,93.8252" stroke-width="0.5" stroke-linecap="square" stroke="#0071bc" fill="none"/>
   <polyline stroke-linejoin="miter" points="103.727,93.8252 109.727,87.8252" stroke-width="0.5" stroke-linecap="square" stroke="#0071bc" fill="none"/>
   <polyline stroke-linejoin="miter" points="106.562,62.3315 112.562,68.3315" stroke-width="0.5" stroke-linecap="square" stroke="#0071bc" fill="none"/>
   <polyline stroke-linejoin="miter" points="106.562,68.3315 112.562,62.3315" stroke-width="0.5" stroke-linecap="square" stroke="#0071bc" fill="none"/>
   <polyline stroke-linejoin="miter" points="125.207,55.9248 131.207,61.9248" stroke-width="0.5" stroke-linecap="square" stroke="#0071bc" fill="none"/>
   <polyline stroke-linejoin="miter" points="125.207,61.9248 131.207,55.9248" stroke-width="0.5" stroke-linecap="square" stroke="#0071bc" fill="none"/>
   <polyline stroke-linejoin="miter" points="136.114,51.7373 142.114,57.7373" stroke-width="0.5" stroke-linecap="square" stroke="#0071bc" fill="none"/>
   <polyline stroke-linejoin="miter" points="136.114,57.7373 142.114,51.7373" stroke-width="0.5" stroke-linecap="square" stroke="#0071bc" fill="none"/>
   <polyline stroke-linejoin="miter" points="143.853,36.624 149.853,42.624" stroke-width="0.5" stroke-linecap="square" stroke="#0071bc" fill="none"/>
   <polyline stroke-linejoin="miter" points="143.853,42.624 149.853,36.624" stroke-width="0.5" stroke-linecap="square" stroke="#0071bc" fill="none"/>
   <polyline stroke-linejoin="miter" points="149.855,68.7251 155.855,74.7251" stroke-width="0.5" stroke-linecap="square" stroke="#0071bc" fill="none"/>
   <polyline stroke-linejoin="miter" points="149.855,74.7251 155.855,68.7251" stroke-width="0.5" stroke-linecap="square" stroke="#0071bc" fill="none"/>
   <polyline stroke-linejoin="miter" points="154.76,71.0112 160.76,77.0112" stroke-width="0.5" stroke-linecap="square" stroke="#0071bc" fill="none"/>
   <polyline stroke-linejoin="miter" points="154.76,77.0112 160.76,71.0112" stroke-width="0.5" stroke-linecap="square" stroke="#0071bc" fill="none"/>
   <polyline stroke-linejoin="miter" points="158.906,38.8203 164.906,44.8203" stroke-width="0.5" stroke-linecap="square" stroke="#0071bc" fill="none"/>
   <polyline stroke-linejoin="miter" points="158.906,44.8203 164.906,38.8203" stroke-width="0.5" stroke-linecap="square" stroke="#0071bc" fill="none"/>
   <polyline stroke-linejoin="miter" points="162.498,83.793 168.498,89.793" stroke-width="0.5" stroke-linecap="square" stroke="#0071bc" fill="none"/>
   <polyline stroke-linejoin="miter" points="162.498,89.793 168.498,83.793" stroke-width="0.5" stroke-linecap="square" stroke="#0071bc" fill="none"/>
   <polyline stroke-linejoin="miter" points="165.667,83.793 171.667,89.793" stroke-width="0.5" stroke-linecap="square" stroke="#0071bc" fill="none"/>
   <polyline stroke-linejoin="miter" points="165.667,89.793 171.667,83.793" stroke-width="0.5" stroke-linecap="square" stroke="#0071bc" fill="none"/>
   <polyline stroke-linejoin="miter" points="168.5,30.1631 174.5,36.1631" stroke-width="0.5" stroke-linecap="square" stroke="#0071bc" fill="none"/>
   <polyline stroke-linejoin="miter" points="168.5,36.1631 174.5,30.1631" stroke-width="0.5" stroke-linecap="square" stroke="#0071bc" fill="none"/>
   <polyline stroke-linejoin="miter" points="187.146,79.7271 193.146,85.7271" stroke-width="0.5" stroke-linecap="square" stroke="#0071bc" fill="none"/>
   <polyline stroke-linejoin="miter" points="187.146,85.7271 193.146,79.7271" stroke-width="0.5" stroke-linecap="square" stroke="#0071bc" fill="none"/>
   <polyline stroke-linejoin="miter" points="198.053,60.4404 204.053,66.4404" stroke-width="0.5" stroke-linecap="square" stroke="#0071bc" fill="none"/>
   <polyline stroke-linejoin="miter" points="198.053,66.4404 204.053,60.4404" stroke-width="0.5" stroke-linecap="square" stroke="#0071bc" fill="none"/>
   <polyline stroke-linejoin="miter" points="205.792,19.3428 211.792,25.3428" stroke-width="0.5" stroke-linecap="square" stroke="#0071bc" fill="none"/>
   <polyline stroke-linejoin="miter" points="205.792,25.3428 211.792,19.3428" stroke-width="0.5" stroke-linecap="square" stroke="#0071bc" fill="none"/>
   <polyline stroke-linejoin="miter" points="211.794,25.8491 217.794,31.8491" stroke-width="0.5" stroke-linecap="square" stroke="#0071bc" fill="none"/>
   <polyline stroke-linejoin="miter" points="211.794,31.8491 217.794,25.8491" stroke-width="0.5" stroke-linecap="square" stroke="#0071bc" fill="none"/>
   <polyline stroke-linejoin="round" points="47.6221,65.9565 51.0337,65.9565 54.4453,65.9565 57.8569,65.957 61.2686,65.957 64.6807,65.957 68.0923,65.9575 71.5039,65.958 74.9155,65.959 78.3271,65.96 81.7388,65.9609 85.1504,65.9619 88.562,65.9639 91.9741,65.9668 95.3857,65.9697 98.7974,65.9736 102.209,65.9785 105.621,65.9854 109.032,65.9937 112.444,66.0049 115.855,66.0186 119.268,66.0371 122.679,66.0601 126.091,66.0908 129.502,66.1289 132.914,66.1797 136.326,66.2441 139.737,66.3276 143.149,66.4351 146.561,66.5728 149.973,66.752 153.384,66.9814 156.796,67.2764 160.208,67.6582 163.619,68.1494 167.031,68.7817 170.442,69.5977 173.854,70.6484 177.266,72 180.678,73.7427 184.089,75.9854 187.501,78.8721 190.913,82.5854 194.324,87.3623 197.736,93.501 201.147,101.385 204.56,111.5 207.33,122.024" stroke-width="0.5" stroke-linecap="butt" stroke="#d85218" fill="none"/>
   <polyline stroke-linejoin="round" points="47.6221,65.9561 51.0337,65.9561 54.4453,65.9561 57.8569,65.9561 61.2686,65.9561 64.6807,65.9561 68.0923,65.9561 71.5039,65.9561 74.9155,65.9561 78.3271,65.9561 81.7388,65.9561 85.1504,65.9561 88.562,65.9561 91.9741,65.9561 95.3857,65.9561 98.7974,65.9561 102.209,65.9561 105.621,65.9561 109.032,65.9561 112.444,65.9561 115.855,65.9561 119.268,65.9561 122.679,65.9561 126.091,65.9561 129.502,65.9561 132.914,65.9561 136.326,65.9561 139.737,65.9561 143.149,65.9561 146.561,65.9561 149.973,65.9561 153.384,65.9561 156.796,65.9561 160.208,65.9561 163.619,65.9561 167.031,65.9561 170.442,65.9561 173.854,65.9561 177.266,65.9561 180.678,65.9561 184.089,65.9561 187.501,65.9561 190.913,65.9561 194.324,65.9561 197.736,65.9561 201.147,65.9561 204.56,65.9561 207.971,65.9561 211.383,65.9561 214.794,65.9561" stroke-width="0.5" stroke-linecap="butt" stroke="#ecb01f" fill="none"/>
  </g>
  <clipPath id="cp00453160">
   <polygon points="0,160 453,160 453,0 0,0"/>
  </clipPath>
  <g clip-path="url(#cp00453160)">
   <polygon points="55.4106,47.4629 130.565,47.4629 130.565,17.7886 55.4106,17.7886" fill="#ffffff" shape-rendering="crispEdges"/>
   <polyline stroke-linejoin="miter" points="55.4106,47.4629 130.565,47.4629" stroke-dasharray="16,0" stroke-width="0.5" stroke-linecap="square" stroke="#262626" fill="none"/>
   <polyline stroke-linejoin="miter" points="55.4106,17.7886 130.565,17.7886" stroke-dasharray="16,0" stroke-width="0.5" stroke-linecap="square" stroke="#262626" fill="none"/>
   <polyline stroke-linejoin="miter" points="55.4106,47.4629 55.4106,17.7886" stroke-dasharray="16,0" stroke-width="0.5" stroke-linecap="square" stroke="#262626" fill="none"/>
   <polyline stroke-linejoin="miter" points="130.565,47.4629 130.565,17.7886" stroke-dasharray="16,0" stroke-width="0.5" stroke-linecap="square" stroke="#262626" fill="none"/>
   <polyline stroke-linejoin="round" points="59.3047,26.1807 78.7764,26.1807" stroke-width="0.5" stroke-linecap="butt" stroke="#d85218" fill="none"/>
   <g font-family="'Latin Modern Roman'" font-size="9.9" transform="translate(82.6705,30.1807) rotate(-0,-0,-4)" font-style="normal" font-weight="normal" xml:space="preserve">
    <text x="0 9 14 20 24 27 30 34 39 " y="-0" fill="rgb(0,0,0)">Model "a"</text>
   </g>
   <polyline stroke-linejoin="round" points="59.3047,39.0708 78.7764,39.0708" stroke-width="0.5" stroke-linecap="butt" stroke="#ecb01f" fill="none"/>
   <g font-family="'Latin Modern Roman'" font-size="9.9" transform="translate(82.6705,43.0708) rotate(-0,-0,-4)" font-style="normal" font-weight="normal" xml:space="preserve">
    <text x="0 9 14 20 24 27 30 34 40 " y="-0" fill="rgb(0,0,0)">Model "b"</text>
   </g>
  </g>
  <clipPath id="cp00453160">
   <polygon points="0,160 453,160 453,0 0,0"/>
  </clipPath>
  <g clip-path="url(#cp00453160)">
   <polygon points="272.765,121.912 439.937,121.912 439.937,10 272.765,10" fill="#ffffff" shape-rendering="crispEdges"/>
   <polyline stroke-linejoin="miter" points="291.41,121.912 291.41,10" stroke-opacity="0.25" stroke-dasharray="1,3,1,3,1,3,1,3" stroke-width="0.5" stroke-linecap="butt" stroke="#191919" fill="none"/>
   <polyline stroke-linejoin="miter" points="302.317,121.912 302.317,10" stroke-opacity="0.25" stroke-dasharray="1,3,1,3,1,3,1,3" stroke-width="0.5" stroke-linecap="butt" stroke="#191919" fill="none"/>
   <polyline stroke-linejoin="miter" points="310.056,121.912 310.056,10" stroke-opacity="0.25" stroke-dasharray="1,3,1,3,1,3,1,3" stroke-width="0.5" stroke-linecap="butt" stroke="#191919" fill="none"/>
   <polyline stroke-linejoin="miter" points="316.059,121.912 316.059,10" stroke-opacity="0.25" stroke-dasharray="1,3,1,3,1,3,1,3" stroke-width="0.5" stroke-linecap="butt" stroke="#191919" fill="none"/>
   <polyline stroke-linejoin="miter" points="320.963,121.912 320.963,10" stroke-opacity="0.25" stroke-dasharray="1,3,1,3,1,3,1,3" stroke-width="0.5" stroke-linecap="butt" stroke="#191919" fill="none"/>
   <polyline stroke-linejoin="miter" points="325.109,121.912 325.109,10" stroke-opacity="0.25" stroke-dasharray="1,3,1,3,1,3,1,3" stroke-width="0.5" stroke-linecap="butt" stroke="#191919" fill="none"/>
   <polyline stroke-linejoin="miter" points="328.701,121.912 328.701,10" stroke-opacity="0.25" stroke-dasharray="1,3,1,3,1,3,1,3" stroke-width="0.5" stroke-linecap="butt" stroke="#191919" fill="none"/>
   <polyline stroke-linejoin="miter" points="331.87,121.912 331.87,10" stroke-opacity="0.25" stroke-dasharray="1,3,1,3,1,3,1,3" stroke-width="0.5" stroke-linecap="butt" stroke="#191919" fill="none"/>
   <polyline stroke-linejoin="miter" points="353.35,121.912 353.35,10" stroke-opacity="0.25" stroke-dasharray="1,3,1,3,1,3,1,3" stroke-width="0.5" stroke-linecap="butt" stroke="#191919" fill="none"/>
   <polyline stroke-linejoin="miter" points="364.256,121.912 364.256,10" stroke-opacity="0.25" stroke-dasharray="1,3,1,3,1,3,1,3" stroke-width="0.5" stroke-linecap="butt" stroke="#191919" fill="none"/>
   <polyline stroke-linejoin="miter" points="371.995,121.912 371.995,10" stroke-opacity="0.25" stroke-dasharray="1,3,1,3,1,3,1,3" stroke-width="0.5" stroke-linecap="butt" stroke="#191919" fill="none"/>
   <polyline stroke-linejoin="miter" points="377.998,121.912 377.998,10" stroke-opacity="0.25" stroke-dasharray="1,3,1,3,1,3,1,3" stroke-width="0.5" stroke-linecap="butt" stroke="#191919" fill="none"/>
   <polyline stroke-linejoin="miter" points="382.902,121.912 382.902,10" stroke-opacity="0.25" stroke-dasharray="1,3,1,3,1,3,1,3" stroke-width="0.5" stroke-linecap="butt" stroke="#191919" fill="none"/>
   <polyline stroke-linejoin="miter" points="387.049,121.912 387.049,10" stroke-opacity="0.25" stroke-dasharray="1,3,1,3,1,3,1,3" stroke-width="0.5" stroke-linecap="butt" stroke="#191919" fill="none"/>
   <polyline stroke-linejoin="miter" points="390.641,121.912 390.641,10" stroke-opacity="0.25" stroke-dasharray="1,3,1,3,1,3,1,3" stroke-width="0.5" stroke-linecap="butt" stroke="#191919" fill="none"/>
   <polyline stroke-linejoin="miter" points="393.809,121.912 393.809,10" stroke-opacity="0.25" stroke-dasharray="1,3,1,3,1,3,1,3" stroke-width="0.5" stroke-linecap="butt" stroke="#191919" fill="none"/>
   <polyline stroke-linejoin="miter" points="415.289,121.912 415.289,10" stroke-opacity="0.25" stroke-dasharray="1,3,1,3,1,3,1,3" stroke-width="0.5" stroke-linecap="butt" stroke="#191919" fill="none"/>
   <polyline stroke-linejoin="miter" points="426.196,121.912 426.196,10" stroke-opacity="0.25" stroke-dasharray="1,3,1,3,1,3,1,3" stroke-width="0.5" stroke-linecap="butt" stroke="#191919" fill="none"/>
   <polyline stroke-linejoin="miter" points="433.935,121.912 433.935,10" stroke-opacity="0.25" stroke-dasharray="1,3,1,3,1,3,1,3" stroke-width="0.5" stroke-linecap="butt" stroke="#191919" fill="none"/>
   <polyline stroke-linejoin="miter" points="439.937,121.912 439.937,10" stroke-opacity="0.25" stroke-dasharray="1,3,1,3,1,3,1,3" stroke-width="0.5" stroke-linecap="butt" stroke="#191919" fill="none"/>
   <polyline stroke-linejoin="miter" points="272.765,121.912 272.765,10" stroke-opacity="0.15" stroke-dasharray="16,0" stroke-width="0.5" stroke-linecap="butt" stroke="#262626" fill="none"/>
   <polyline stroke-linejoin="miter" points="334.704,121.912 334.704,10" stroke-opacity="0.15" stroke-dasharray="16,0" stroke-width="0.5" stroke-linecap="butt" stroke="#262626" fill="none"/>
   <polyline stroke-linejoin="miter" points="396.643,121.912 396.643,10" stroke-opacity="0.15" stroke-dasharray="16,0" stroke-width="0.5" stroke-linecap="butt" stroke="#262626" fill="none"/>
   <polyline stroke-linejoin="miter" points="272.765,121.912 272.765,120.242" stroke-width="0.5" stroke-linecap="butt" stroke="#262626" fill="none"/>
   <polyline stroke-linejoin="miter" points="272.765,10 272.765,11.6704" stroke-width="0.5" stroke-linecap="butt" stroke="#262626" fill="none"/>
   <polyline stroke-linejoin="miter" points="334.704,121.912 334.704,120.242" stroke-width="0.5" stroke-linecap="butt" stroke="#262626" fill="none"/>
   <polyline stroke-linejoin="miter" points="334.704,10 334.704,11.6704" stroke-width="0.5" stroke-linecap="butt" stroke="#262626" fill="none"/>
   <polyline stroke-linejoin="miter" points="396.643,121.912 396.643,120.242" stroke-width="0.5" stroke-linecap="butt" stroke="#262626" fill="none"/>
   <polyline stroke-linejoin="miter" points="396.643,10 396.643,11.6704" stroke-width="0.5" stroke-linecap="butt" stroke="#262626" fill="none"/>
   <g font-family="'Latin Modern Roman'" font-size="11" transform="translate(264.765,142.156) rotate(-0,8,-12)" font-style="normal" font-weight="normal" xml:space="preserve">
    <text x="0 6 " y="-0" fill="rgb(38,38,38)">10</text>
    <text x="12 " font-size="7.7" y="-5" fill="rgb(38,38,38)">2</text>
   </g>
   <g font-family="'Latin Modern Roman'" font-size="11" transform="translate(326.704,142.156) rotate(-0,8,-12)" font-style="normal" font-weight="normal" xml:space="preserve">
    <text x="0 6 " y="-0" fill="rgb(38,38,38)">10</text>
    <text x="12 " font-size="7.7" y="-5" fill="rgb(38,38,38)">3</text>
   </g>
   <g font-family="'Latin Modern Roman'" font-size="11" transform="translate(388.643,142.156) rotate(-0,8,-12)" font-style="normal" font-weight="normal" xml:space="preserve">
    <text x="0 6 " y="-0" fill="rgb(38,38,38)">10</text>
    <text x="12 " font-size="7.7" y="-5" fill="rgb(38,38,38)">4</text>
   </g>
   <polyline stroke-linejoin="miter" points="272.765,114.451 439.937,114.451" stroke-opacity="0.15" stroke-dasharray="16,0" stroke-width="0.5" stroke-linecap="butt" stroke="#262626" fill="none"/>
   <polyline stroke-linejoin="miter" points="272.765,99.5298 439.937,99.5298" stroke-opacity="0.15" stroke-dasharray="16,0" stroke-width="0.5" stroke-linecap="butt" stroke="#262626" fill="none"/>
   <polyline stroke-linejoin="miter" points="272.765,84.6079 439.937,84.6079" stroke-opacity="0.15" stroke-dasharray="16,0" stroke-width="0.5" stroke-linecap="butt" stroke="#262626" fill="none"/>
   <polyline stroke-linejoin="miter" points="272.765,69.6865 439.937,69.6865" stroke-opacity="0.15" stroke-dasharray="16,0" stroke-width="0.5" stroke-linecap="butt" stroke="#262626" fill="none"/>
   <polyline stroke-linejoin="miter" points="272.765,54.7646 439.937,54.7646" stroke-opacity="0.15" stroke-dasharray="16,0" stroke-width="0.5" stroke-linecap="butt" stroke="#262626" fill="none"/>
   <polyline stroke-linejoin="miter" points="272.765,39.8433 439.937,39.8433" stroke-opacity="0.15" stroke-dasharray="16,0" stroke-width="0.5" stroke-linecap="butt" stroke="#262626" fill="none"/>
   <polyline stroke-linejoin="miter" points="272.765,24.9214 439.937,24.9214" stroke-opacity="0.15" stroke-dasharray="16,0" stroke-width="0.5" stroke-linecap="butt" stroke="#262626" fill="none"/>
   <polyline stroke-linejoin="miter" points="272.765,10 439.937,10" stroke-opacity="0.15" stroke-dasharray="16,0" stroke-width="0.5" stroke-linecap="butt" stroke="#262626" fill="none"/>
   <polyline stroke-linejoin="miter" points="272.765,114.451 274.438,114.451" stroke-width="0.5" stroke-linecap="butt" stroke="#262626" fill="none"/>
   <polyline stroke-linejoin="miter" points="439.937,114.451 438.264,114.451" stroke-width="0.5" stroke-linecap="butt" stroke="#262626" fill="none"/>
   <polyline stroke-linejoin="miter" points="272.765,99.5298 274.438,99.5298" stroke-width="0.5" stroke-linecap="butt" stroke="#262626" fill="none"/>
   <polyline stroke-linejoin="miter" points="439.937,99.5298 438.264,99.5298" stroke-width="0.5" stroke-linecap="butt" stroke="#262626" fill="none"/>
   <polyline stroke-linejoin="miter" points="272.765,84.6079 274.438,84.6079" stroke-width="0.5" stroke-linecap="butt" stroke="#262626" fill="none"/>
   <polyline stroke-linejoin="miter" points="439.937,84.6079 438.264,84.6079" stroke-width="0.5" stroke-linecap="butt" stroke="#262626" fill="none"/>
   <polyline stroke-linejoin="miter" points="272.765,69.6865 274.438,69.6865" stroke-width="0.5" stroke-linecap="butt" stroke="#262626" fill="none"/>
   <polyline stroke-linejoin="miter" points="439.937,69.6865 438.264,69.6865" stroke-width="0.5" stroke-linecap="butt" stroke="#262626" fill="none"/>
   <polyline stroke-linejoin="miter" points="272.765,54.7646 274.438,54.7646" stroke-width="0.5" stroke-linecap="butt" stroke="#262626" fill="none"/>
   <polyline stroke-linejoin="miter" points="439.937,54.7646 438.264,54.7646" stroke-width="0.5" stroke-linecap="butt" stroke="#262626" fill="none"/>
   <polyline stroke-linejoin="miter" points="272.765,39.8433 274.438,39.8433" stroke-width="0.5" stroke-linecap="butt" stroke="#262626" fill="none"/>
   <polyline stroke-linejoin="miter" points="439.937,39.8433 438.264,39.8433" stroke-width="0.5" stroke-linecap="butt" stroke="#262626" fill="none"/>
   <polyline stroke-linejoin="miter" points="272.765,24.9214 274.438,24.9214" stroke-width="0.5" stroke-linecap="butt" stroke="#262626" fill="none"/>
   <polyline stroke-linejoin="miter" points="439.937,24.9214 438.264,24.9214" stroke-width="0.5" stroke-linecap="butt" stroke="#262626" fill="none"/>
   <polyline stroke-linejoin="miter" points="272.765,10 274.438,10" stroke-width="0.5" stroke-linecap="butt" stroke="#262626" fill="none"/>
   <polyline stroke-linejoin="miter" points="439.937,10 438.264,10" stroke-width="0.5" stroke-linecap="butt" stroke="#262626" fill="none"/>
   <g font-family="'Latin Modern Roman'" font-size="11" transform="translate(242.259,118.951) rotate(-0,25,-4.5)" font-style="normal" font-weight="normal" xml:space="preserve">
    <text x="0 4 10 13 19 " y="-0" fill="rgb(38,38,38)">-0.14</text>
   </g>
   <g font-family="'Latin Modern Roman'" font-size="11" transform="translate(242.259,104.03) rotate(-0,25,-4.5)" font-style="normal" font-weight="normal" xml:space="preserve">
    <text x="0 4 10 13 19 " y="-0" fill="rgb(38,38,38)">-0.12</text>
   </g>
   <g font-family="'Latin Modern Roman'" font-size="11" transform="translate(248.259,89.1081) rotate(-0,19,-4.5)" font-style="normal" font-weight="normal" xml:space="preserve">
    <text x="0 4 10 13 " y="-0" fill="rgb(38,38,38)">-0.1</text>
   </g>
   <g font-family="'Latin Modern Roman'" font-size="11" transform="translate(242.259,74.1864) rotate(-0,25,-4.5)" font-style="normal" font-weight="normal" xml:space="preserve">
    <text x="0 4 10 13 19 " y="-0" fill="rgb(38,38,38)">-0.08</text>
   </g>
   <g font-family="'Latin Modern Roman'" font-size="11" transform="translate(242.259,59.2648) rotate(-0,25,-4.5)" font-style="normal" font-weight="normal" xml:space="preserve">
    <text x="0 4 10 13 19 " y="-0" fill="rgb(38,38,38)">-0.06</text>
   </g>
   <g font-family="'Latin Modern Roman'" font-size="11" transform="translate(242.259,44.3432) rotate(-0,25,-4.5)" font-style="normal" font-weight="normal" xml:space="preserve">
    <text x="0 4 10 13 19 " y="-0" fill="rgb(38,38,38)">-0.04</text>
   </g>
   <g font-family="'Latin Modern Roman'" font-size="11" transform="translate(242.259,29.4216) rotate(-0,25,-4.5)" font-style="normal" font-weight="normal" xml:space="preserve">
    <text x="0 4 10 13 19 " y="-0" fill="rgb(38,38,38)">-0.02</text>
   </g>
   <g font-family="'Latin Modern Roman'" font-size="11" transform="translate(261.259,14.5) rotate(-0,6,-4.5)" font-style="normal" font-weight="normal" xml:space="preserve">
    <text x="0 " y="-0" fill="rgb(38,38,38)">0</text>
   </g>
   <polyline stroke-linejoin="miter" points="272.765,121.912 439.937,121.912" stroke-dasharray="16,0" stroke-width="0.5" stroke-linecap="square" stroke="#262626" fill="none"/>
   <polyline stroke-linejoin="miter" points="272.765,10 439.937,10" stroke-dasharray="16,0" stroke-width="0.5" stroke-linecap="square" stroke="#262626" fill="none"/>
   <polyline stroke-linejoin="miter" points="272.765,121.912 272.765,10" stroke-dasharray="16,0" stroke-width="0.5" stroke-linecap="square" stroke="#262626" fill="none"/>
   <polyline stroke-linejoin="miter" points="439.937,121.912 439.937,10" stroke-dasharray="16,0" stroke-width="0.5" stroke-linecap="square" stroke="#262626" fill="none"/>
   <g font-family="'Latin Modern Roman'" font-size="12.1" transform="translate(287.851,160.156) rotate(-0,68.5,-13)" font-style="normal" font-weight="normal" xml:space="preserve">
    <text x="0 9 14 19 24 29 35 40 43 46 55 61 66 71 75 80 86 92 99 105 109 116 119 123 132 " y="-3" fill="rgb(38,38,38)">Częstotliwość sygnału, Hz</text>
   </g>
   <g font-family="'Latin Modern Roman'" font-size="12.1" transform="translate(173.759,65.956) rotate(-90,63.5,0)" font-style="normal" font-weight="normal" xml:space="preserve">
    <text x="0 8 13 18 23 28 35 42 45 50 55 58 63 67 71 77 82 88 97 102 105 109 114 120 " y="-3" fill="rgb(38,38,38)">Przesunięcie fazowe, rad</text>
   </g>
   <polyline stroke-linejoin="miter" points="269.765,7.1499 275.765,13.1499" stroke-width="0.5" stroke-linecap="square" stroke="#0071bc" fill="none"/>
   <polyline stroke-linejoin="miter" points="269.765,13.1499 275.765,7.1499" stroke-width="0.5" stroke-linecap="square" stroke="#0071bc" fill="none"/>
   <polyline stroke-linejoin="miter" points="288.41,7.2998 294.41,13.2998" stroke-width="0.5" stroke-linecap="square" stroke="#0071bc" fill="none"/>
   <polyline stroke-linejoin="miter" points="288.41,13.2998 294.41,7.2998" stroke-width="0.5" stroke-linecap="square" stroke="#0071bc" fill="none"/>
   <polyline stroke-linejoin="miter" points="299.317,7.4502 305.317,13.4502" stroke-width="0.5" stroke-linecap="square" stroke="#0071bc" fill="none"/>
   <polyline stroke-linejoin="miter" points="299.317,13.4502 305.317,7.4502" stroke-width="0.5" stroke-linecap="square" stroke="#0071bc" fill="none"/>
   <polyline stroke-linejoin="miter" points="307.056,7.6001 313.056,13.6001" stroke-width="0.5" stroke-linecap="square" stroke="#0071bc" fill="none"/>
   <polyline stroke-linejoin="miter" points="307.056,13.6001 313.056,7.6001" stroke-width="0.5" stroke-linecap="square" stroke="#0071bc" fill="none"/>
   <polyline stroke-linejoin="miter" points="313.059,7.75 319.059,13.75" stroke-width="0.5" stroke-linecap="square" stroke="#0071bc" fill="none"/>
   <polyline stroke-linejoin="miter" points="313.059,13.75 319.059,7.75" stroke-width="0.5" stroke-linecap="square" stroke="#0071bc" fill="none"/>
   <polyline stroke-linejoin="miter" points="317.963,7.95654 323.963,13.9565" stroke-width="0.5" stroke-linecap="square" stroke="#0071bc" fill="none"/>
   <polyline stroke-linejoin="miter" points="317.963,13.9565 323.963,7.95654" stroke-width="0.5" stroke-linecap="square" stroke="#0071bc" fill="none"/>
   <polyline stroke-linejoin="miter" points="322.109,8.11572 328.109,14.1157" stroke-width="0.5" stroke-linecap="square" stroke="#0071bc" fill="none"/>
   <polyline stroke-linejoin="miter" points="322.109,14.1157 328.109,8.11572" stroke-width="0.5" stroke-linecap="square" stroke="#0071bc" fill="none"/>
   <polyline stroke-linejoin="miter" points="325.701,8.3501 331.702,14.3501" stroke-width="0.5" stroke-linecap="square" stroke="#0071bc" fill="none"/>
   <polyline stroke-linejoin="miter" points="325.701,14.3501 331.702,8.3501" stroke-width="0.5" stroke-linecap="square" stroke="#0071bc" fill="none"/>
   <polyline stroke-linejoin="miter" points="328.87,8.51904 334.87,14.519" stroke-width="0.5" stroke-linecap="square" stroke="#0071bc" fill="none"/>
   <polyline stroke-linejoin="miter" points="328.87,14.519 334.87,8.51904" stroke-width="0.5" stroke-linecap="square" stroke="#0071bc" fill="none"/>
   <polyline stroke-linejoin="miter" points="331.704,8.78125 337.704,14.7812" stroke-width="0.5" stroke-linecap="square" stroke="#0071bc" fill="none"/>
   <polyline stroke-linejoin="miter" points="331.704,14.7812 337.704,8.78125" stroke-width="0.5" stroke-linecap="square" stroke="#0071bc" fill="none"/>
   <polyline stroke-linejoin="miter" points="350.35,10.5625 356.35,16.5625" stroke-width="0.5" stroke-linecap="square" stroke="#0071bc" fill="none"/>
   <polyline stroke-linejoin="miter" points="350.35,16.5625 356.35,10.5625" stroke-width="0.5" stroke-linecap="square" stroke="#0071bc" fill="none"/>
   <polyline stroke-linejoin="miter" points="361.256,12.6255 367.256,18.6255" stroke-width="0.5" stroke-linecap="square" stroke="#0071bc" fill="none"/>
   <polyline stroke-linejoin="miter" points="361.256,18.6255 367.256,12.6255" stroke-width="0.5" stroke-linecap="square" stroke="#0071bc" fill="none"/>
   <polyline stroke-linejoin="miter" points="368.995,14.5005 374.995,20.5005" stroke-width="0.5" stroke-linecap="square" stroke="#0071bc" fill="none"/>
   <polyline stroke-linejoin="miter" points="368.995,20.5005 374.995,14.5005" stroke-width="0.5" stroke-linecap="square" stroke="#0071bc" fill="none"/>
   <polyline stroke-linejoin="miter" points="374.998,16.3755 380.998,22.3755" stroke-width="0.5" stroke-linecap="square" stroke="#0071bc" fill="none"/>
   <polyline stroke-linejoin="miter" points="374.998,22.3755 380.998,16.3755" stroke-width="0.5" stroke-linecap="square" stroke="#0071bc" fill="none"/>
   <polyline stroke-linejoin="miter" points="379.902,18.2505 385.902,24.2505" stroke-width="0.5" stroke-linecap="square" stroke="#0071bc" fill="none"/>
   <polyline stroke-linejoin="miter" points="379.902,24.2505 385.902,18.2505" stroke-width="0.5" stroke-linecap="square" stroke="#0071bc" fill="none"/>
   <polyline stroke-linejoin="miter" points="384.049,20.1255 390.049,26.1255" stroke-width="0.5" stroke-linecap="square" stroke="#0071bc" fill="none"/>
   <polyline stroke-linejoin="miter" points="384.049,26.1255 390.049,20.1255" stroke-width="0.5" stroke-linecap="square" stroke="#0071bc" fill="none"/>
   <polyline stroke-linejoin="miter" points="387.641,22.751 393.641,28.751" stroke-width="0.5" stroke-linecap="square" stroke="#0071bc" fill="none"/>
   <polyline stroke-linejoin="miter" points="387.641,28.751 393.641,22.751" stroke-width="0.5" stroke-linecap="square" stroke="#0071bc" fill="none"/>
   <polyline stroke-linejoin="miter" points="390.809,24.7197 396.809,30.7197" stroke-width="0.5" stroke-linecap="square" stroke="#0071bc" fill="none"/>
   <polyline stroke-linejoin="miter" points="390.809,30.7197 396.809,24.7197" stroke-width="0.5" stroke-linecap="square" stroke="#0071bc" fill="none"/>
   <polyline stroke-linejoin="miter" points="393.643,26.6885 399.643,32.6885" stroke-width="0.5" stroke-linecap="square" stroke="#0071bc" fill="none"/>
   <polyline stroke-linejoin="miter" points="393.643,32.6885 399.643,26.6885" stroke-width="0.5" stroke-linecap="square" stroke="#0071bc" fill="none"/>
   <polyline stroke-linejoin="miter" points="412.289,46.3774 418.289,52.3774" stroke-width="0.5" stroke-linecap="square" stroke="#0071bc" fill="none"/>
   <polyline stroke-linejoin="miter" points="412.289,52.3774 418.289,46.3774" stroke-width="0.5" stroke-linecap="square" stroke="#0071bc" fill="none"/>
   <polyline stroke-linejoin="miter" points="423.196,66.0659 429.196,72.0659" stroke-width="0.5" stroke-linecap="square" stroke="#0071bc" fill="none"/>
   <polyline stroke-linejoin="miter" points="423.196,72.0659 429.196,66.0659" stroke-width="0.5" stroke-linecap="square" stroke="#0071bc" fill="none"/>
   <polyline stroke-linejoin="miter" points="430.935,85.7544 436.935,91.7544" stroke-width="0.5" stroke-linecap="square" stroke="#0071bc" fill="none"/>
   <polyline stroke-linejoin="miter" points="430.935,91.7544 436.935,85.7544" stroke-width="0.5" stroke-linecap="square" stroke="#0071bc" fill="none"/>
   <polyline stroke-linejoin="miter" points="436.937,110.131 442.937,116.131" stroke-width="0.5" stroke-linecap="square" stroke="#0071bc" fill="none"/>
   <polyline stroke-linejoin="miter" points="436.937,116.131 442.937,110.131" stroke-width="0.5" stroke-linecap="square" stroke="#0071bc" fill="none"/>
   <polyline stroke-linejoin="round" points="272.765,10.2681 276.176,10.3042 279.588,10.3452 283,10.3921 286.411,10.4448 289.823,10.5049 293.235,10.5732 296.646,10.6509 300.058,10.7388 303.47,10.8389 306.881,10.9521 310.293,11.0811 313.705,11.2271 317.117,11.3931 320.528,11.5815 323.94,11.7954 327.352,12.0381 330.763,12.3135 334.175,12.6265 337.586,12.9819 340.998,13.3848 344.41,13.8428 347.822,14.3623 351.233,14.9521 354.645,15.6216 358.057,16.3818 361.468,17.2446 364.88,18.2241 368.292,19.3364 371.704,20.5986 375.115,22.0317 378.527,23.6582 381.938,25.5044 385.35,27.6001 388.762,29.979 392.173,32.6792 395.585,35.7437 398.997,39.2217 402.409,43.168 405.82,47.646 409.232,52.7261 412.644,58.4883 416.055,65.0229 419.467,72.4302 422.878,80.8247 426.29,90.3325 429.702,101.094 433.114,113.264 435.287,122.024" stroke-width="0.5" stroke-linecap="butt" stroke="#d85218" fill="none"/>
   <polyline stroke-linejoin="round" points="272.765,10.1934 276.176,10.2197 279.588,10.249 283,10.2827 286.411,10.3213 289.823,10.3647 293.235,10.4141 296.646,10.4697 300.058,10.5337 303.47,10.6055 306.881,10.6875 310.293,10.7808 313.705,10.8862 317.117,11.0063 320.528,11.1421 323.94,11.2969 327.352,11.4722 330.763,11.6714 334.175,11.8979 337.586,12.1548 340.998,12.4463 344.41,12.7773 347.822,13.1538 351.233,13.5811 354.645,14.0659 358.057,14.6172 361.468,15.2427 364.88,15.9536 368.292,16.7612 371.704,17.6792 375.115,18.7217 378.527,19.9062 381.938,21.2529 385.35,22.7837 388.762,24.5244 392.173,26.5034 395.585,28.7544 398.997,31.3154 402.409,34.23 405.82,37.5483 409.232,41.3267 412.644,45.6318 416.055,50.5396 419.467,56.1362 422.878,62.5225 426.29,69.8154 429.702,78.1494 433.114,87.6816 436.525,98.5938 439.937,111.1" stroke-width="0.5" stroke-linecap="butt" stroke="#ecb01f" fill="none"/>
  </g>
  <clipPath id="cp00453160">
   <polygon points="0,160 453,160 453,0 0,0"/>
  </clipPath>
  <g clip-path="url(#cp00453160)">
   <polygon points="280.553,114.124 355.708,114.124 355.708,84.4492 280.553,84.4492" fill="#ffffff" shape-rendering="crispEdges"/>
   <polyline stroke-linejoin="miter" points="280.553,114.124 355.708,114.124" stroke-dasharray="16,0" stroke-width="0.5" stroke-linecap="square" stroke="#262626" fill="none"/>
   <polyline stroke-linejoin="miter" points="280.553,84.4492 355.708,84.4492" stroke-dasharray="16,0" stroke-width="0.5" stroke-linecap="square" stroke="#262626" fill="none"/>
   <polyline stroke-linejoin="miter" points="280.553,114.124 280.553,84.4492" stroke-dasharray="16,0" stroke-width="0.5" stroke-linecap="square" stroke="#262626" fill="none"/>
   <polyline stroke-linejoin="miter" points="355.708,114.124 355.708,84.4492" stroke-dasharray="16,0" stroke-width="0.5" stroke-linecap="square" stroke="#262626" fill="none"/>
   <polyline stroke-linejoin="round" points="284.447,92.8413 303.919,92.8413" stroke-width="0.5" stroke-linecap="butt" stroke="#d85218" fill="none"/>
   <g font-family="'Latin Modern Roman'" font-size="9.9" transform="translate(307.813,96.8413) rotate(-0,-0,-4)" font-style="normal" font-weight="normal" xml:space="preserve">
    <text x="0 9 14 20 24 27 30 34 39 " y="-0" fill="rgb(0,0,0)">Model "a"</text>
   </g>
   <polyline stroke-linejoin="round" points="284.447,105.731 303.919,105.731" stroke-width="0.5" stroke-linecap="butt" stroke="#ecb01f" fill="none"/>
   <g font-family="'Latin Modern Roman'" font-size="9.9" transform="translate(307.813,109.731) rotate(-0,-0,-4)" font-style="normal" font-weight="normal" xml:space="preserve">
    <text x="0 9 14 20 24 27 30 34 40 " y="-0" fill="rgb(0,0,0)">Model "b"</text>
   </g>
  </g>
 </g>
</svg>
