<?xml version='1.0' encoding='UTF-8' standalone='no'?>
<svg height="213pt" viewBox="0 0 453 213" xmlns:xlink="http://www.w3.org/1999/xlink" xmlns="http://www.w3.org/2000/svg" width="453pt">
 <title>Figure 2</title>
 <desc>
Creator: GL2PS 1.4.2, (C) 1999-2020 C. Geuzaine
For: Octave
CreationDate: Mon Jul 31 16:26:11 2023
</desc>
 <defs/>
 <polygon fill="#ffffff" points="0,0 453,0 453,213 0,213"/>
 <g>
  <polygon fill="#ffffff" shape-rendering="crispEdges" points="0,213 453,213 453,0 0,0"/>
  <clipPath id="cp00453213">
   <polygon points="0,213 453,213 453,0 0,0"/>
  </clipPath>
  <g clip-path="url(#cp00453213)">
   <polygon fill="#ffffff" shape-rendering="crispEdges" points="38.5513,175.076 410.457,175.076 410.457,8.5415 38.5513,8.5415"/>
   <polyline fill="none" stroke="#262626" stroke-linecap="butt" stroke-linejoin="miter" stroke-dasharray="16,0" stroke-opacity="0.15" stroke-width="0.5" points="38.5513,175.076 38.5513,8.5415"/>
   <polyline fill="none" stroke="#262626" stroke-linecap="butt" stroke-linejoin="miter" stroke-dasharray="16,0" stroke-opacity="0.15" stroke-width="0.5" points="127.1,175.076 127.1,8.5415"/>
   <polyline fill="none" stroke="#262626" stroke-linecap="butt" stroke-linejoin="miter" stroke-dasharray="16,0" stroke-opacity="0.15" stroke-width="0.5" points="215.649,175.076 215.649,8.5415"/>
   <polyline fill="none" stroke="#262626" stroke-linecap="butt" stroke-linejoin="miter" stroke-dasharray="16,0" stroke-opacity="0.15" stroke-width="0.5" points="304.198,175.076 304.198,8.5415"/>
   <polyline fill="none" stroke="#262626" stroke-linecap="butt" stroke-linejoin="miter" stroke-dasharray="16,0" stroke-opacity="0.15" stroke-width="0.5" points="392.747,175.076 392.747,8.5415"/>
   <polyline fill="none" stroke="#262626" stroke-linecap="butt" stroke-linejoin="miter" stroke-width="0.5" points="38.5513,175.076 38.5513,171.367"/>
   <polyline fill="none" stroke="#262626" stroke-linecap="butt" stroke-linejoin="miter" stroke-width="0.5" points="38.5513,8.5415 38.5513,12.2505"/>
   <polyline fill="none" stroke="#262626" stroke-linecap="butt" stroke-linejoin="miter" stroke-width="0.5" points="127.1,175.076 127.1,171.367"/>
   <polyline fill="none" stroke="#262626" stroke-linecap="butt" stroke-linejoin="miter" stroke-width="0.5" points="127.1,8.5415 127.1,12.2505"/>
   <polyline fill="none" stroke="#262626" stroke-linecap="butt" stroke-linejoin="miter" stroke-width="0.5" points="215.649,175.076 215.649,171.367"/>
   <polyline fill="none" stroke="#262626" stroke-linecap="butt" stroke-linejoin="miter" stroke-width="0.5" points="215.649,8.5415 215.649,12.2505"/>
   <polyline fill="none" stroke="#262626" stroke-linecap="butt" stroke-linejoin="miter" stroke-width="0.5" points="304.198,175.076 304.198,171.367"/>
   <polyline fill="none" stroke="#262626" stroke-linecap="butt" stroke-linejoin="miter" stroke-width="0.5" points="304.198,8.5415 304.198,12.2505"/>
   <polyline fill="none" stroke="#262626" stroke-linecap="butt" stroke-linejoin="miter" stroke-width="0.5" points="392.747,175.076 392.747,171.367"/>
   <polyline fill="none" stroke="#262626" stroke-linecap="butt" stroke-linejoin="miter" stroke-width="0.5" points="392.747,8.5415 392.747,12.2505"/>
   <g transform="translate(35.5512,192.303) rotate(-0,3,-9)" font-family="'Latin Modern Roman'" font-size="11" xml:space="preserve" font-weight="normal" font-style="normal">
    <text y="-0" fill="rgb(38,38,38)" x="0 ">0</text>
   </g>
   <g transform="translate(115.1,192.303) rotate(-0,12,-9)" font-family="'Latin Modern Roman'" font-size="11" xml:space="preserve" font-weight="normal" font-style="normal">
    <text y="-0" fill="rgb(38,38,38)" x="0 6 12 18 ">5000</text>
   </g>
   <g transform="translate(200.649,192.303) rotate(-0,15,-9)" font-family="'Latin Modern Roman'" font-size="11" xml:space="preserve" font-weight="normal" font-style="normal">
    <text y="-0" fill="rgb(38,38,38)" x="0 6 12 18 24 ">10000</text>
   </g>
   <g transform="translate(289.198,192.303) rotate(-0,15,-9)" font-family="'Latin Modern Roman'" font-size="11" xml:space="preserve" font-weight="normal" font-style="normal">
    <text y="-0" fill="rgb(38,38,38)" x="0 6 12 18 24 ">15000</text>
   </g>
   <g transform="translate(377.747,192.303) rotate(-0,15,-9)" font-family="'Latin Modern Roman'" font-size="11" xml:space="preserve" font-weight="normal" font-style="normal">
    <text y="-0" fill="rgb(38,38,38)" x="0 6 12 18 24 ">20000</text>
   </g>
   <polyline fill="none" stroke="#000000" stroke-linecap="butt" stroke-linejoin="miter" stroke-dasharray="16,0" stroke-opacity="0.15" stroke-width="0.5" points="38.5513,175.076 410.457,175.076"/>
   <polyline fill="none" stroke="#000000" stroke-linecap="butt" stroke-linejoin="miter" stroke-dasharray="16,0" stroke-opacity="0.15" stroke-width="0.5" points="38.5513,133.442 410.457,133.442"/>
   <polyline fill="none" stroke="#000000" stroke-linecap="butt" stroke-linejoin="miter" stroke-dasharray="16,0" stroke-opacity="0.15" stroke-width="0.5" points="38.5513,91.8086 410.457,91.8086"/>
   <polyline fill="none" stroke="#000000" stroke-linecap="butt" stroke-linejoin="miter" stroke-dasharray="16,0" stroke-opacity="0.15" stroke-width="0.5" points="38.5513,50.1753 410.457,50.1753"/>
   <polyline fill="none" stroke="#000000" stroke-linecap="butt" stroke-linejoin="miter" stroke-dasharray="16,0" stroke-opacity="0.15" stroke-width="0.5" points="38.5513,8.5415 410.457,8.5415"/>
   <polyline fill="none" stroke="#000000" stroke-linecap="butt" stroke-linejoin="miter" stroke-width="0.5" points="38.5513,175.076 42.2695,175.076"/>
   <polyline fill="none" stroke="#000000" stroke-linecap="butt" stroke-linejoin="miter" stroke-width="0.5" points="38.5513,133.442 42.2695,133.442"/>
   <polyline fill="none" stroke="#000000" stroke-linecap="butt" stroke-linejoin="miter" stroke-width="0.5" points="38.5513,91.8086 42.2695,91.8086"/>
   <polyline fill="none" stroke="#000000" stroke-linecap="butt" stroke-linejoin="miter" stroke-width="0.5" points="38.5513,50.1753 42.2695,50.1753"/>
   <polyline fill="none" stroke="#000000" stroke-linecap="butt" stroke-linejoin="miter" stroke-width="0.5" points="38.5513,8.5415 42.2695,8.5415"/>
   <g transform="translate(27.0526,179.576) rotate(-0,6,-4.5)" font-family="'Latin Modern Roman'" font-size="11" xml:space="preserve" font-weight="normal" font-style="normal">
    <text y="-0" fill="rgb(0,0,0)" x="0 ">0</text>
   </g>
   <g transform="translate(27.0526,137.942) rotate(-0,6,-4.5)" font-family="'Latin Modern Roman'" font-size="11" xml:space="preserve" font-weight="normal" font-style="normal">
    <text y="-0" fill="rgb(0,0,0)" x="0 ">2</text>
   </g>
   <g transform="translate(27.0526,96.3088) rotate(-0,6,-4.5)" font-family="'Latin Modern Roman'" font-size="11" xml:space="preserve" font-weight="normal" font-style="normal">
    <text y="-0" fill="rgb(0,0,0)" x="0 ">4</text>
   </g>
   <g transform="translate(27.0526,54.6753) rotate(-0,6,-4.5)" font-family="'Latin Modern Roman'" font-size="11" xml:space="preserve" font-weight="normal" font-style="normal">
    <text y="-0" fill="rgb(0,0,0)" x="0 ">6</text>
   </g>
   <g transform="translate(27.0526,13.0417) rotate(-0,6,-4.5)" font-family="'Latin Modern Roman'" font-size="11" xml:space="preserve" font-weight="normal" font-style="normal">
    <text y="-0" fill="rgb(0,0,0)" x="0 ">8</text>
   </g>
   <polyline fill="none" stroke="#262626" stroke-linecap="square" stroke-linejoin="miter" stroke-dasharray="16,0" stroke-width="0.5" points="38.5513,175.076 410.457,175.076"/>
   <polyline fill="none" stroke="#262626" stroke-linecap="square" stroke-linejoin="miter" stroke-dasharray="16,0" stroke-width="0.5" points="38.5513,8.5415 410.457,8.5415"/>
   <polyline fill="none" stroke="#000000" stroke-linecap="square" stroke-linejoin="miter" stroke-dasharray="16,0" stroke-width="0.5" points="38.5513,175.076 38.5513,8.5415"/>
   <g transform="translate(-50.4474,91.8088) rotate(-90,72.5,0)" font-family="'Latin Modern Roman'" font-size="12.1" xml:space="preserve" font-weight="normal" font-style="normal">
    <text y="-3" fill="rgb(0,0,0)" x="0 12 18 23 28 34 39 44 48 57 62 72 78 83 90 93 98 105 108 114 117 121 130 136 ">Wartość wzmocnienia, V/V</text>
   </g>
   <g transform="translate(178.504,210.303) rotate(-0,46,-13)" font-family="'Latin Modern Roman'" font-size="12.1" xml:space="preserve" font-weight="normal" font-style="normal">
    <text y="-3" fill="rgb(38,38,38)" x="0 9 14 19 24 29 35 40 43 46 55 61 66 71 74 78 87 ">Częstotliwość, Hz</text>
   </g>
   <polyline fill="none" stroke="#0071bc" stroke-linecap="butt" stroke-linejoin="round" stroke-width="0.5" points="38.5513,175.076 41.4795,175.076 44.4082,175.073 47.3364,175.059 50.2646,175.023 53.1934,174.947 56.1216,174.809 59.0498,174.581 61.9785,174.233 64.9067,173.728 67.835,173.024 70.7637,172.078 73.6919,170.838 76.6201,169.253 79.5488,167.267 82.4771,164.82 85.4053,161.855 88.334,158.312 91.2622,154.136 94.1904,149.279 97.1191,143.701 100.047,137.375 102.976,130.292 105.904,122.469 108.833,113.946 111.761,104.797 114.689,95.1284 117.618,85.0854 120.546,74.8477 123.475,64.6309 126.403,54.6782 129.331,45.2573 132.26,36.6479 135.188,29.1309 138.116,22.9746 141.045,18.4209 143.973,15.6709 146.901,14.8716 149.83,16.106 152.758,19.3828 155.687,24.6362 158.615,31.7222 161.543,40.4282 164.472,50.479 167.4,61.5542 170.329,73.3022 173.257,85.3608 176.186,97.376 179.114,109.02 182.042,120.008 184.971,130.11 187.899,139.16 190.828,147.055 193.756,153.759 196.684,159.295 199.613,163.733 202.541,167.183 205.469,169.774 208.398,171.653 211.326,172.961 214.254,173.833 217.183,174.386 220.111,174.717 223.04,174.904 225.968,175 228.896,175.046 231.825,175.066 234.753,175.073 237.682,175.075 240.61,175.076 243.539,175.076 246.467,175.076 249.395,175.076 252.324,175.076 255.252,175.076 258.181,175.076 261.109,175.076 264.037,175.075 266.966,175.074 269.894,175.068 272.822,175.052 275.751,175.015 278.679,174.935 281.607,174.782 284.536,174.511 287.464,174.063 290.393,173.365 293.321,172.331 296.25,170.87 299.178,168.891 302.106,166.315 305.035,163.083 307.963,159.166 310.892,154.576 313.82,149.373 316.748,143.663 319.677,137.601 322.605,131.386 325.533,125.244 328.462,119.42 331.39,114.16 334.318,109.694 337.247,106.218 340.175,103.881 343.104,102.778 346.032,102.94 348.96,104.335 351.889,106.874 354.817,110.417 357.746,114.785 360.674,119.777 363.603,125.179 366.531,130.781 369.459,136.39 372.388,141.834 375.316,146.977 378.245,151.711 381.173,155.969 384.101,159.712 387.03,162.933 389.958,165.646 392.886,167.884 395.815,169.692 398.743,171.124 401.671,172.233 404.6,173.075 407.528,173.7 410.457,174.152"/>
  </g>
  <clipPath id="cp00453213">
   <polygon points="0,213 453,213 453,0 0,0"/>
  </clipPath>
  <g clip-path="url(#cp00453213)">
   <polyline fill="none" stroke="#262626" stroke-linecap="butt" stroke-linejoin="miter" stroke-width="0.5" points="38.5513,175.076 38.5513,171.367"/>
   <polyline fill="none" stroke="#262626" stroke-linecap="butt" stroke-linejoin="miter" stroke-width="0.5" points="127.1,175.076 127.1,171.367"/>
   <polyline fill="none" stroke="#262626" stroke-linecap="butt" stroke-linejoin="miter" stroke-width="0.5" points="215.649,175.076 215.649,171.367"/>
   <polyline fill="none" stroke="#262626" stroke-linecap="butt" stroke-linejoin="miter" stroke-width="0.5" points="304.198,175.076 304.198,171.367"/>
   <polyline fill="none" stroke="#262626" stroke-linecap="butt" stroke-linejoin="miter" stroke-width="0.5" points="392.747,175.076 392.747,171.367"/>
   <g transform="translate(35.5512,192.303) rotate(-0,3,-9)" font-family="'Latin Modern Roman'" font-size="11" xml:space="preserve" font-weight="normal" font-style="normal">
    <text y="-0" fill="rgb(38,38,38)" x="0 ">0</text>
   </g>
   <g transform="translate(115.1,192.303) rotate(-0,12,-9)" font-family="'Latin Modern Roman'" font-size="11" xml:space="preserve" font-weight="normal" font-style="normal">
    <text y="-0" fill="rgb(38,38,38)" x="0 6 12 18 ">5000</text>
   </g>
   <g transform="translate(200.649,192.303) rotate(-0,15,-9)" font-family="'Latin Modern Roman'" font-size="11" xml:space="preserve" font-weight="normal" font-style="normal">
    <text y="-0" fill="rgb(38,38,38)" x="0 6 12 18 24 ">10000</text>
   </g>
   <g transform="translate(289.198,192.303) rotate(-0,15,-9)" font-family="'Latin Modern Roman'" font-size="11" xml:space="preserve" font-weight="normal" font-style="normal">
    <text y="-0" fill="rgb(38,38,38)" x="0 6 12 18 24 ">15000</text>
   </g>
   <g transform="translate(377.747,192.303) rotate(-0,15,-9)" font-family="'Latin Modern Roman'" font-size="11" xml:space="preserve" font-weight="normal" font-style="normal">
    <text y="-0" fill="rgb(38,38,38)" x="0 6 12 18 24 ">20000</text>
   </g>
   <polyline fill="none" stroke="#000000" stroke-linecap="butt" stroke-linejoin="miter" stroke-width="0.5" points="410.457,175.076 406.739,175.076"/>
   <polyline fill="none" stroke="#000000" stroke-linecap="butt" stroke-linejoin="miter" stroke-width="0.5" points="410.457,141.769 406.739,141.769"/>
   <polyline fill="none" stroke="#000000" stroke-linecap="butt" stroke-linejoin="miter" stroke-width="0.5" points="410.457,108.462 406.739,108.462"/>
   <polyline fill="none" stroke="#000000" stroke-linecap="butt" stroke-linejoin="miter" stroke-width="0.5" points="410.457,75.1553 406.739,75.1553"/>
   <polyline fill="none" stroke="#000000" stroke-linecap="butt" stroke-linejoin="miter" stroke-width="0.5" points="410.457,41.8486 406.739,41.8486"/>
   <polyline fill="none" stroke="#000000" stroke-linecap="butt" stroke-linejoin="miter" stroke-width="0.5" points="410.457,8.5415 406.739,8.5415"/>
   <g transform="translate(415.955,179.576) rotate(-0,-0,-4.5)" font-family="'Latin Modern Roman'" font-size="11" xml:space="preserve" font-weight="normal" font-style="normal">
    <text y="-0" fill="rgb(0,0,0)" x="0 4 10 ">-80</text>
   </g>
   <g transform="translate(415.955,146.269) rotate(-0,-0,-4.5)" font-family="'Latin Modern Roman'" font-size="11" xml:space="preserve" font-weight="normal" font-style="normal">
    <text y="-0" fill="rgb(0,0,0)" x="0 4 10 ">-60</text>
   </g>
   <g transform="translate(415.955,112.962) rotate(-0,-0,-4.5)" font-family="'Latin Modern Roman'" font-size="11" xml:space="preserve" font-weight="normal" font-style="normal">
    <text y="-0" fill="rgb(0,0,0)" x="0 4 10 ">-40</text>
   </g>
   <g transform="translate(415.955,79.6554) rotate(-0,-0,-4.5)" font-family="'Latin Modern Roman'" font-size="11" xml:space="preserve" font-weight="normal" font-style="normal">
    <text y="-0" fill="rgb(0,0,0)" x="0 4 10 ">-20</text>
   </g>
   <g transform="translate(415.955,46.3486) rotate(-0,-0,-4.5)" font-family="'Latin Modern Roman'" font-size="11" xml:space="preserve" font-weight="normal" font-style="normal">
    <text y="-0" fill="rgb(0,0,0)" x="0 ">0</text>
   </g>
   <g transform="translate(415.955,13.0417) rotate(-0,-0,-4.5)" font-family="'Latin Modern Roman'" font-size="11" xml:space="preserve" font-weight="normal" font-style="normal">
    <text y="-0" fill="rgb(0,0,0)" x="0 6 ">20</text>
   </g>
   <polyline fill="none" stroke="#262626" stroke-linecap="square" stroke-linejoin="miter" stroke-dasharray="16,0" stroke-width="0.5" points="410.457,175.076 38.5513,175.076"/>
   <polyline fill="none" stroke="#000000" stroke-linecap="square" stroke-linejoin="miter" stroke-dasharray="16,0" stroke-width="0.5" points="410.457,175.076 410.457,8.5415"/>
   <g transform="translate(354.955,104.809) rotate(-90,82,-13)" font-family="'Latin Modern Roman'" font-size="12.1" xml:space="preserve" font-weight="normal" font-style="normal">
    <text y="-3" fill="rgb(0,0,0)" x="0 12 17 23 26 31 38 45 51 55 62 66 72 79 83 89 94 99 105 110 116 125 131 138 141 147 150 154 ">Względny błąd oszacowania, %</text>
   </g>
   <polyline fill="none" stroke="#d85218" stroke-linecap="square" stroke-linejoin="miter" stroke-width="0.5" points="37.3223,20.9497 43.3223,26.9502"/>
   <polyline fill="none" stroke="#d85218" stroke-linecap="square" stroke-linejoin="miter" stroke-width="0.5" points="37.3223,26.9502 43.3223,20.9497"/>
   <polyline fill="none" stroke="#d85218" stroke-linecap="square" stroke-linejoin="miter" stroke-width="0.5" points="39.0933,14.0044 45.0933,20.0044"/>
   <polyline fill="none" stroke="#d85218" stroke-linecap="square" stroke-linejoin="miter" stroke-width="0.5" points="39.0933,20.0044 45.0933,14.0044"/>
   <polyline fill="none" stroke="#d85218" stroke-linecap="square" stroke-linejoin="miter" stroke-width="0.5" points="40.8643,35.4883 46.8643,41.4883"/>
   <polyline fill="none" stroke="#d85218" stroke-linecap="square" stroke-linejoin="miter" stroke-width="0.5" points="40.8643,41.4883 46.8643,35.4883"/>
   <polyline fill="none" stroke="#d85218" stroke-linecap="square" stroke-linejoin="miter" stroke-width="0.5" points="42.6353,27.9033 48.6353,33.9033"/>
   <polyline fill="none" stroke="#d85218" stroke-linecap="square" stroke-linejoin="miter" stroke-width="0.5" points="42.6353,33.9033 48.6353,27.9033"/>
   <polyline fill="none" stroke="#d85218" stroke-linecap="square" stroke-linejoin="miter" stroke-width="0.5" points="44.4062,27.1021 50.4062,33.1021"/>
   <polyline fill="none" stroke="#d85218" stroke-linecap="square" stroke-linejoin="miter" stroke-width="0.5" points="44.4062,33.1021 50.4062,27.1021"/>
   <polyline fill="none" stroke="#d85218" stroke-linecap="square" stroke-linejoin="miter" stroke-width="0.5" points="46.1772,35.6865 52.1772,41.6865"/>
   <polyline fill="none" stroke="#d85218" stroke-linecap="square" stroke-linejoin="miter" stroke-width="0.5" points="46.1772,41.6865 52.1772,35.6865"/>
   <polyline fill="none" stroke="#d85218" stroke-linecap="square" stroke-linejoin="miter" stroke-width="0.5" points="47.9482,35.7036 53.9482,41.7036"/>
   <polyline fill="none" stroke="#d85218" stroke-linecap="square" stroke-linejoin="miter" stroke-width="0.5" points="47.9482,41.7036 53.9482,35.7036"/>
   <polyline fill="none" stroke="#d85218" stroke-linecap="square" stroke-linejoin="miter" stroke-width="0.5" points="49.7192,47.7119 55.7192,53.7119"/>
   <polyline fill="none" stroke="#d85218" stroke-linecap="square" stroke-linejoin="miter" stroke-width="0.5" points="49.7192,53.7119 55.7192,47.7119"/>
   <polyline fill="none" stroke="#d85218" stroke-linecap="square" stroke-linejoin="miter" stroke-width="0.5" points="51.4897,37.4268 57.4902,43.4268"/>
   <polyline fill="none" stroke="#d85218" stroke-linecap="square" stroke-linejoin="miter" stroke-width="0.5" points="51.4897,43.4268 57.4902,37.4268"/>
   <polyline fill="none" stroke="#d85218" stroke-linecap="square" stroke-linejoin="miter" stroke-width="0.5" points="53.2607,46.6538 59.2607,52.6538"/>
   <polyline fill="none" stroke="#d85218" stroke-linecap="square" stroke-linejoin="miter" stroke-width="0.5" points="53.2607,52.6538 59.2607,46.6538"/>
   <polyline fill="none" stroke="#d85218" stroke-linecap="square" stroke-linejoin="miter" stroke-width="0.5" points="70.9707,72.9263 76.9707,78.9263"/>
   <polyline fill="none" stroke="#d85218" stroke-linecap="square" stroke-linejoin="miter" stroke-width="0.5" points="70.9707,78.9263 76.9707,72.9263"/>
   <polyline fill="none" stroke="#d85218" stroke-linecap="square" stroke-linejoin="miter" stroke-width="0.5" points="88.6807,50.4097 94.6807,56.4097"/>
   <polyline fill="none" stroke="#d85218" stroke-linecap="square" stroke-linejoin="miter" stroke-width="0.5" points="88.6807,56.4097 94.6807,50.4097"/>
   <polyline fill="none" stroke="#d85218" stroke-linecap="square" stroke-linejoin="miter" stroke-width="0.5" points="106.39,28.9805 112.39,34.9805"/>
   <polyline fill="none" stroke="#d85218" stroke-linecap="square" stroke-linejoin="miter" stroke-width="0.5" points="106.39,34.9805 112.39,28.9805"/>
   <polyline fill="none" stroke="#d85218" stroke-linecap="square" stroke-linejoin="miter" stroke-width="0.5" points="124.1,40.8726 130.1,46.8726"/>
   <polyline fill="none" stroke="#d85218" stroke-linecap="square" stroke-linejoin="miter" stroke-width="0.5" points="124.1,46.8726 130.1,40.8726"/>
   <polyline fill="none" stroke="#d85218" stroke-linecap="square" stroke-linejoin="miter" stroke-width="0.5" points="141.81,35.2402 147.81,41.2402"/>
   <polyline fill="none" stroke="#d85218" stroke-linecap="square" stroke-linejoin="miter" stroke-width="0.5" points="141.81,41.2402 147.81,35.2402"/>
   <polyline fill="none" stroke="#d85218" stroke-linecap="square" stroke-linejoin="miter" stroke-width="0.5" points="159.52,28.6577 165.52,34.6577"/>
   <polyline fill="none" stroke="#d85218" stroke-linecap="square" stroke-linejoin="miter" stroke-width="0.5" points="159.52,34.6577 165.52,28.6577"/>
   <polyline fill="none" stroke="#d85218" stroke-linecap="square" stroke-linejoin="miter" stroke-width="0.5" points="177.229,43.7109 183.229,49.7109"/>
   <polyline fill="none" stroke="#d85218" stroke-linecap="square" stroke-linejoin="miter" stroke-width="0.5" points="177.229,49.7109 183.229,43.7109"/>
   <polyline fill="none" stroke="#d85218" stroke-linecap="square" stroke-linejoin="miter" stroke-width="0.5" points="194.939,56.252 200.939,62.252"/>
   <polyline fill="none" stroke="#d85218" stroke-linecap="square" stroke-linejoin="miter" stroke-width="0.5" points="194.939,62.252 200.939,56.252"/>
   <polyline fill="none" stroke="#d85218" stroke-linecap="square" stroke-linejoin="miter" stroke-width="0.5" points="212.649,100.344 218.649,106.344"/>
   <polyline fill="none" stroke="#d85218" stroke-linecap="square" stroke-linejoin="miter" stroke-width="0.5" points="212.649,106.344 218.649,100.344"/>
   <polyline fill="none" stroke="#d85218" stroke-linecap="square" stroke-linejoin="miter" stroke-width="0.5" points="230.359,111.338 236.359,117.338"/>
   <polyline fill="none" stroke="#d85218" stroke-linecap="square" stroke-linejoin="miter" stroke-width="0.5" points="230.359,117.338 236.359,111.338"/>
   <polyline fill="none" stroke="#d85218" stroke-linecap="square" stroke-linejoin="miter" stroke-width="0.5" points="248.069,24.9966 254.069,30.9966"/>
   <polyline fill="none" stroke="#d85218" stroke-linecap="square" stroke-linejoin="miter" stroke-width="0.5" points="248.069,30.9966 254.069,24.9966"/>
   <polyline fill="none" stroke="#d85218" stroke-linecap="square" stroke-linejoin="miter" stroke-width="0.5" points="265.778,122.641 271.778,128.641"/>
   <polyline fill="none" stroke="#d85218" stroke-linecap="square" stroke-linejoin="miter" stroke-width="0.5" points="265.778,128.641 271.778,122.641"/>
   <polyline fill="none" stroke="#d85218" stroke-linecap="square" stroke-linejoin="miter" stroke-width="0.5" points="283.488,86.9331 289.488,92.9331"/>
   <polyline fill="none" stroke="#d85218" stroke-linecap="square" stroke-linejoin="miter" stroke-width="0.5" points="283.488,92.9331 289.488,86.9331"/>
   <polyline fill="none" stroke="#d85218" stroke-linecap="square" stroke-linejoin="miter" stroke-width="0.5" points="301.198,61.0801 307.198,67.0801"/>
   <polyline fill="none" stroke="#d85218" stroke-linecap="square" stroke-linejoin="miter" stroke-width="0.5" points="301.198,67.0801 307.198,61.0801"/>
   <polyline fill="none" stroke="#d85218" stroke-linecap="square" stroke-linejoin="miter" stroke-width="0.5" points="318.908,48.916 324.908,54.916"/>
   <polyline fill="none" stroke="#d85218" stroke-linecap="square" stroke-linejoin="miter" stroke-width="0.5" points="318.908,54.916 324.908,48.916"/>
   <polyline fill="none" stroke="#d85218" stroke-linecap="square" stroke-linejoin="miter" stroke-width="0.5" points="336.618,38.8911 342.618,44.8911"/>
   <polyline fill="none" stroke="#d85218" stroke-linecap="square" stroke-linejoin="miter" stroke-width="0.5" points="336.618,44.8911 342.618,38.8911"/>
   <polyline fill="none" stroke="#d85218" stroke-linecap="square" stroke-linejoin="miter" stroke-width="0.5" points="354.327,34.1406 360.327,40.1406"/>
   <polyline fill="none" stroke="#d85218" stroke-linecap="square" stroke-linejoin="miter" stroke-width="0.5" points="354.327,40.1406 360.327,34.1406"/>
   <polyline fill="none" stroke="#d85218" stroke-linecap="square" stroke-linejoin="miter" stroke-width="0.5" points="372.037,50.9673 378.037,56.9673"/>
   <polyline fill="none" stroke="#d85218" stroke-linecap="square" stroke-linejoin="miter" stroke-width="0.5" points="372.037,56.9673 378.037,50.9673"/>
   <polyline fill="none" stroke="#d85218" stroke-linecap="square" stroke-linejoin="miter" stroke-width="0.5" points="389.747,46.2432 395.747,52.2432"/>
   <polyline fill="none" stroke="#d85218" stroke-linecap="square" stroke-linejoin="miter" stroke-width="0.5" points="389.747,52.2432 395.747,46.2432"/>
   <polyline fill="none" stroke="#d85218" stroke-linecap="square" stroke-linejoin="miter" stroke-width="0.5" points="407.457,156.869 413.457,162.869"/>
   <polyline fill="none" stroke="#d85218" stroke-linecap="square" stroke-linejoin="miter" stroke-width="0.5" points="407.457,162.869 413.457,156.869"/>
  </g>
  <clipPath id="cp00453213">
   <polygon points="0,213 453,213 453,0 0,0"/>
  </clipPath>
  <g clip-path="url(#cp00453213)">
   <polygon fill="#ffffff" shape-rendering="crispEdges" points="262.36,34.1187 402.668,34.1187 402.668,16.3301 262.36,16.3301"/>
   <polyline fill="none" stroke="#262626" stroke-linecap="square" stroke-linejoin="miter" stroke-dasharray="16,0" stroke-width="0.5" points="262.36,34.1187 402.668,34.1187"/>
   <polyline fill="none" stroke="#262626" stroke-linecap="square" stroke-linejoin="miter" stroke-dasharray="16,0" stroke-width="0.5" points="262.36,16.3301 402.668,16.3301"/>
   <polyline fill="none" stroke="#262626" stroke-linecap="square" stroke-linejoin="miter" stroke-dasharray="16,0" stroke-width="0.5" points="262.36,34.1187 262.36,16.3301"/>
   <polyline fill="none" stroke="#262626" stroke-linecap="square" stroke-linejoin="miter" stroke-dasharray="16,0" stroke-width="0.5" points="402.668,34.1187 402.668,16.3301"/>
   <polyline fill="none" stroke="#0071bc" stroke-linecap="butt" stroke-linejoin="round" stroke-width="0.5" points="266.254,25.2246 285.726,25.2246"/>
   <g transform="translate(289.62,29.2246) rotate(-0,-0,-4)" font-family="'Latin Modern Roman'" font-size="9.9" xml:space="preserve" font-weight="normal" font-style="normal">
    <text y="-0" fill="rgb(0,0,0)" x="0 10 14 22 27 31 37 40 44 50 53 ">Wzmocnienie</text>
   </g>
   <polyline fill="none" stroke="#d85218" stroke-linecap="square" stroke-linejoin="miter" stroke-width="0.5" points="361.144,22.2246 367.144,28.2246"/>
   <polyline fill="none" stroke="#d85218" stroke-linecap="square" stroke-linejoin="miter" stroke-width="0.5" points="361.144,28.2246 367.144,22.2246"/>
   <g transform="translate(377.774,30.2246) rotate(-0,-0,-5)" font-family="'Latin Modern Roman'" font-size="9.9" xml:space="preserve" font-weight="normal" font-style="normal">
    <text y="-2" fill="rgb(0,0,0)" x="0 7 10 15 ">Błąd</text>
   </g>
  </g>
 </g>
</svg>
