<?xml version='1.0' encoding='UTF-8' standalone='no'?>
<svg xmlns="http://www.w3.org/2000/svg" height="235pt" viewBox="0 0 453 235" xmlns:xlink="http://www.w3.org/1999/xlink" width="453pt">
 <title>Figure 2</title>
 <desc>
Creator: GL2PS 1.4.2, (C) 1999-2020 C. Geuzaine
For: Octave
CreationDate: Sat May 20 11:28:01 2023
</desc>
 <defs/>
 <polygon points="0,0 453,0 453,235 0,235" fill="#ffffff"/>
 <g>
  <polygon points="0,235 453,235 453,0 0,0" fill="#ffffff" shape-rendering="crispEdges"/>
  <clipPath id="cp00453235">
   <polygon points="0,235 453,235 453,0 0,0"/>
  </clipPath>
  <g clip-path="url(#cp00453235)">
   <polygon points="47.6221,198.808 439.937,198.808 439.937,4.70557 47.6221,4.70557" fill="#ffffff" shape-rendering="crispEdges"/>
   <polyline stroke-dasharray="1,3,1,3,1,3,1,3" points="63.3145,198.808 63.3145,4.70557" stroke="#191919" stroke-opacity="0.25" fill="none" stroke-linecap="butt" stroke-width="0.5" stroke-linejoin="miter"/>
   <polyline stroke-dasharray="1,3,1,3,1,3,1,3" points="79.0073,198.808 79.0073,4.70557" stroke="#191919" stroke-opacity="0.25" fill="none" stroke-linecap="butt" stroke-width="0.5" stroke-linejoin="miter"/>
   <polyline stroke-dasharray="1,3,1,3,1,3,1,3" points="94.6997,198.808 94.6997,4.70557" stroke="#191919" stroke-opacity="0.25" fill="none" stroke-linecap="butt" stroke-width="0.5" stroke-linejoin="miter"/>
   <polyline stroke-dasharray="1,3,1,3,1,3,1,3" points="110.393,198.808 110.393,4.70557" stroke="#191919" stroke-opacity="0.25" fill="none" stroke-linecap="butt" stroke-width="0.5" stroke-linejoin="miter"/>
   <polyline stroke-dasharray="1,3,1,3,1,3,1,3" points="141.778,198.808 141.778,4.70557" stroke="#191919" stroke-opacity="0.25" fill="none" stroke-linecap="butt" stroke-width="0.5" stroke-linejoin="miter"/>
   <polyline stroke-dasharray="1,3,1,3,1,3,1,3" points="157.47,198.808 157.47,4.70557" stroke="#191919" stroke-opacity="0.25" fill="none" stroke-linecap="butt" stroke-width="0.5" stroke-linejoin="miter"/>
   <polyline stroke-dasharray="1,3,1,3,1,3,1,3" points="173.163,198.808 173.163,4.70557" stroke="#191919" stroke-opacity="0.25" fill="none" stroke-linecap="butt" stroke-width="0.5" stroke-linejoin="miter"/>
   <polyline stroke-dasharray="1,3,1,3,1,3,1,3" points="188.855,198.808 188.855,4.70557" stroke="#191919" stroke-opacity="0.25" fill="none" stroke-linecap="butt" stroke-width="0.5" stroke-linejoin="miter"/>
   <polyline stroke-dasharray="1,3,1,3,1,3,1,3" points="220.241,198.808 220.241,4.70557" stroke="#191919" stroke-opacity="0.25" fill="none" stroke-linecap="butt" stroke-width="0.5" stroke-linejoin="miter"/>
   <polyline stroke-dasharray="1,3,1,3,1,3,1,3" points="235.933,198.808 235.933,4.70557" stroke="#191919" stroke-opacity="0.25" fill="none" stroke-linecap="butt" stroke-width="0.5" stroke-linejoin="miter"/>
   <polyline stroke-dasharray="1,3,1,3,1,3,1,3" points="251.626,198.808 251.626,4.70557" stroke="#191919" stroke-opacity="0.25" fill="none" stroke-linecap="butt" stroke-width="0.5" stroke-linejoin="miter"/>
   <polyline stroke-dasharray="1,3,1,3,1,3,1,3" points="267.318,198.808 267.318,4.70557" stroke="#191919" stroke-opacity="0.25" fill="none" stroke-linecap="butt" stroke-width="0.5" stroke-linejoin="miter"/>
   <polyline stroke-dasharray="1,3,1,3,1,3,1,3" points="298.704,198.808 298.704,4.70557" stroke="#191919" stroke-opacity="0.25" fill="none" stroke-linecap="butt" stroke-width="0.5" stroke-linejoin="miter"/>
   <polyline stroke-dasharray="1,3,1,3,1,3,1,3" points="314.396,198.808 314.396,4.70557" stroke="#191919" stroke-opacity="0.25" fill="none" stroke-linecap="butt" stroke-width="0.5" stroke-linejoin="miter"/>
   <polyline stroke-dasharray="1,3,1,3,1,3,1,3" points="330.089,198.808 330.089,4.70557" stroke="#191919" stroke-opacity="0.25" fill="none" stroke-linecap="butt" stroke-width="0.5" stroke-linejoin="miter"/>
   <polyline stroke-dasharray="1,3,1,3,1,3,1,3" points="345.781,198.808 345.781,4.70557" stroke="#191919" stroke-opacity="0.25" fill="none" stroke-linecap="butt" stroke-width="0.5" stroke-linejoin="miter"/>
   <polyline stroke-dasharray="1,3,1,3,1,3,1,3" points="377.167,198.808 377.167,4.70557" stroke="#191919" stroke-opacity="0.25" fill="none" stroke-linecap="butt" stroke-width="0.5" stroke-linejoin="miter"/>
   <polyline stroke-dasharray="1,3,1,3,1,3,1,3" points="392.859,198.808 392.859,4.70557" stroke="#191919" stroke-opacity="0.25" fill="none" stroke-linecap="butt" stroke-width="0.5" stroke-linejoin="miter"/>
   <polyline stroke-dasharray="1,3,1,3,1,3,1,3" points="408.552,198.808 408.552,4.70557" stroke="#191919" stroke-opacity="0.25" fill="none" stroke-linecap="butt" stroke-width="0.5" stroke-linejoin="miter"/>
   <polyline stroke-dasharray="1,3,1,3,1,3,1,3" points="424.245,198.808 424.245,4.70557" stroke="#191919" stroke-opacity="0.25" fill="none" stroke-linecap="butt" stroke-width="0.5" stroke-linejoin="miter"/>
   <polyline stroke-dasharray="16,0" points="47.6221,198.808 47.6221,4.70557" stroke="#262626" stroke-opacity="0.15" fill="none" stroke-linecap="butt" stroke-width="0.5" stroke-linejoin="miter"/>
   <polyline stroke-dasharray="16,0" points="126.085,198.808 126.085,4.70557" stroke="#262626" stroke-opacity="0.15" fill="none" stroke-linecap="butt" stroke-width="0.5" stroke-linejoin="miter"/>
   <polyline stroke-dasharray="16,0" points="204.548,198.808 204.548,4.70557" stroke="#262626" stroke-opacity="0.15" fill="none" stroke-linecap="butt" stroke-width="0.5" stroke-linejoin="miter"/>
   <polyline stroke-dasharray="16,0" points="283.011,198.808 283.011,4.70557" stroke="#262626" stroke-opacity="0.15" fill="none" stroke-linecap="butt" stroke-width="0.5" stroke-linejoin="miter"/>
   <polyline stroke-dasharray="16,0" points="361.474,198.808 361.474,4.70557" stroke="#262626" stroke-opacity="0.15" fill="none" stroke-linecap="butt" stroke-width="0.5" stroke-linejoin="miter"/>
   <polyline stroke-dasharray="16,0" points="439.937,198.808 439.937,4.70557" stroke="#262626" stroke-opacity="0.15" fill="none" stroke-linecap="butt" stroke-width="0.5" stroke-linejoin="miter"/>
   <polyline points="47.6221,198.808 47.6221,194.883" stroke="#262626" fill="none" stroke-linecap="butt" stroke-width="0.5" stroke-linejoin="miter"/>
   <polyline points="47.6221,4.70557 47.6221,8.63086" stroke="#262626" fill="none" stroke-linecap="butt" stroke-width="0.5" stroke-linejoin="miter"/>
   <polyline points="126.085,198.808 126.085,194.883" stroke="#262626" fill="none" stroke-linecap="butt" stroke-width="0.5" stroke-linejoin="miter"/>
   <polyline points="126.085,4.70557 126.085,8.63086" stroke="#262626" fill="none" stroke-linecap="butt" stroke-width="0.5" stroke-linejoin="miter"/>
   <polyline points="204.548,198.808 204.548,194.883" stroke="#262626" fill="none" stroke-linecap="butt" stroke-width="0.5" stroke-linejoin="miter"/>
   <polyline points="204.548,4.70557 204.548,8.63086" stroke="#262626" fill="none" stroke-linecap="butt" stroke-width="0.5" stroke-linejoin="miter"/>
   <polyline points="283.011,198.808 283.011,194.883" stroke="#262626" fill="none" stroke-linecap="butt" stroke-width="0.5" stroke-linejoin="miter"/>
   <polyline points="283.011,4.70557 283.011,8.63086" stroke="#262626" fill="none" stroke-linecap="butt" stroke-width="0.5" stroke-linejoin="miter"/>
   <polyline points="361.474,198.808 361.474,194.883" stroke="#262626" fill="none" stroke-linecap="butt" stroke-width="0.5" stroke-linejoin="miter"/>
   <polyline points="361.474,4.70557 361.474,8.63086" stroke="#262626" fill="none" stroke-linecap="butt" stroke-width="0.5" stroke-linejoin="miter"/>
   <polyline points="439.937,198.808 439.937,194.883" stroke="#262626" fill="none" stroke-linecap="butt" stroke-width="0.5" stroke-linejoin="miter"/>
   <polyline points="439.937,4.70557 439.937,8.63086" stroke="#262626" fill="none" stroke-linecap="butt" stroke-width="0.5" stroke-linejoin="miter"/>
   <g xml:space="preserve" font-style="normal" font-family="'Latin Modern Roman'" transform="translate(44.622,216.062) rotate(-0,3,-9)" font-weight="normal" font-size="11">
    <text x="0 " y="-0" fill="rgb(38,38,38)">0</text>
   </g>
   <g xml:space="preserve" font-style="normal" font-family="'Latin Modern Roman'" transform="translate(117.085,216.062) rotate(-0,9,-9)" font-weight="normal" font-size="11">
    <text x="0 6 12 " y="-0" fill="rgb(38,38,38)">200</text>
   </g>
   <g xml:space="preserve" font-style="normal" font-family="'Latin Modern Roman'" transform="translate(195.548,216.062) rotate(-0,9,-9)" font-weight="normal" font-size="11">
    <text x="0 6 12 " y="-0" fill="rgb(38,38,38)">400</text>
   </g>
   <g xml:space="preserve" font-style="normal" font-family="'Latin Modern Roman'" transform="translate(274.011,216.062) rotate(-0,9,-9)" font-weight="normal" font-size="11">
    <text x="0 6 12 " y="-0" fill="rgb(38,38,38)">600</text>
   </g>
   <g xml:space="preserve" font-style="normal" font-family="'Latin Modern Roman'" transform="translate(352.474,216.062) rotate(-0,9,-9)" font-weight="normal" font-size="11">
    <text x="0 6 12 " y="-0" fill="rgb(38,38,38)">800</text>
   </g>
   <g xml:space="preserve" font-style="normal" font-family="'Latin Modern Roman'" transform="translate(427.937,216.062) rotate(-0,12,-9)" font-weight="normal" font-size="11">
    <text x="0 6 12 18 " y="-0" fill="rgb(38,38,38)">1000</text>
   </g>
   <polyline stroke-dasharray="16,0" points="47.6221,198.808 439.937,198.808" stroke="#262626" stroke-opacity="0.15" fill="none" stroke-linecap="butt" stroke-width="0.5" stroke-linejoin="miter"/>
   <polyline stroke-dasharray="16,0" points="47.6221,174.545 439.937,174.545" stroke="#262626" stroke-opacity="0.15" fill="none" stroke-linecap="butt" stroke-width="0.5" stroke-linejoin="miter"/>
   <polyline stroke-dasharray="16,0" points="47.6221,150.282 439.937,150.282" stroke="#262626" stroke-opacity="0.15" fill="none" stroke-linecap="butt" stroke-width="0.5" stroke-linejoin="miter"/>
   <polyline stroke-dasharray="16,0" points="47.6221,126.02 439.937,126.02" stroke="#262626" stroke-opacity="0.15" fill="none" stroke-linecap="butt" stroke-width="0.5" stroke-linejoin="miter"/>
   <polyline stroke-dasharray="16,0" points="47.6221,101.757 439.937,101.757" stroke="#262626" stroke-opacity="0.15" fill="none" stroke-linecap="butt" stroke-width="0.5" stroke-linejoin="miter"/>
   <polyline stroke-dasharray="16,0" points="47.6221,77.4941 439.937,77.4941" stroke="#262626" stroke-opacity="0.15" fill="none" stroke-linecap="butt" stroke-width="0.5" stroke-linejoin="miter"/>
   <polyline stroke-dasharray="16,0" points="47.6221,53.231 439.937,53.231" stroke="#262626" stroke-opacity="0.15" fill="none" stroke-linecap="butt" stroke-width="0.5" stroke-linejoin="miter"/>
   <polyline stroke-dasharray="16,0" points="47.6221,28.9683 439.937,28.9683" stroke="#262626" stroke-opacity="0.15" fill="none" stroke-linecap="butt" stroke-width="0.5" stroke-linejoin="miter"/>
   <polyline stroke-dasharray="16,0" points="47.6221,4.70557 439.937,4.70557" stroke="#262626" stroke-opacity="0.15" fill="none" stroke-linecap="butt" stroke-width="0.5" stroke-linejoin="miter"/>
   <polyline points="47.6221,198.808 51.5483,198.808" stroke="#262626" fill="none" stroke-linecap="butt" stroke-width="0.5" stroke-linejoin="miter"/>
   <polyline points="439.937,198.808 436.011,198.808" stroke="#262626" fill="none" stroke-linecap="butt" stroke-width="0.5" stroke-linejoin="miter"/>
   <polyline points="47.6221,174.545 51.5483,174.545" stroke="#262626" fill="none" stroke-linecap="butt" stroke-width="0.5" stroke-linejoin="miter"/>
   <polyline points="439.937,174.545 436.011,174.545" stroke="#262626" fill="none" stroke-linecap="butt" stroke-width="0.5" stroke-linejoin="miter"/>
   <polyline points="47.6221,150.282 51.5483,150.282" stroke="#262626" fill="none" stroke-linecap="butt" stroke-width="0.5" stroke-linejoin="miter"/>
   <polyline points="439.937,150.282 436.011,150.282" stroke="#262626" fill="none" stroke-linecap="butt" stroke-width="0.5" stroke-linejoin="miter"/>
   <polyline points="47.6221,126.02 51.5483,126.02" stroke="#262626" fill="none" stroke-linecap="butt" stroke-width="0.5" stroke-linejoin="miter"/>
   <polyline points="439.937,126.02 436.011,126.02" stroke="#262626" fill="none" stroke-linecap="butt" stroke-width="0.5" stroke-linejoin="miter"/>
   <polyline points="47.6221,101.757 51.5483,101.757" stroke="#262626" fill="none" stroke-linecap="butt" stroke-width="0.5" stroke-linejoin="miter"/>
   <polyline points="439.937,101.757 436.011,101.757" stroke="#262626" fill="none" stroke-linecap="butt" stroke-width="0.5" stroke-linejoin="miter"/>
   <polyline points="47.6221,77.4941 51.5483,77.4941" stroke="#262626" fill="none" stroke-linecap="butt" stroke-width="0.5" stroke-linejoin="miter"/>
   <polyline points="439.937,77.4941 436.011,77.4941" stroke="#262626" fill="none" stroke-linecap="butt" stroke-width="0.5" stroke-linejoin="miter"/>
   <polyline points="47.6221,53.231 51.5483,53.231" stroke="#262626" fill="none" stroke-linecap="butt" stroke-width="0.5" stroke-linejoin="miter"/>
   <polyline points="439.937,53.231 436.011,53.231" stroke="#262626" fill="none" stroke-linecap="butt" stroke-width="0.5" stroke-linejoin="miter"/>
   <polyline points="47.6221,28.9683 51.5483,28.9683" stroke="#262626" fill="none" stroke-linecap="butt" stroke-width="0.5" stroke-linejoin="miter"/>
   <polyline points="439.937,28.9683 436.011,28.9683" stroke="#262626" fill="none" stroke-linecap="butt" stroke-width="0.5" stroke-linejoin="miter"/>
   <polyline points="47.6221,4.70557 51.5483,4.70557" stroke="#262626" fill="none" stroke-linecap="butt" stroke-width="0.5" stroke-linejoin="miter"/>
   <polyline points="439.937,4.70557 436.011,4.70557" stroke="#262626" fill="none" stroke-linecap="butt" stroke-width="0.5" stroke-linejoin="miter"/>
   <g xml:space="preserve" font-style="normal" font-family="'Latin Modern Roman'" transform="translate(36.1176,203.308) rotate(-0,6,-4.5)" font-weight="normal" font-size="11">
    <text x="0 " y="-0" fill="rgb(38,38,38)">0</text>
   </g>
   <g xml:space="preserve" font-style="normal" font-family="'Latin Modern Roman'" transform="translate(24.1176,179.045) rotate(-0,18,-4.5)" font-weight="normal" font-size="11">
    <text x="0 6 12 " y="-0" fill="rgb(38,38,38)">512</text>
   </g>
   <g xml:space="preserve" font-style="normal" font-family="'Latin Modern Roman'" transform="translate(18.1176,154.782) rotate(-0,24,-4.5)" font-weight="normal" font-size="11">
    <text x="0 6 12 18 " y="-0" fill="rgb(38,38,38)">1024</text>
   </g>
   <g xml:space="preserve" font-style="normal" font-family="'Latin Modern Roman'" transform="translate(18.1176,130.519) rotate(-0,24,-4.5)" font-weight="normal" font-size="11">
    <text x="0 6 12 18 " y="-0" fill="rgb(38,38,38)">1536</text>
   </g>
   <g xml:space="preserve" font-style="normal" font-family="'Latin Modern Roman'" transform="translate(18.1176,106.257) rotate(-0,24,-4.5)" font-weight="normal" font-size="11">
    <text x="0 6 12 18 " y="-0" fill="rgb(38,38,38)">2048</text>
   </g>
   <g xml:space="preserve" font-style="normal" font-family="'Latin Modern Roman'" transform="translate(18.1176,81.9939) rotate(-0,24,-4.5)" font-weight="normal" font-size="11">
    <text x="0 6 12 18 " y="-0" fill="rgb(38,38,38)">2560</text>
   </g>
   <g xml:space="preserve" font-style="normal" font-family="'Latin Modern Roman'" transform="translate(18.1176,57.7311) rotate(-0,24,-4.5)" font-weight="normal" font-size="11">
    <text x="0 6 12 18 " y="-0" fill="rgb(38,38,38)">3072</text>
   </g>
   <g xml:space="preserve" font-style="normal" font-family="'Latin Modern Roman'" transform="translate(18.1176,33.4683) rotate(-0,24,-4.5)" font-weight="normal" font-size="11">
    <text x="0 6 12 18 " y="-0" fill="rgb(38,38,38)">3584</text>
   </g>
   <g xml:space="preserve" font-style="normal" font-family="'Latin Modern Roman'" transform="translate(18.1176,9.20551) rotate(-0,24,-4.5)" font-weight="normal" font-size="11">
    <text x="0 6 12 18 " y="-0" fill="rgb(38,38,38)">4096</text>
   </g>
   <polyline stroke-dasharray="16,0" points="47.6221,198.808 439.937,198.808" stroke="#262626" fill="none" stroke-linecap="square" stroke-width="0.5" stroke-linejoin="miter"/>
   <polyline stroke-dasharray="16,0" points="47.6221,4.70557 439.937,4.70557" stroke="#262626" fill="none" stroke-linecap="square" stroke-width="0.5" stroke-linejoin="miter"/>
   <polyline stroke-dasharray="16,0" points="47.6221,198.808 47.6221,4.70557" stroke="#262626" fill="none" stroke-linecap="square" stroke-width="0.5" stroke-linejoin="miter"/>
   <polyline stroke-dasharray="16,0" points="439.937,198.808 439.937,4.70557" stroke="#262626" fill="none" stroke-linecap="square" stroke-width="0.5" stroke-linejoin="miter"/>
   <g xml:space="preserve" font-style="normal" font-family="'Latin Modern Roman'" transform="translate(129.78,234.062) rotate(-0,114,-13)" font-weight="normal" font-size="12.1">
    <text x="0 9 15 22 25 30 35 38 43 47 54 60 64 73 78 82 87 92 95 102 106 111 117 122 129 133 140 146 156 159 165 170 176 185 190 196 202 205 209 219 " y="-3" fill="rgb(38,38,38)">Napięcie na wejściu toru pomiarowego, mV</text>
   </g>
   <g xml:space="preserve" font-style="normal" font-family="'Latin Modern Roman'" transform="translate(-88.3824,101.757) rotate(-90,101.5,0)" font-weight="normal" font-size="12.1">
    <text x="0 12 15 20 23 29 35 40 45 49 58 64 68 73 78 81 87 96 102 106 113 118 123 128 133 142 148 153 160 163 169 175 179 188 194 " y="-3" fill="rgb(38,38,38)">Wielkość wyjściowa przetwornika A/C</text>
   </g>
   <polyline points="83.8535,176.192 89.8535,182.192" stroke="#0071bc" fill="none" stroke-linecap="square" stroke-width="0.5" stroke-linejoin="miter"/>
   <polyline points="83.8535,182.192 89.8535,176.192" stroke="#0071bc" fill="none" stroke-linecap="square" stroke-width="0.5" stroke-linejoin="miter"/>
   <polyline points="88.7573,173.758 94.7573,179.758" stroke="#0071bc" fill="none" stroke-linecap="square" stroke-width="0.5" stroke-linejoin="miter"/>
   <polyline points="88.7573,179.758 94.7573,173.758" stroke="#0071bc" fill="none" stroke-linecap="square" stroke-width="0.5" stroke-linejoin="miter"/>
   <polyline points="93.6616,171.334 99.6616,177.334" stroke="#0071bc" fill="none" stroke-linecap="square" stroke-width="0.5" stroke-linejoin="miter"/>
   <polyline points="93.6616,177.334 99.6616,171.334" stroke="#0071bc" fill="none" stroke-linecap="square" stroke-width="0.5" stroke-linejoin="miter"/>
   <polyline points="98.5654,168.899 104.565,174.899" stroke="#0071bc" fill="none" stroke-linecap="square" stroke-width="0.5" stroke-linejoin="miter"/>
   <polyline points="98.5654,174.899 104.565,168.899" stroke="#0071bc" fill="none" stroke-linecap="square" stroke-width="0.5" stroke-linejoin="miter"/>
   <polyline points="103.469,166.488 109.469,172.488" stroke="#0071bc" fill="none" stroke-linecap="square" stroke-width="0.5" stroke-linejoin="miter"/>
   <polyline points="103.469,172.488 109.469,166.488" stroke="#0071bc" fill="none" stroke-linecap="square" stroke-width="0.5" stroke-linejoin="miter"/>
   <polyline points="108.373,164.084 114.373,170.084" stroke="#0071bc" fill="none" stroke-linecap="square" stroke-width="0.5" stroke-linejoin="miter"/>
   <polyline points="108.373,170.084 114.373,164.084" stroke="#0071bc" fill="none" stroke-linecap="square" stroke-width="0.5" stroke-linejoin="miter"/>
   <polyline points="113.277,161.647 119.277,167.647" stroke="#0071bc" fill="none" stroke-linecap="square" stroke-width="0.5" stroke-linejoin="miter"/>
   <polyline points="113.277,167.647 119.277,161.647" stroke="#0071bc" fill="none" stroke-linecap="square" stroke-width="0.5" stroke-linejoin="miter"/>
   <polyline points="118.181,159.228 124.181,165.228" stroke="#0071bc" fill="none" stroke-linecap="square" stroke-width="0.5" stroke-linejoin="miter"/>
   <polyline points="118.181,165.228 124.181,159.228" stroke="#0071bc" fill="none" stroke-linecap="square" stroke-width="0.5" stroke-linejoin="miter"/>
   <polyline points="123.085,156.819 129.085,162.819" stroke="#0071bc" fill="none" stroke-linecap="square" stroke-width="0.5" stroke-linejoin="miter"/>
   <polyline points="123.085,162.819 129.085,156.819" stroke="#0071bc" fill="none" stroke-linecap="square" stroke-width="0.5" stroke-linejoin="miter"/>
   <polyline points="127.989,154.4 133.989,160.4" stroke="#0071bc" fill="none" stroke-linecap="square" stroke-width="0.5" stroke-linejoin="miter"/>
   <polyline points="127.989,160.4 133.989,154.4" stroke="#0071bc" fill="none" stroke-linecap="square" stroke-width="0.5" stroke-linejoin="miter"/>
   <polyline points="132.893,151.964 138.893,157.964" stroke="#0071bc" fill="none" stroke-linecap="square" stroke-width="0.5" stroke-linejoin="miter"/>
   <polyline points="132.893,157.964 138.893,151.964" stroke="#0071bc" fill="none" stroke-linecap="square" stroke-width="0.5" stroke-linejoin="miter"/>
   <polyline points="137.797,149.554 143.797,155.554" stroke="#0071bc" fill="none" stroke-linecap="square" stroke-width="0.5" stroke-linejoin="miter"/>
   <polyline points="137.797,155.554 143.797,149.554" stroke="#0071bc" fill="none" stroke-linecap="square" stroke-width="0.5" stroke-linejoin="miter"/>
   <polyline points="54.4297,190.708 60.4297,196.708" stroke="#0071bc" fill="none" stroke-linecap="square" stroke-width="0.5" stroke-linejoin="miter"/>
   <polyline points="54.4297,196.708 60.4297,190.708" stroke="#0071bc" fill="none" stroke-linecap="square" stroke-width="0.5" stroke-linejoin="miter"/>
   <polyline points="142.701,147.101 148.701,153.101" stroke="#0071bc" fill="none" stroke-linecap="square" stroke-width="0.5" stroke-linejoin="miter"/>
   <polyline points="142.701,153.101 148.701,147.101" stroke="#0071bc" fill="none" stroke-linecap="square" stroke-width="0.5" stroke-linejoin="miter"/>
   <polyline points="147.604,144.665 153.604,150.665" stroke="#0071bc" fill="none" stroke-linecap="square" stroke-width="0.5" stroke-linejoin="miter"/>
   <polyline points="147.604,150.665 153.604,144.665" stroke="#0071bc" fill="none" stroke-linecap="square" stroke-width="0.5" stroke-linejoin="miter"/>
   <polyline points="152.509,142.245 158.509,148.245" stroke="#0071bc" fill="none" stroke-linecap="square" stroke-width="0.5" stroke-linejoin="miter"/>
   <polyline points="152.509,148.245 158.509,142.245" stroke="#0071bc" fill="none" stroke-linecap="square" stroke-width="0.5" stroke-linejoin="miter"/>
   <polyline points="157.413,139.823 163.413,145.823" stroke="#0071bc" fill="none" stroke-linecap="square" stroke-width="0.5" stroke-linejoin="miter"/>
   <polyline points="157.413,145.823 163.413,139.823" stroke="#0071bc" fill="none" stroke-linecap="square" stroke-width="0.5" stroke-linejoin="miter"/>
   <polyline points="162.316,137.414 168.316,143.414" stroke="#0071bc" fill="none" stroke-linecap="square" stroke-width="0.5" stroke-linejoin="miter"/>
   <polyline points="162.316,143.414 168.316,137.414" stroke="#0071bc" fill="none" stroke-linecap="square" stroke-width="0.5" stroke-linejoin="miter"/>
   <polyline points="167.221,134.968 173.221,140.968" stroke="#0071bc" fill="none" stroke-linecap="square" stroke-width="0.5" stroke-linejoin="miter"/>
   <polyline points="167.221,140.968 173.221,134.968" stroke="#0071bc" fill="none" stroke-linecap="square" stroke-width="0.5" stroke-linejoin="miter"/>
   <polyline points="172.125,132.534 178.125,138.534" stroke="#0071bc" fill="none" stroke-linecap="square" stroke-width="0.5" stroke-linejoin="miter"/>
   <polyline points="172.125,138.534 178.125,132.534" stroke="#0071bc" fill="none" stroke-linecap="square" stroke-width="0.5" stroke-linejoin="miter"/>
   <polyline points="177.028,130.125 183.028,136.125" stroke="#0071bc" fill="none" stroke-linecap="square" stroke-width="0.5" stroke-linejoin="miter"/>
   <polyline points="177.028,136.125 183.028,130.125" stroke="#0071bc" fill="none" stroke-linecap="square" stroke-width="0.5" stroke-linejoin="miter"/>
   <polyline points="181.932,127.718 187.932,133.718" stroke="#0071bc" fill="none" stroke-linecap="square" stroke-width="0.5" stroke-linejoin="miter"/>
   <polyline points="181.932,133.718 187.932,127.718" stroke="#0071bc" fill="none" stroke-linecap="square" stroke-width="0.5" stroke-linejoin="miter"/>
   <polyline points="186.836,125.29 192.836,131.29" stroke="#0071bc" fill="none" stroke-linecap="square" stroke-width="0.5" stroke-linejoin="miter"/>
   <polyline points="186.836,131.29 192.836,125.29" stroke="#0071bc" fill="none" stroke-linecap="square" stroke-width="0.5" stroke-linejoin="miter"/>
   <polyline points="59.334,188.278 65.334,194.278" stroke="#0071bc" fill="none" stroke-linecap="square" stroke-width="0.5" stroke-linejoin="miter"/>
   <polyline points="59.334,194.278 65.334,188.278" stroke="#0071bc" fill="none" stroke-linecap="square" stroke-width="0.5" stroke-linejoin="miter"/>
   <polyline points="191.74,122.842 197.74,128.842" stroke="#0071bc" fill="none" stroke-linecap="square" stroke-width="0.5" stroke-linejoin="miter"/>
   <polyline points="191.74,128.842 197.74,122.842" stroke="#0071bc" fill="none" stroke-linecap="square" stroke-width="0.5" stroke-linejoin="miter"/>
   <polyline points="196.644,120.42 202.644,126.42" stroke="#0071bc" fill="none" stroke-linecap="square" stroke-width="0.5" stroke-linejoin="miter"/>
   <polyline points="196.644,126.42 202.644,120.42" stroke="#0071bc" fill="none" stroke-linecap="square" stroke-width="0.5" stroke-linejoin="miter"/>
   <polyline points="201.548,118.001 207.548,124.001" stroke="#0071bc" fill="none" stroke-linecap="square" stroke-width="0.5" stroke-linejoin="miter"/>
   <polyline points="201.548,124.001 207.548,118.001" stroke="#0071bc" fill="none" stroke-linecap="square" stroke-width="0.5" stroke-linejoin="miter"/>
   <polyline points="206.452,115.581 212.452,121.581" stroke="#0071bc" fill="none" stroke-linecap="square" stroke-width="0.5" stroke-linejoin="miter"/>
   <polyline points="206.452,121.581 212.452,115.581" stroke="#0071bc" fill="none" stroke-linecap="square" stroke-width="0.5" stroke-linejoin="miter"/>
   <polyline points="211.356,113.161 217.356,119.161" stroke="#0071bc" fill="none" stroke-linecap="square" stroke-width="0.5" stroke-linejoin="miter"/>
   <polyline points="211.356,119.161 217.356,113.161" stroke="#0071bc" fill="none" stroke-linecap="square" stroke-width="0.5" stroke-linejoin="miter"/>
   <polyline points="216.26,110.717 222.26,116.717" stroke="#0071bc" fill="none" stroke-linecap="square" stroke-width="0.5" stroke-linejoin="miter"/>
   <polyline points="216.26,116.717 222.26,110.717" stroke="#0071bc" fill="none" stroke-linecap="square" stroke-width="0.5" stroke-linejoin="miter"/>
   <polyline points="221.164,108.308 227.164,114.308" stroke="#0071bc" fill="none" stroke-linecap="square" stroke-width="0.5" stroke-linejoin="miter"/>
   <polyline points="221.164,114.308 227.164,108.308" stroke="#0071bc" fill="none" stroke-linecap="square" stroke-width="0.5" stroke-linejoin="miter"/>
   <polyline points="226.068,105.875 232.068,111.875" stroke="#0071bc" fill="none" stroke-linecap="square" stroke-width="0.5" stroke-linejoin="miter"/>
   <polyline points="226.068,111.875 232.068,105.875" stroke="#0071bc" fill="none" stroke-linecap="square" stroke-width="0.5" stroke-linejoin="miter"/>
   <polyline points="230.972,103.438 236.972,109.438" stroke="#0071bc" fill="none" stroke-linecap="square" stroke-width="0.5" stroke-linejoin="miter"/>
   <polyline points="230.972,109.438 236.972,103.438" stroke="#0071bc" fill="none" stroke-linecap="square" stroke-width="0.5" stroke-linejoin="miter"/>
   <polyline points="235.875,101.021 241.875,107.021" stroke="#0071bc" fill="none" stroke-linecap="square" stroke-width="0.5" stroke-linejoin="miter"/>
   <polyline points="235.875,107.021 241.875,101.021" stroke="#0071bc" fill="none" stroke-linecap="square" stroke-width="0.5" stroke-linejoin="miter"/>
   <polyline points="46.5835,194.615 52.5835,200.615" stroke="#0071bc" fill="none" stroke-linecap="square" stroke-width="0.5" stroke-linejoin="miter"/>
   <polyline points="46.5835,200.615 52.5835,194.615" stroke="#0071bc" fill="none" stroke-linecap="square" stroke-width="0.5" stroke-linejoin="miter"/>
   <polyline points="64.2378,185.862 70.2378,191.862" stroke="#0071bc" fill="none" stroke-linecap="square" stroke-width="0.5" stroke-linejoin="miter"/>
   <polyline points="64.2378,191.862 70.2378,185.862" stroke="#0071bc" fill="none" stroke-linecap="square" stroke-width="0.5" stroke-linejoin="miter"/>
   <polyline points="240.779,98.5562 246.779,104.556" stroke="#0071bc" fill="none" stroke-linecap="square" stroke-width="0.5" stroke-linejoin="miter"/>
   <polyline points="240.779,104.556 246.779,98.5562" stroke="#0071bc" fill="none" stroke-linecap="square" stroke-width="0.5" stroke-linejoin="miter"/>
   <polyline points="245.684,96.1162 251.684,102.116" stroke="#0071bc" fill="none" stroke-linecap="square" stroke-width="0.5" stroke-linejoin="miter"/>
   <polyline points="245.684,102.116 251.684,96.1162" stroke="#0071bc" fill="none" stroke-linecap="square" stroke-width="0.5" stroke-linejoin="miter"/>
   <polyline points="250.587,93.7285 256.587,99.7285" stroke="#0071bc" fill="none" stroke-linecap="square" stroke-width="0.5" stroke-linejoin="miter"/>
   <polyline points="250.587,99.7285 256.587,93.7285" stroke="#0071bc" fill="none" stroke-linecap="square" stroke-width="0.5" stroke-linejoin="miter"/>
   <polyline points="255.491,91.2461 261.491,97.2461" stroke="#0071bc" fill="none" stroke-linecap="square" stroke-width="0.5" stroke-linejoin="miter"/>
   <polyline points="255.491,97.2461 261.491,91.2461" stroke="#0071bc" fill="none" stroke-linecap="square" stroke-width="0.5" stroke-linejoin="miter"/>
   <polyline points="260.395,88.8809 266.395,94.8809" stroke="#0071bc" fill="none" stroke-linecap="square" stroke-width="0.5" stroke-linejoin="miter"/>
   <polyline points="260.395,94.8809 266.395,88.8809" stroke="#0071bc" fill="none" stroke-linecap="square" stroke-width="0.5" stroke-linejoin="miter"/>
   <polyline points="265.299,86.4404 271.299,92.4404" stroke="#0071bc" fill="none" stroke-linecap="square" stroke-width="0.5" stroke-linejoin="miter"/>
   <polyline points="265.299,92.4404 271.299,86.4404" stroke="#0071bc" fill="none" stroke-linecap="square" stroke-width="0.5" stroke-linejoin="miter"/>
   <polyline points="270.203,83.9932 276.203,89.9932" stroke="#0071bc" fill="none" stroke-linecap="square" stroke-width="0.5" stroke-linejoin="miter"/>
   <polyline points="270.203,89.9932 276.203,83.9932" stroke="#0071bc" fill="none" stroke-linecap="square" stroke-width="0.5" stroke-linejoin="miter"/>
   <polyline points="275.107,81.6006 281.107,87.6006" stroke="#0071bc" fill="none" stroke-linecap="square" stroke-width="0.5" stroke-linejoin="miter"/>
   <polyline points="275.107,87.6006 281.107,81.6006" stroke="#0071bc" fill="none" stroke-linecap="square" stroke-width="0.5" stroke-linejoin="miter"/>
   <polyline points="280.011,79.1729 286.011,85.1729" stroke="#0071bc" fill="none" stroke-linecap="square" stroke-width="0.5" stroke-linejoin="miter"/>
   <polyline points="280.011,85.1729 286.011,79.1729" stroke="#0071bc" fill="none" stroke-linecap="square" stroke-width="0.5" stroke-linejoin="miter"/>
   <polyline points="284.915,76.75 290.915,82.75" stroke="#0071bc" fill="none" stroke-linecap="square" stroke-width="0.5" stroke-linejoin="miter"/>
   <polyline points="284.915,82.75 290.915,76.75" stroke="#0071bc" fill="none" stroke-linecap="square" stroke-width="0.5" stroke-linejoin="miter"/>
   <polyline points="69.1416,183.452 75.1416,189.452" stroke="#0071bc" fill="none" stroke-linecap="square" stroke-width="0.5" stroke-linejoin="miter"/>
   <polyline points="69.1416,189.452 75.1416,183.452" stroke="#0071bc" fill="none" stroke-linecap="square" stroke-width="0.5" stroke-linejoin="miter"/>
   <polyline points="289.819,74.3003 295.819,80.3003" stroke="#0071bc" fill="none" stroke-linecap="square" stroke-width="0.5" stroke-linejoin="miter"/>
   <polyline points="289.819,80.3003 295.819,74.3003" stroke="#0071bc" fill="none" stroke-linecap="square" stroke-width="0.5" stroke-linejoin="miter"/>
   <polyline points="294.723,71.8652 300.723,77.8652" stroke="#0071bc" fill="none" stroke-linecap="square" stroke-width="0.5" stroke-linejoin="miter"/>
   <polyline points="294.723,77.8652 300.723,71.8652" stroke="#0071bc" fill="none" stroke-linecap="square" stroke-width="0.5" stroke-linejoin="miter"/>
   <polyline points="299.627,69.479 305.627,75.479" stroke="#0071bc" fill="none" stroke-linecap="square" stroke-width="0.5" stroke-linejoin="miter"/>
   <polyline points="299.627,75.479 305.627,69.479" stroke="#0071bc" fill="none" stroke-linecap="square" stroke-width="0.5" stroke-linejoin="miter"/>
   <polyline points="304.531,67.0005 310.531,73.0005" stroke="#0071bc" fill="none" stroke-linecap="square" stroke-width="0.5" stroke-linejoin="miter"/>
   <polyline points="304.531,73.0005 310.531,67.0005" stroke="#0071bc" fill="none" stroke-linecap="square" stroke-width="0.5" stroke-linejoin="miter"/>
   <polyline points="309.435,64.6143 315.435,70.6143" stroke="#0071bc" fill="none" stroke-linecap="square" stroke-width="0.5" stroke-linejoin="miter"/>
   <polyline points="309.435,70.6143 315.435,64.6143" stroke="#0071bc" fill="none" stroke-linecap="square" stroke-width="0.5" stroke-linejoin="miter"/>
   <polyline points="314.338,62.1748 320.338,68.1748" stroke="#0071bc" fill="none" stroke-linecap="square" stroke-width="0.5" stroke-linejoin="miter"/>
   <polyline points="314.338,68.1748 320.338,62.1748" stroke="#0071bc" fill="none" stroke-linecap="square" stroke-width="0.5" stroke-linejoin="miter"/>
   <polyline points="319.243,59.7231 325.243,65.7231" stroke="#0071bc" fill="none" stroke-linecap="square" stroke-width="0.5" stroke-linejoin="miter"/>
   <polyline points="319.243,65.7231 325.243,59.7231" stroke="#0071bc" fill="none" stroke-linecap="square" stroke-width="0.5" stroke-linejoin="miter"/>
   <polyline points="324.146,57.3296 330.146,63.3296" stroke="#0071bc" fill="none" stroke-linecap="square" stroke-width="0.5" stroke-linejoin="miter"/>
   <polyline points="324.146,63.3296 330.146,57.3296" stroke="#0071bc" fill="none" stroke-linecap="square" stroke-width="0.5" stroke-linejoin="miter"/>
   <polyline points="329.05,54.8457 335.05,60.8457" stroke="#0071bc" fill="none" stroke-linecap="square" stroke-width="0.5" stroke-linejoin="miter"/>
   <polyline points="329.05,60.8457 335.05,54.8457" stroke="#0071bc" fill="none" stroke-linecap="square" stroke-width="0.5" stroke-linejoin="miter"/>
   <polyline points="333.955,52.4834 339.955,58.4834" stroke="#0071bc" fill="none" stroke-linecap="square" stroke-width="0.5" stroke-linejoin="miter"/>
   <polyline points="333.955,58.4834 339.955,52.4834" stroke="#0071bc" fill="none" stroke-linecap="square" stroke-width="0.5" stroke-linejoin="miter"/>
   <polyline points="74.0459,181.024 80.0459,187.024" stroke="#0071bc" fill="none" stroke-linecap="square" stroke-width="0.5" stroke-linejoin="miter"/>
   <polyline points="74.0459,187.024 80.0459,181.024" stroke="#0071bc" fill="none" stroke-linecap="square" stroke-width="0.5" stroke-linejoin="miter"/>
   <polyline points="338.858,50.0273 344.858,56.0273" stroke="#0071bc" fill="none" stroke-linecap="square" stroke-width="0.5" stroke-linejoin="miter"/>
   <polyline points="338.858,56.0273 344.858,50.0273" stroke="#0071bc" fill="none" stroke-linecap="square" stroke-width="0.5" stroke-linejoin="miter"/>
   <polyline points="343.762,47.5908 349.762,53.5908" stroke="#0071bc" fill="none" stroke-linecap="square" stroke-width="0.5" stroke-linejoin="miter"/>
   <polyline points="343.762,53.5908 349.762,47.5908" stroke="#0071bc" fill="none" stroke-linecap="square" stroke-width="0.5" stroke-linejoin="miter"/>
   <polyline points="348.666,45.1753 354.666,51.1753" stroke="#0071bc" fill="none" stroke-linecap="square" stroke-width="0.5" stroke-linejoin="miter"/>
   <polyline points="348.666,51.1753 354.666,45.1753" stroke="#0071bc" fill="none" stroke-linecap="square" stroke-width="0.5" stroke-linejoin="miter"/>
   <polyline points="353.57,42.7539 359.57,48.7539" stroke="#0071bc" fill="none" stroke-linecap="square" stroke-width="0.5" stroke-linejoin="miter"/>
   <polyline points="353.57,48.7539 359.57,42.7539" stroke="#0071bc" fill="none" stroke-linecap="square" stroke-width="0.5" stroke-linejoin="miter"/>
   <polyline points="358.474,40.3584 364.474,46.3584" stroke="#0071bc" fill="none" stroke-linecap="square" stroke-width="0.5" stroke-linejoin="miter"/>
   <polyline points="358.474,46.3584 364.474,40.3584" stroke="#0071bc" fill="none" stroke-linecap="square" stroke-width="0.5" stroke-linejoin="miter"/>
   <polyline points="363.378,37.9146 369.378,43.9146" stroke="#0071bc" fill="none" stroke-linecap="square" stroke-width="0.5" stroke-linejoin="miter"/>
   <polyline points="363.378,43.9146 369.378,37.9146" stroke="#0071bc" fill="none" stroke-linecap="square" stroke-width="0.5" stroke-linejoin="miter"/>
   <polyline points="368.282,35.4609 374.282,41.4609" stroke="#0071bc" fill="none" stroke-linecap="square" stroke-width="0.5" stroke-linejoin="miter"/>
   <polyline points="368.282,41.4609 374.282,35.4609" stroke="#0071bc" fill="none" stroke-linecap="square" stroke-width="0.5" stroke-linejoin="miter"/>
   <polyline points="373.186,33.1138 379.186,39.1138" stroke="#0071bc" fill="none" stroke-linecap="square" stroke-width="0.5" stroke-linejoin="miter"/>
   <polyline points="373.186,39.1138 379.186,33.1138" stroke="#0071bc" fill="none" stroke-linecap="square" stroke-width="0.5" stroke-linejoin="miter"/>
   <polyline points="378.09,30.6104 384.09,36.6104" stroke="#0071bc" fill="none" stroke-linecap="square" stroke-width="0.5" stroke-linejoin="miter"/>
   <polyline points="378.09,36.6104 384.09,30.6104" stroke="#0071bc" fill="none" stroke-linecap="square" stroke-width="0.5" stroke-linejoin="miter"/>
   <polyline points="382.994,28.2373 388.994,34.2373" stroke="#0071bc" fill="none" stroke-linecap="square" stroke-width="0.5" stroke-linejoin="miter"/>
   <polyline points="382.994,34.2373 388.994,28.2373" stroke="#0071bc" fill="none" stroke-linecap="square" stroke-width="0.5" stroke-linejoin="miter"/>
   <polyline points="78.9497,178.604 84.9497,184.604" stroke="#0071bc" fill="none" stroke-linecap="square" stroke-width="0.5" stroke-linejoin="miter"/>
   <polyline points="78.9497,184.604 84.9497,178.604" stroke="#0071bc" fill="none" stroke-linecap="square" stroke-width="0.5" stroke-linejoin="miter"/>
   <polyline points="387.897,25.7812 393.897,31.7812" stroke="#0071bc" fill="none" stroke-linecap="square" stroke-width="0.5" stroke-linejoin="miter"/>
   <polyline points="387.897,31.7812 393.897,25.7812" stroke="#0071bc" fill="none" stroke-linecap="square" stroke-width="0.5" stroke-linejoin="miter"/>
   <polyline points="392.802,23.3799 398.802,29.3799" stroke="#0071bc" fill="none" stroke-linecap="square" stroke-width="0.5" stroke-linejoin="miter"/>
   <polyline points="392.802,29.3799 398.802,23.3799" stroke="#0071bc" fill="none" stroke-linecap="square" stroke-width="0.5" stroke-linejoin="miter"/>
   <polyline points="397.706,20.9531 403.706,26.9531" stroke="#0071bc" fill="none" stroke-linecap="square" stroke-width="0.5" stroke-linejoin="miter"/>
   <polyline points="397.706,26.9531 403.706,20.9531" stroke="#0071bc" fill="none" stroke-linecap="square" stroke-width="0.5" stroke-linejoin="miter"/>
   <polyline points="402.609,18.498 408.609,24.498" stroke="#0071bc" fill="none" stroke-linecap="square" stroke-width="0.5" stroke-linejoin="miter"/>
   <polyline points="402.609,24.498 408.609,18.498" stroke="#0071bc" fill="none" stroke-linecap="square" stroke-width="0.5" stroke-linejoin="miter"/>
   <polyline points="407.513,16.1016 413.513,22.1016" stroke="#0071bc" fill="none" stroke-linecap="square" stroke-width="0.5" stroke-linejoin="miter"/>
   <polyline points="407.513,22.1016 413.513,16.1016" stroke="#0071bc" fill="none" stroke-linecap="square" stroke-width="0.5" stroke-linejoin="miter"/>
   <polyline points="412.417,13.6655 418.417,19.6655" stroke="#0071bc" fill="none" stroke-linecap="square" stroke-width="0.5" stroke-linejoin="miter"/>
   <polyline points="412.417,19.6655 418.417,13.6655" stroke="#0071bc" fill="none" stroke-linecap="square" stroke-width="0.5" stroke-linejoin="miter"/>
   <polyline points="417.321,11.2139 423.321,17.2139" stroke="#0071bc" fill="none" stroke-linecap="square" stroke-width="0.5" stroke-linejoin="miter"/>
   <polyline points="417.321,17.2139 423.321,11.2139" stroke="#0071bc" fill="none" stroke-linecap="square" stroke-width="0.5" stroke-linejoin="miter"/>
   <polyline points="422.225,8.86035 428.225,14.8604" stroke="#0071bc" fill="none" stroke-linecap="square" stroke-width="0.5" stroke-linejoin="miter"/>
   <polyline points="422.225,14.8604 428.225,8.86035" stroke="#0071bc" fill="none" stroke-linecap="square" stroke-width="0.5" stroke-linejoin="miter"/>
   <polyline points="427.129,6.35645 433.129,12.3564" stroke="#0071bc" fill="none" stroke-linecap="square" stroke-width="0.5" stroke-linejoin="miter"/>
   <polyline points="427.129,12.3564 433.129,6.35645" stroke="#0071bc" fill="none" stroke-linecap="square" stroke-width="0.5" stroke-linejoin="miter"/>
   <polyline points="432.033,3.92285 438.033,9.92285" stroke="#0071bc" fill="none" stroke-linecap="square" stroke-width="0.5" stroke-linejoin="miter"/>
   <polyline points="432.033,9.92285 438.033,3.92285" stroke="#0071bc" fill="none" stroke-linecap="square" stroke-width="0.5" stroke-linejoin="miter"/>
   <polyline points="434.976,2.41895 440.976,8.41895" stroke="#0071bc" fill="none" stroke-linecap="square" stroke-width="0.5" stroke-linejoin="miter"/>
   <polyline points="434.976,8.41895 440.976,2.41895" stroke="#0071bc" fill="none" stroke-linecap="square" stroke-width="0.5" stroke-linejoin="miter"/>
   <polyline points="47.6221,198.61 439.937,4.52686" stroke="#d85218" fill="none" stroke-linecap="butt" stroke-width="0.5" stroke-linejoin="round"/>
  </g>
 </g>
</svg>
